Samaano-Wide-Thin.ufo
<glyph name=".notdef" format="2">
  <advance width="2048"/>
  <unicode hex="0000"/>
  <outline>
    <contour>
      <point x="463.0" y="-16.0" type="line"/>
      <point x="1461.0" y="-16.0" type="line"/>
      <point x="1461.0" y="1624.0" type="line"/>
      <point x="463.0" y="1624.0" type="line"/>
    </contour>
    <contour>
      <point x="537.0" y="64.0" type="line"/>
      <point x="537.0" y="1546.0" type="line"/>
      <point x="930.0" y="827.0" type="line"/>
    </contour>
    <contour>
      <point x="629.0" y="64.0" type="line"/>
      <point x="968.0" y="750.0" type="line"/>
      <point x="1309.0" y="64.0" type="line"/>
    </contour>
    <contour>
      <point x="657.0" y="1558.0" type="line"/>
      <point x="1288.0" y="1558.0" type="line"/>
      <point x="970.0" y="909.0" type="line"/>
    </contour>
    <contour>
      <point x="1008.0" y="832.0" type="line"/>
      <point x="1384.0" y="1559.0" type="line"/>
      <point x="1384.0" y="64.0" type="line"/>
    </contour>
  </outline>
</glyph>
<glyph name="exclam" format="2">
  <advance width="2048"/>
  <unicode hex="0021"/>
  <outline>
    <contour>
      <point x="990.0" y="76.0" type="line"/>
      <point x="1057.0" y="76.0" type="line"/>
      <point x="1057.0" y="174.0" type="line"/>
      <point x="990.0" y="174.0" type="line"/>
    </contour>
    <contour>
      <point x="988.0" y="411.0" type="line"/>
      <point x="1060.0" y="411.0" type="line"/>
      <point x="1060.0" y="1429.0" type="line"/>
      <point x="988.0" y="1429.0" type="line"/>
    </contour>
  </outline>
</glyph>
<glyph name="quotedbl" format="2">
  <advance width="2048"/>
  <unicode hex="0022"/>
  <outline>
    <contour>
      <point x="792.0" y="1326.0" type="line"/>
      <point x="858.0" y="1326.0" type="line"/>
      <point x="858.0" y="1574.0" type="line"/>
      <point x="792.0" y="1574.0" type="line"/>
    </contour>
    <contour>
      <point x="1196.0" y="1326.0" type="line"/>
      <point x="1256.0" y="1326.0" type="line"/>
      <point x="1256.0" y="1574.0" type="line"/>
      <point x="1196.0" y="1574.0" type="line"/>
    </contour>
  </outline>
</glyph>
<glyph name="numbersign" format="2">
  <advance width="2048"/>
  <unicode hex="0023"/>
  <outline>
    <contour>
      <point x="741.0" y="1184.0" type="line"/>
      <point x="741.0" y="99.0" type="line"/>
      <point x="800.0" y="99.0" type="line"/>
      <point x="800.0" y="1184.0" type="line"/>
    </contour>
    <contour>
      <point x="1236.0" y="1192.0" type="line"/>
      <point x="1236.0" y="95.0" type="line"/>
      <point x="1307.0" y="95.0" type="line"/>
      <point x="1307.0" y="1192.0" type="line"/>
    </contour>
    <contour>
      <point x="617.0" y="995.0" type="line"/>
      <point x="617.0" y="937.0" type="line"/>
      <point x="1418.0" y="937.0" type="line"/>
      <point x="1418.0" y="995.0" type="line"/>
    </contour>
    <contour>
      <point x="621.0" y="493.0" type="line"/>
      <point x="621.0" y="417.0" type="line"/>
      <point x="1431.0" y="417.0" type="line"/>
      <point x="1431.0" y="493.0" type="line"/>
    </contour>
  </outline>
</glyph>
<glyph name="dollar" format="2">
  <advance width="2048"/>
  <unicode hex="0024"/>
  <outline>
    <contour>
      <point x="638.0" y="1539.0" type="line"/>
      <point x="638.0" y="1457.0" type="line"/>
      <point x="1236.0" y="1457.0" type="line"/>
      <point x="1236.0" y="1539.0" type="line"/>
    </contour>
    <contour>
      <point x="638.0" y="1542.0" type="line"/>
      <point x="638.0" y="1028.0" type="line"/>
      <point x="722.0" y="1028.0" type="line"/>
      <point x="722.0" y="1542.0" type="line"/>
    </contour>
    <contour>
      <point x="666.0" y="69.0" type="line"/>
      <point x="666.0" y="0.0" type="line"/>
      <point x="1374.0" y="0.0" type="line"/>
      <point x="1374.0" y="69.0" type="line"/>
    </contour>
    <contour>
      <point x="1330.0" y="0.0" type="line"/>
      <point x="1410.0" y="0.0" type="line"/>
      <point x="1410.0" y="355.0" type="line"/>
      <point x="1330.0" y="355.0" type="line"/>
    </contour>
    <contour>
      <point x="638.0" y="1028.0" type="line"/>
      <point x="1329.0" y="355.0" type="line"/>
      <point x="1410.0" y="355.0" type="line"/>
      <point x="722.0" y="1028.0" type="line"/>
    </contour>
    <contour>
      <point x="933.0" y="1636.0" type="line"/>
      <point x="933.0" y="-215.0" type="line"/>
      <point x="1003.0" y="-215.0" type="line"/>
      <point x="1003.0" y="1636.0" type="line"/>
    </contour>
  </outline>
</glyph>
<glyph name="percent" format="2">
  <advance width="2048"/>
  <unicode hex="0025"/>
  <outline>
    <contour>
      <point x="634.0" y="444.0" type="line"/>
      <point x="663.0" y="417.0" type="line"/>
      <point x="1410.0" y="775.0" type="line"/>
      <point x="1391.0" y="801.0" type="line"/>
    </contour>
    <contour>
      <point x="740.0" y="1148.0" type="line"/>
      <point x="740.0" y="803.0" type="line"/>
      <point x="771.0" y="803.0" type="line"/>
      <point x="771.0" y="1148.0" type="line"/>
    </contour>
    <contour>
      <point x="740.0" y="1152.0" type="line"/>
      <point x="740.0" y="1126.0" type="line"/>
      <point x="1087.0" y="1126.0" type="line"/>
      <point x="1087.0" y="1152.0" type="line"/>
    </contour>
    <contour>
      <point x="740.0" y="826.0" type="line"/>
      <point x="740.0" y="789.0" type="line"/>
      <point x="1084.0" y="789.0" type="line"/>
      <point x="1084.0" y="826.0" type="line"/>
    </contour>
    <contour>
      <point x="1051.0" y="1152.0" type="line"/>
      <point x="1051.0" y="791.0" type="line"/>
      <point x="1087.0" y="791.0" type="line"/>
      <point x="1087.0" y="1152.0" type="line"/>
    </contour>
    <contour>
      <point x="1067.0" y="436.0" type="line"/>
      <point x="1067.0" y="94.0" type="line"/>
      <point x="1110.0" y="94.0" type="line"/>
      <point x="1110.0" y="436.0" type="line"/>
    </contour>
    <contour>
      <point x="1067.0" y="440.0" type="line"/>
      <point x="1067.0" y="397.0" type="line"/>
      <point x="1414.0" y="397.0" type="line"/>
      <point x="1414.0" y="440.0" type="line"/>
    </contour>
    <contour>
      <point x="1067.0" y="109.0" type="line"/>
      <point x="1067.0" y="77.0" type="line"/>
      <point x="1411.0" y="77.0" type="line"/>
      <point x="1411.0" y="109.0" type="line"/>
    </contour>
    <contour>
      <point x="1380.0" y="440.0" type="line"/>
      <point x="1380.0" y="79.0" type="line"/>
      <point x="1414.0" y="79.0" type="line"/>
      <point x="1414.0" y="440.0" type="line"/>
    </contour>
  </outline>
</glyph>
<glyph name="ampersand" format="2">
  <advance width="2048"/>
  <unicode hex="0026"/>
  <outline>
    <contour>
      <point x="772.5" y="1536" type="line"/>
      <point x="1290.5" y="43" type="line"/>
      <point x="1366.5" y="56" type="line"/>
      <point x="850.5" y="1534" type="line"/>
    </contour>
    <contour>
      <point x="1315.5" y="1467" type="line"/>
      <point x="1315.5" y="1536" type="line"/>
      <point x="850.5" y="1536" type="line"/>
      <point x="850.5" y="1467" type="line"/>
    </contour>
    <contour>
      <point x="1257.5" y="1485" type="line"/>
      <point x="1257.5" y="1006" type="line"/>
      <point x="1315.5" y="1006" type="line"/>
      <point x="1315.5" y="1485" type="line"/>
    </contour>
    <contour>
      <point x="619.5" y="1045" type="line"/>
      <point x="619.5" y="985" type="line"/>
      <point x="1315.5" y="985" type="line"/>
      <point x="1315.5" y="1045" type="line"/>
    </contour>
    <contour>
      <point x="619.5" y="1045" type="line"/>
      <point x="619.5" y="24" type="line"/>
      <point x="710.5" y="24" type="line"/>
      <point x="710.5" y="1045" type="line"/>
    </contour>
    <contour>
      <point x="619.5" y="71" type="line"/>
      <point x="619.5" y="6" type="line"/>
      <point x="1428.5" y="6" type="line"/>
      <point x="1428.5" y="71" type="line"/>
    </contour>
  </outline>
</glyph>
<glyph name="quotesingle" format="2">
  <advance width="2048"/>
  <unicode hex="0027"/>
  <outline>
    <contour>
      <point x="992.0" y="1496.0" type="line"/>
      <point x="992.0" y="1317.0" type="line"/>
      <point x="1056.0" y="1317.0" type="line"/>
      <point x="1056.0" y="1496.0" type="line"/>
    </contour>
  </outline>
</glyph>
<glyph name="parenleft" format="2">
  <advance width="2048"/>
  <unicode hex="0028"/>
  <outline>
    <contour>
      <point x="828.0" y="1026.0" type="line"/>
      <point x="828.0" y="179.0" type="line"/>
      <point x="956.0" y="179.0" type="line"/>
      <point x="956.0" y="1026.0" type="line"/>
    </contour>
    <contour>
      <point x="1192.0" y="1636.0" type="line"/>
      <point x="828.0" y="1026.0" type="line"/>
      <point x="956.0" y="1026.0" type="line"/>
      <point x="1220.0" y="1633.0" type="line"/>
    </contour>
    <contour>
      <point x="828.0" y="179.0" type="line"/>
      <point x="1166.0" y="-309.0" type="line"/>
      <point x="1194.0" y="-309.0" type="line"/>
      <point x="956.0" y="179.0" type="line"/>
    </contour>
  </outline>
</glyph>
<glyph name="parenright" format="2">
  <advance width="2048"/>
  <unicode hex="0029"/>
  <outline>
    <contour>
      <point x="1062.0" y="1026.0" type="line"/>
      <point x="1062.0" y="179.0" type="line"/>
      <point x="1190.0" y="179.0" type="line"/>
      <point x="1190.0" y="1026.0" type="line"/>
    </contour>
    <contour>
      <point x="858.0" y="1635.0" type="line"/>
      <point x="1062.0" y="1026.0" type="line"/>
      <point x="1190.0" y="1026.0" type="line"/>
      <point x="896.0" y="1635.0" type="line"/>
    </contour>
    <contour>
      <point x="1062.0" y="179.0" type="line"/>
      <point x="858.0" y="-309.0" type="line"/>
      <point x="886.0" y="-309.0" type="line"/>
      <point x="1190.0" y="179.0" type="line"/>
    </contour>
  </outline>
</glyph>
<glyph name="asterisk" format="2">
  <advance width="2048"/>
  <unicode hex="002A"/>
  <outline>
    <contour>
      <point x="998.0" y="1297.0" type="line"/>
      <point x="998.0" y="289.0" type="line"/>
      <point x="1098.0" y="289.0" type="line"/>
      <point x="1098.0" y="1297.0" type="line"/>
    </contour>
    <contour>
      <point x="652.0" y="1153.0" type="line"/>
      <point x="1376.0" y="424.0" type="line"/>
      <point x="1444.0" y="496.0" type="line"/>
      <point x="712.0" y="1222.0" type="line"/>
    </contour>
    <contour>
      <point x="1352.0" y="1200.0" type="line"/>
      <point x="604.0" y="449.0" type="line"/>
      <point x="660.0" y="399.0" type="line"/>
      <point x="1404.0" y="1134.0" type="line"/>
    </contour>
  </outline>
</glyph>
<glyph name="plus" format="2">
  <advance width="2048"/>
  <unicode hex="002B"/>
  <outline>
    <contour>
      <point x="946.0" y="1221.0" type="line"/>
      <point x="946.0" y="165.0" type="line"/>
      <point x="1056.0" y="165.0" type="line"/>
      <point x="1056.0" y="1221.0" type="line"/>
    </contour>
    <contour>
      <point x="573.0" y="796.0" type="line"/>
      <point x="573.0" y="693.0" type="line"/>
      <point x="1475.0" y="693.0" type="line"/>
      <point x="1475.0" y="796.0" type="line"/>
    </contour>
  </outline>
</glyph>
<glyph name="comma" format="2">
  <advance width="2048"/>
  <unicode hex="002C"/>
  <outline>
    <contour>
      <point x="956.0" y="165.0" type="line"/>
      <point x="956.0" y="8.0" type="line"/>
      <point x="1092.0" y="8.0" type="line"/>
      <point x="1092.0" y="165.0" type="line"/>
    </contour>
    <contour>
      <point x="1040.0" y="135.0" type="line"/>
      <point x="998.0" y="-99.0" type="line"/>
      <point x="1048.0" y="-148.0" type="line"/>
      <point x="1090.0" y="26.0" type="line"/>
    </contour>
  </outline>
</glyph>
<glyph name="hyphen" format="2">
  <advance width="2048"/>
  <unicode hex="002D"/>
  <outline>
    <contour>
      <point x="611" y="793" type="line"/>
      <point x="611" y="733" type="line"/>
      <point x="1437" y="733" type="line"/>
      <point x="1437" y="793" type="line"/>
    </contour>
  </outline>
</glyph>
<glyph name="period" format="2">
  <advance width="2048"/>
  <unicode hex="002E"/>
  <outline>
    <contour>
      <point x="952.0" y="113.0" type="line"/>
      <point x="952.0" y="0.0" type="line"/>
      <point x="1096.0" y="0.0" type="line"/>
      <point x="1096.0" y="113.0" type="line"/>
    </contour>
  </outline>
</glyph>
<glyph name="slash" format="2">
  <advance width="2048"/>
  <unicode hex="002F"/>
  <outline>
    <contour>
      <point x="1266.0" y="1480.0" type="line"/>
      <point x="679.0" y="10.0" type="line"/>
      <point x="782.0" y="10.0" type="line"/>
      <point x="1369.0" y="1480.0" type="line"/>
    </contour>
  </outline>
</glyph>
<glyph name="zero" format="2">
  <advance width="2048"/>
  <unicode hex="0030"/>
  <outline>
    <contour>
      <point x="426.0" y="883.0" type="line"/>
      <point x="1597.0" y="883.0" type="line"/>
      <point x="1597.0" y="740.0" type="line"/>
      <point x="426.0" y="740.0" type="line"/>
    </contour>
    <contour>
      <point x="152.0" y="1499.0" type="line"/>
      <point x="1894.0" y="1499.0" type="line"/>
      <point x="1894.0" y="72.0" type="line"/>
      <point x="152.0" y="72.0" type="line"/>
    </contour>
    <contour>
      <point x="93.0" y="1559.0" type="line"/>
      <point x="93.0" y="7.0" type="line"/>
      <point x="1954.0" y="7.0" type="line"/>
      <point x="1954.0" y="1559.0" type="line"/>
    </contour>
  </outline>
</glyph>
<glyph name="one" format="2">
  <advance width="2048"/>
  <unicode hex="0031"/>
  <outline>
    <contour>
      <point x="970" y="0" type="line"/>
      <point x="970" y="845" type="line"/>
      <point x="1078" y="845" type="line"/>
      <point x="1078" y="0" type="line"/>
    </contour>
    <contour>
      <point x="986" y="935" type="line"/>
      <point x="986" y="1640" type="line"/>
      <point x="1078" y="1640" type="line"/>
      <point x="1078" y="935" type="line"/>
    </contour>
  </outline>
</glyph>
<glyph name="two" format="2">
  <advance width="2048"/>
  <unicode hex="0032"/>
  <outline>
    <contour>
      <point x="22" y="111" type="line"/>
      <point x="22" y="795" type="line"/>
      <point x="118" y="795" type="line"/>
      <point x="118" y="111" type="line"/>
    </contour>
    <contour>
      <point x="128" y="105" type="line"/>
      <point x="1888" y="90" type="line"/>
      <point x="1884" y="0" type="line"/>
      <point x="134" y="0" type="line"/>
    </contour>
    <contour>
      <point x="154" y="1520" type="line"/>
      <point x="154" y="1630" type="line"/>
      <point x="1894" y="1640" type="line"/>
      <point x="1894" y="1520" type="line"/>
    </contour>
    <contour>
      <point x="164" y="810" type="line"/>
      <point x="164" y="935" type="line"/>
      <point x="1884" y="935" type="line"/>
      <point x="1884" y="810" type="line"/>
    </contour>
    <contour>
      <point x="1934" y="935" type="line"/>
      <point x="1934" y="1640" type="line"/>
      <point x="2026" y="1640" type="line"/>
      <point x="2026" y="935" type="line"/>
    </contour>
  </outline>
</glyph>
<glyph name="three" format="2">
  <advance width="2048"/>
  <unicode hex="0033"/>
  <outline>
    <contour>
      <point x="101.0" y="736.0" type="line"/>
      <point x="1927.0" y="736.0" type="line"/>
      <point x="1927.0" y="52.0" type="line"/>
      <point x="59.0" y="52.0" type="line"/>
      <point x="68.0" y="-8.0" type="line"/>
      <point x="1987.0" y="-8.0" type="line"/>
      <point x="1987.0" y="1550.0" type="line"/>
      <point x="89.0" y="1550.0" type="line"/>
      <point x="89.0" y="1493.0" type="line"/>
      <point x="1925.0" y="1493.0" type="line"/>
      <point x="1925.0" y="796.0" type="line"/>
      <point x="101.0" y="796.0" type="line"/>
    </contour>
  </outline>
</glyph>
<glyph name="four" format="2">
  <advance width="2048"/>
  <unicode hex="0034"/>
  <outline>
    <contour>
      <point x="91.0" y="761.0" type="line"/>
      <point x="1896.0" y="761.0" type="line"/>
      <point x="1896.0" y="7.0" type="line"/>
      <point x="1953.0" y="7.0" type="line"/>
      <point x="1953.0" y="1550.0" type="line"/>
      <point x="1893.0" y="1550.0" type="line"/>
      <point x="1893.0" y="821.0" type="line"/>
      <point x="151.0" y="821.0" type="line"/>
      <point x="151.0" y="1550.0" type="line"/>
      <point x="91.0" y="1550.0" type="line"/>
    </contour>
  </outline>
</glyph>
<glyph name="five" format="2">
  <advance width="2048"/>
  <unicode hex="0035"/>
  <outline>
    <contour>
      <point x="1941.0" y="899.0" type="line"/>
      <point x="1941.0" y="58.0" type="line"/>
      <point x="59.0" y="58.0" type="line"/>
      <point x="59.0" y="0.0" type="line"/>
      <point x="2001.0" y="0.0" type="line"/>
      <point x="2001.0" y="959.0" type="line"/>
      <point x="120.0" y="959.0" type="line"/>
      <point x="120.0" y="1492.0" type="line"/>
      <point x="2011.0" y="1492.0" type="line"/>
      <point x="2011.0" y="1550.0" type="line"/>
      <point x="60.0" y="1550.0" type="line"/>
      <point x="60.0" y="899.0" type="line"/>
    </contour>
  </outline>
</glyph>
<glyph name="six" format="2">
  <advance width="2048"/>
  <unicode hex="0036"/>
  <outline>
    <contour>
      <point x="41" y="1548" type="line"/>
      <point x="51.5" y="201" type="line"/>
      <point x="52" y="0" type="line"/>
      <point x="2001" y="4" type="line"/>
      <point x="2004" y="819" type="line"/>
      <point x="103" y="820" type="line"/>
      <point x="103" y="1488" type="line"/>
      <point x="2009" y="1488" type="line"/>
      <point x="2009" y="1548" type="line"/>
    </contour>
    <contour>
      <point x="1942" y="759" type="line"/>
      <point x="1942" y="63" type="line"/>
      <point x="109" y="63" type="line"/>
      <point x="109" y="759" type="line"/>
    </contour>
  </outline>
</glyph>
<glyph name="seven" format="2">
  <advance width="2048"/>
  <unicode hex="0037"/>
  <outline>
    <contour>
      <point x="75" y="1520" type="line"/>
      <point x="75" y="1630" type="line"/>
      <point x="1815" y="1640" type="line"/>
      <point x="1815" y="1520" type="line"/>
    </contour>
    <contour>
      <point x="1862" y="984" type="line"/>
      <point x="1851" y="1635" type="line"/>
      <point x="1950" y="1635" type="line"/>
      <point x="1958" y="980" type="line"/>
    </contour>
    <contour>
      <point x="1877" y="30" type="line"/>
      <point x="1862" y="933" type="line"/>
      <point x="1951" y="943" type="line"/>
      <point x="1973" y="30" type="line"/>
    </contour>
  </outline>
</glyph>
<glyph name="eight" format="2">
  <advance width="2048"/>
  <unicode hex="0038"/>
  <outline>
    <contour>
      <point x="56.0" y="1550.0" type="line"/>
      <point x="56.0" y="0.0" type="line"/>
      <point x="1993.0" y="-3.0" type="line"/>
      <point x="1993.0" y="1550.0" type="line"/>
    </contour>
    <contour>
      <point x="1931.0" y="899.0" type="line"/>
      <point x="1931.0" y="57.0" type="line"/>
      <point x="119.0" y="57.0" type="line"/>
      <point x="119.0" y="899.0" type="line"/>
    </contour>
    <contour>
      <point x="1932.0" y="959.0" type="line"/>
      <point x="118.0" y="959.0" type="line"/>
      <point x="118.0" y="1489.0" type="line"/>
      <point x="1932.0" y="1489.0" type="line"/>
    </contour>
  </outline>
</glyph>
<glyph name="nine" format="2">
  <advance width="2048"/>
  <unicode hex="0039"/>
  <outline>
    <contour>
      <point x="1945.0" y="759.0" type="line"/>
      <point x="1945.0" y="59.0" type="line"/>
      <point x="79.0" y="59.0" type="line"/>
      <point x="79.0" y="0.0" type="line"/>
      <point x="2001.0" y="0.0" type="line"/>
      <point x="2001.0" y="1553.0" type="line"/>
      <point x="57.0" y="1553.0" type="line"/>
      <point x="57.0" y="1541.0" type="line"/>
      <point x="57.0" y="759.0" type="line"/>
    </contour>
    <contour>
      <point x="1942.0" y="818.0" type="line"/>
      <point x="117.0" y="818.0" type="line"/>
      <point x="117.0" y="1495.0" type="line"/>
      <point x="1942.0" y="1495.0" type="line"/>
    </contour>
  </outline>
</glyph>
<glyph name="colon" format="2">
	<unicode hex="003A"/>
	<advance width="2048"/>
	<outline>
		<contour>
			<point x="956" y="164" type="line"/>
			<point x="956" y="7" type="line"/>
			<point x="1092" y="7" type="line"/>
			<point x="1092" y="164" type="line"/>
		</contour>
		<contour>
			<point x="956" y="553" type="line"/>
			<point x="956" y="396" type="line"/>
			<point x="1092" y="396" type="line"/>
			<point x="1092" y="553" type="line"/>
		</contour>
	</outline>
</glyph>
<glyph name="semicolon" format="2">
  <advance width="2048"/>
  <unicode hex="003B"/>
  <outline>
    <contour>
      <point x="956" y="164" type="line"/>
      <point x="956" y="7" type="line"/>
      <point x="1092" y="7" type="line"/>
      <point x="1092" y="164" type="line"/>
    </contour>
    <contour>
      <point x="1040" y="135" type="line"/>
      <point x="998" y="-99" type="line"/>
      <point x="1048" y="-148" type="line"/>
      <point x="1090" y="26" type="line"/>
    </contour>
    <contour>
      <point x="956" y="503" type="line"/>
      <point x="956" y="346" type="line"/>
      <point x="1092" y="346" type="line"/>
      <point x="1092" y="503" type="line"/>
    </contour>
  </outline>
</glyph>
<glyph name="less" format="2">
  <advance width="2048"/>
  <unicode hex="003C"/>
  <outline>
    <contour>
      <point x="615.0" y="652.0" type="line"/>
      <point x="615.0" y="569.0" type="line"/>
      <point x="1433.0" y="946.0" type="line"/>
      <point x="1433.0" y="1013.0" type="line"/>
    </contour>
    <contour>
      <point x="615.0" y="652.0" type="line"/>
      <point x="615.0" y="569.0" type="line"/>
      <point x="1427.0" y="122.0" type="line"/>
      <point x="1427.0" y="199.0" type="line"/>
    </contour>
  </outline>
</glyph>
<glyph name="equal" format="2">
  <advance width="2048"/>
  <unicode hex="003D"/>
  <outline>
    <contour>
      <point x="615.5" y="824" type="line"/>
      <point x="615.5" y="724" type="line"/>
      <point x="1432.5" y="724" type="line"/>
      <point x="1432.5" y="824" type="line"/>
    </contour>
    <contour>
      <point x="615.5" y="540" type="line"/>
      <point x="615.5" y="450" type="line"/>
      <point x="1432.5" y="450" type="line"/>
      <point x="1432.5" y="540" type="line"/>
    </contour>
  </outline>
</glyph>
<glyph name="greater" format="2">
  <advance width="2048"/>
  <unicode hex="003E"/>
  <outline>
    <contour>
      <point x="1433.0" y="632.0" type="line"/>
      <point x="617.0" y="1013.0" type="line"/>
      <point x="617.0" y="952.0" type="line"/>
      <point x="1433.0" y="569.0" type="line"/>
    </contour>
    <contour>
      <point x="1433.0" y="632.0" type="line"/>
      <point x="615.0" y="186.0" type="line"/>
      <point x="615.0" y="122.0" type="line"/>
      <point x="1433.0" y="569.0" type="line"/>
    </contour>
  </outline>
</glyph>
<glyph name="question" format="2">
  <advance width="2048"/>
  <unicode hex="003F"/>
  <outline>
    <contour>
      <point x="880.0" y="134.0" type="line"/>
      <point x="880.0" y="0.0" type="line"/>
      <point x="992.0" y="0.0" type="line"/>
      <point x="992.0" y="134.0" type="line"/>
    </contour>
    <contour>
      <point x="704.0" y="1519.0" type="line"/>
      <point x="704.0" y="1426.0" type="line"/>
      <point x="1340.0" y="1426.0" type="line"/>
      <point x="1340.0" y="1519.0" type="line"/>
    </contour>
    <contour>
      <point x="1258.0" y="1514.0" type="line"/>
      <point x="1258.0" y="966.0" type="line"/>
      <point x="1344.0" y="966.0" type="line"/>
      <point x="1344.0" y="1514.0" type="line"/>
    </contour>
    <contour>
      <point x="880.0" y="1015.0" type="line"/>
      <point x="880.0" y="948.0" type="line"/>
      <point x="1344.0" y="948.0" type="line"/>
      <point x="1344.0" y="1015.0" type="line"/>
    </contour>
    <contour>
      <point x="880.0" y="1011.0" type="line"/>
      <point x="880.0" y="392.0" type="line"/>
      <point x="976.0" y="392.0" type="line"/>
      <point x="976.0" y="1011.0" type="line"/>
    </contour>
  </outline>
</glyph>
<glyph name="at" format="2">
  <advance width="2048"/>
  <unicode hex="0040"/>
  <outline>
    <contour>
      <point x="594" y="1023" type="line"/>
      <point x="594" y="956" type="line"/>
      <point x="1492" y="956" type="line"/>
      <point x="1492" y="1023" type="line"/>
    </contour>
    <contour>
      <point x="1252" y="598" type="line"/>
      <point x="1252" y="0" type="line"/>
      <point x="1320" y="0" type="line"/>
      <point x="1320" y="598" type="line"/>
    </contour>
    <contour>
      <point x="832" y="601" type="line"/>
      <point x="832" y="551" type="line"/>
      <point x="1256" y="551" type="line"/>
      <point x="1256" y="601" type="line"/>
    </contour>
    <contour>
      <point x="828" y="589" type="line"/>
      <point x="828" y="12" type="line"/>
      <point x="882" y="12" type="line"/>
      <point x="882" y="589" type="line"/>
    </contour>
    <contour>
      <point x="826" y="76" type="line"/>
      <point x="826" y="0" type="line"/>
      <point x="1320" y="0" type="line"/>
      <point x="1320" y="76" type="line"/>
    </contour>
    <contour>
      <point x="540" y="1023" type="line"/>
      <point x="540" y="-223" type="line"/>
      <point x="606" y="-223" type="line"/>
      <point x="606" y="1023" type="line"/>
    </contour>
    <contour>
      <point x="538" y="-179" type="line"/>
      <point x="538" y="-258" type="line"/>
      <point x="1486" y="-258" type="line"/>
      <point x="1486" y="-179" type="line"/>
    </contour>
    <contour>
      <point x="1424" y="1033" type="line"/>
      <point x="1424" y="0" type="line"/>
      <point x="1510" y="0" type="line"/>
      <point x="1510" y="1033" type="line"/>
    </contour>
    <contour>
      <point x="1266" y="76" type="line"/>
      <point x="1266" y="0" type="line"/>
      <point x="1456" y="0" type="line"/>
      <point x="1456" y="76" type="line"/>
    </contour>
  </outline>
</glyph>
<glyph name="A" format="2">
  <advance width="2048"/>
  <unicode hex="0041"/>
  <outline>
    <contour>
      <point x="125" y="16" type="line"/>
      <point x="183" y="16" type="line"/>
      <point x="175" y="1554" type="line"/>
      <point x="116" y="1554" type="line"/>
    </contour>
    <contour>
      <point x="175" y="1494" type="line"/>
      <point x="1869" y="1492" type="line"/>
      <point x="1863" y="1553" type="line"/>
      <point x="175" y="1554" type="line"/>
    </contour>
    <contour>
      <point x="169" y="970" type="line"/>
      <point x="166" y="908" type="line"/>
      <point x="1863" y="911" type="line"/>
      <point x="1863" y="970" type="line"/>
    </contour>
    <contour>
      <point x="1848" y="2" type="line"/>
      <point x="1908" y="5" type="line"/>
      <point x="1907" y="1553" type="line"/>
      <point x="1847" y="1553" type="line"/>
    </contour>
  </outline>
</glyph>
<glyph name="B" format="2">
  <advance width="2048"/>
  <unicode hex="0042"/>
  <outline>
    <contour>
      <point x="114.0" y="0.0" type="line"/>
      <point x="171.0" y="0.0" type="line"/>
      <point x="171.0" y="1553.0" type="line"/>
      <point x="114.0" y="1553.0" type="line"/>
    </contour>
    <contour>
      <point x="1060.0" y="1494.0" type="line"/>
      <point x="1899.0" y="1232.0" type="line"/>
      <point x="1899.0" y="1288.0" type="line"/>
      <point x="1060.0" y="1550.0" type="line"/>
    </contour>
    <contour>
      <point x="1083.0" y="848.0" type="line"/>
      <point x="1899.0" y="1232.0" type="line"/>
      <point x="1899.0" y="1286.0" type="line"/>
      <point x="1083.0" y="908.0" type="line"/>
    </contour>
    <contour>
      <point x="1065.0" y="62.0" type="line"/>
      <point x="1065.0" y="0.0" type="line"/>
      <point x="1933.0" y="434.0" type="line"/>
      <point x="1933.0" y="500.0" type="line"/>
    </contour>
    <contour>
      <point x="1069.0" y="719.0" type="line"/>
      <point x="1934.0" y="430.0" type="line"/>
      <point x="1934.0" y="501.0" type="line"/>
      <point x="1069.0" y="781.0" type="line"/>
    </contour>
    <contour>
      <point x="168.0" y="907.0" type="line"/>
      <point x="168.0" y="847.0" type="line"/>
      <point x="1083.0" y="847.0" type="line"/>
      <point x="1083.0" y="907.0" type="line"/>
    </contour>
    <contour>
      <point x="159.0" y="781.0" type="line"/>
      <point x="159.0" y="721.0" type="line"/>
      <point x="1069.0" y="721.0" type="line"/>
      <point x="1069.0" y="781.0" type="line"/>
    </contour>
    <contour>
      <point x="155.0" y="62.0" type="line"/>
      <point x="155.0" y="0.0" type="line"/>
      <point x="1065.0" y="0.0" type="line"/>
      <point x="1065.0" y="62.0" type="line"/>
    </contour>
    <contour>
      <point x="150.0" y="1553.0" type="line"/>
      <point x="150.0" y="1494.0" type="line"/>
      <point x="1060.0" y="1494.0" type="line"/>
      <point x="1060.0" y="1553.0" type="line"/>
    </contour>
  </outline>
</glyph>
<glyph name="C" format="2">
  <advance width="2048"/>
  <unicode hex="0043"/>
  <outline>
    <contour>
      <point x="71.0" y="1553.0" type="line"/>
      <point x="71.0" y="0.0" type="line"/>
      <point x="131.0" y="0.0" type="line"/>
      <point x="131.0" y="1553.0" type="line"/>
    </contour>
    <contour>
      <point x="100.0" y="1553.0" type="line"/>
      <point x="100.0" y="1495.0" type="line"/>
      <point x="1977.0" y="1495.0" type="line"/>
      <point x="1977.0" y="1553.0" type="line"/>
    </contour>
    <contour>
      <point x="105.0" y="58.0" type="line"/>
      <point x="105.0" y="0.0" type="line"/>
      <point x="1975.0" y="0.0" type="line"/>
      <point x="1975.0" y="58.0" type="line"/>
    </contour>
  </outline>
</glyph>
<glyph name="D" format="2">
  <advance width="2048"/>
  <unicode hex="0044"/>
  <outline>
    <contour>
      <point x="108.0" y="1553.0" type="line"/>
      <point x="108.0" y="0.0" type="line"/>
      <point x="168.0" y="0.0" type="line"/>
      <point x="168.0" y="1553.0" type="line"/>
    </contour>
    <contour>
      <point x="1248.0" y="1550.0" type="line"/>
      <point x="1248.0" y="1493.0" type="line"/>
      <point x="1938.0" y="961.0" type="line"/>
      <point x="1938.0" y="1023.0" type="line"/>
    </contour>
    <contour>
      <point x="1248.0" y="58.0" type="line"/>
      <point x="1248.0" y="0.0" type="line"/>
      <point x="1940.0" y="960.0" type="line"/>
      <point x="1940.0" y="1023.0" type="line"/>
    </contour>
    <contour>
      <point x="168.0" y="1553.0" type="line"/>
      <point x="168.0" y="1493.0" type="line"/>
      <point x="1248.0" y="1493.0" type="line"/>
      <point x="1248.0" y="1553.0" type="line"/>
    </contour>
    <contour>
      <point x="170.0" y="58.0" type="line"/>
      <point x="170.0" y="0.0" type="line"/>
      <point x="1248.0" y="0.0" type="line"/>
      <point x="1248.0" y="58.0" type="line"/>
    </contour>
  </outline>
</glyph>
<glyph name="E" format="2">
  <advance width="2048"/>
  <unicode hex="0045"/>
  <outline>
    <contour>
      <point x="116.0" y="1550.0" type="line"/>
      <point x="116.0" y="0.0" type="line"/>
      <point x="174.0" y="0.0" type="line"/>
      <point x="174.0" y="1550.0" type="line"/>
    </contour>
    <contour>
      <point x="152.0" y="1553.0" type="line"/>
      <point x="152.0" y="1490.0" type="line"/>
      <point x="1912.0" y="1490.0" type="line"/>
      <point x="1912.0" y="1553.0" type="line"/>
    </contour>
    <contour>
      <point x="158.0" y="60.0" type="line"/>
      <point x="158.0" y="0.0" type="line"/>
      <point x="1928.0" y="0.0" type="line"/>
      <point x="1928.0" y="60.0" type="line"/>
    </contour>
    <contour>
      <point x="158.0" y="859.0" type="line"/>
      <point x="158.0" y="798.0" type="line"/>
      <point x="1682.0" y="798.0" type="line"/>
      <point x="1682.0" y="859.0" type="line"/>
    </contour>
  </outline>
</glyph>
<glyph name="F" format="2">
	<unicode hex="0046"/>
	<advance width="2048"/>
	<outline>
		<contour>
			<point x="117" y="1553" type="line"/>
			<point x="117" y="3" type="line"/>
			<point x="176" y="3" type="line"/>
			<point x="176" y="1553" type="line"/>
		</contour>
		<contour>
			<point x="176" y="1553" type="line"/>
			<point x="176" y="1497" type="line"/>
			<point x="1930" y="1497" type="line"/>
			<point x="1930" y="1553" type="line"/>
		</contour>
		<contour>
			<point x="167" y="864" type="line"/>
			<point x="167" y="806" type="line"/>
			<point x="1757" y="806" type="line"/>
			<point x="1757" y="864" type="line"/>
		</contour>
	</outline>
</glyph>
<glyph name="G" format="2">
  <advance width="2048"/>
  <unicode hex="0047"/>
  <outline>
    <contour>
      <point x="127.0" y="1529.0" type="line"/>
      <point x="127.0" y="-4.0" type="line"/>
      <point x="186.0" y="-4.0" type="line"/>
      <point x="186.0" y="1529.0" type="line"/>
    </contour>
    <contour>
      <point x="180.0" y="1529.0" type="line"/>
      <point x="180.0" y="1469.0" type="line"/>
      <point x="1885.0" y="1469.0" type="line"/>
      <point x="1885.0" y="1529.0" type="line"/>
    </contour>
    <contour>
      <point x="158.0" y="60.0" type="line"/>
      <point x="158.0" y="0.0" type="line"/>
      <point x="1921.0" y="0.0" type="line"/>
      <point x="1921.0" y="60.0" type="line"/>
    </contour>
    <contour>
      <point x="1860.0" y="561.0" type="line"/>
      <point x="1860.0" y="18.0" type="line"/>
      <point x="1921.0" y="18.0" type="line"/>
      <point x="1921.0" y="561.0" type="line"/>
    </contour>
  </outline>
</glyph>
<glyph name="H" format="2">
  <advance width="2048"/>
  <unicode hex="0048"/>
  <outline>
    <contour>
      <point x="89" y="1553" type="line"/>
      <point x="89" y="1" type="line"/>
      <point x="148" y="1" type="line"/>
      <point x="148" y="1553" type="line"/>
    </contour>
    <contour>
      <point x="1848" y="1554" type="line"/>
      <point x="1848" y="1" type="line"/>
      <point x="1909" y="1" type="line"/>
      <point x="1909" y="1554" type="line"/>
    </contour>
    <contour>
      <point x="131" y="923" type="line"/>
      <point x="131" y="864" type="line"/>
      <point x="1872" y="864" type="line"/>
      <point x="1872" y="923" type="line"/>
    </contour>
  </outline>
</glyph>
<glyph name="I" format="2">
  <advance width="2048"/>
  <unicode hex="0049"/>
  <outline>
    <contour>
      <point x="154.0" y="1550.0" type="line"/>
      <point x="154.0" y="1489.0" type="line"/>
      <point x="1879.0" y="1489.0" type="line"/>
      <point x="1879.0" y="1550.0" type="line"/>
    </contour>
    <contour>
      <point x="1058.0" y="1515.0" type="line"/>
      <point x="1058.0" y="34.0" type="line"/>
      <point x="1117.0" y="34.0" type="line"/>
      <point x="1117.0" y="1515.0" type="line"/>
    </contour>
    <contour>
      <point x="134.0" y="66.0" type="line"/>
      <point x="134.0" y="6.0" type="line"/>
      <point x="1914.0" y="6.0" type="line"/>
      <point x="1914.0" y="66.0" type="line"/>
    </contour>
  </outline>
</glyph>
<glyph name="J" format="2">
  <advance width="2048"/>
  <unicode hex="004A"/>
  <outline>
    <contour>
      <point x="1865" y="1527" type="line"/>
      <point x="1865" y="1" type="line"/>
      <point x="1924" y="1" type="line"/>
      <point x="1924" y="1527" type="line"/>
    </contour>
    <contour>
      <point x="125" y="60" type="line"/>
      <point x="125" y="0" type="line"/>
      <point x="1891" y="0" type="line"/>
      <point x="1891" y="60" type="line"/>
    </contour>
    <contour>
      <point x="125" y="503" type="line"/>
      <point x="125" y="29" type="line"/>
      <point x="185" y="27" type="line"/>
      <point x="185" y="503" type="line"/>
    </contour>
  </outline>
</glyph>
<glyph name="K" format="2">
  <advance width="2048"/>
  <unicode hex="004B"/>
  <outline>
    <contour>
      <point x="118" y="1553" type="line"/>
      <point x="118" y="5" type="line"/>
      <point x="177" y="5" type="line"/>
      <point x="177" y="1553" type="line"/>
    </contour>
    <contour>
      <point x="176" y="1015" type="line"/>
      <point x="179" y="944" type="line"/>
      <point x="1788" y="1552" type="line"/>
      <point x="1717" y="1554" type="line"/>
    </contour>
    <contour>
      <point x="176" y="934" type="line"/>
      <point x="156" y="844" type="line"/>
      <point x="1772" y="3" type="line"/>
      <point x="1821" y="1" type="line"/>
    </contour>
  </outline>
</glyph>
<glyph name="L" format="2">
  <advance width="2048"/>
  <unicode hex="004C"/>
  <outline>
    <contour>
      <point x="129.5" y="1554" type="line"/>
      <point x="129.5" y="0" type="line"/>
      <point x="189.5" y="0" type="line"/>
      <point x="189.5" y="1554" type="line"/>
    </contour>
    <contour>
      <point x="144.5" y="61" type="line"/>
      <point x="150.5" y="0" type="line"/>
      <point x="1918.5" y="0" type="line"/>
      <point x="1913.5" y="61" type="line"/>
    </contour>
  </outline>
</glyph>
<glyph name="M" format="2">
  <advance width="2048"/>
  <unicode hex="004D"/>
  <outline>
    <contour>
      <point x="100.0" y="1553.0" type="line"/>
      <point x="100.0" y="0.0" type="line"/>
      <point x="160.0" y="0.0" type="line"/>
      <point x="160.0" y="1553.0" type="line"/>
    </contour>
    <contour>
      <point x="1886.0" y="1553.0" type="line"/>
      <point x="1886.0" y="-3.0" type="line"/>
      <point x="1948.0" y="-3.0" type="line"/>
      <point x="1948.0" y="1553.0" type="line"/>
    </contour>
    <contour>
      <point x="100.0" y="1553.0" type="line"/>
      <point x="1046.0" y="1033.0" type="line"/>
      <point x="1116.0" y="1033.0" type="line"/>
      <point x="160.0" y="1553.0" type="line"/>
    </contour>
    <contour>
      <point x="1886.0" y="1553.0" type="line"/>
      <point x="1048.0" y="1033.0" type="line"/>
      <point x="1116.0" y="1033.0" type="line"/>
      <point x="1948.0" y="1553.0" type="line"/>
    </contour>
  </outline>
</glyph>
<glyph name="N" format="2">
  <advance width="2048"/>
  <unicode hex="004E"/>
  <outline>
    <contour>
      <point x="97.5" y="1555" type="line"/>
      <point x="97.5" y="-1" type="line"/>
      <point x="159.5" y="0" type="line"/>
      <point x="157.5" y="1554" type="line"/>
    </contour>
    <contour>
      <point x="1889.5" y="1554" type="line"/>
      <point x="1889.5" y="0" type="line"/>
      <point x="1950.5" y="0" type="line"/>
      <point x="1949.5" y="1554" type="line"/>
    </contour>
    <contour>
      <point x="98.5" y="1554" type="line"/>
      <point x="1889.5" y="0" type="line"/>
      <point x="1950.5" y="0" type="line"/>
      <point x="158.5" y="1553" type="line"/>
    </contour>
  </outline>
</glyph>
<glyph name="O" format="2">
  <advance width="2048"/>
  <unicode hex="004F"/>
  <outline>
    <contour>
      <point x="112.0" y="1553.0" type="line"/>
      <point x="112.0" y="0.0" type="line"/>
      <point x="171.0" y="0.0" type="line"/>
      <point x="171.0" y="1553.0" type="line"/>
    </contour>
    <contour>
      <point x="1877.0" y="1553.0" type="line"/>
      <point x="1877.0" y="0.0" type="line"/>
      <point x="1936.0" y="0.0" type="line"/>
      <point x="1936.0" y="1553.0" type="line"/>
    </contour>
    <contour>
      <point x="150.0" y="1553.0" type="line"/>
      <point x="150.0" y="1493.0" type="line"/>
      <point x="1906.0" y="1493.0" type="line"/>
      <point x="1906.0" y="1553.0" type="line"/>
    </contour>
    <contour>
      <point x="152.0" y="61.0" type="line"/>
      <point x="152.0" y="0.0" type="line"/>
      <point x="1914.0" y="0.0" type="line"/>
      <point x="1914.0" y="61.0" type="line"/>
    </contour>
  </outline>
</glyph>
<glyph name="P" format="2">
  <advance width="2048"/>
  <unicode hex="0050"/>
  <outline>
    <contour>
      <point x="133.0" y="1535.0" type="line"/>
      <point x="133.0" y="0.0" type="line"/>
      <point x="192.0" y="0.0" type="line"/>
      <point x="192.0" y="1535.0" type="line"/>
    </contour>
    <contour>
      <point x="133.0" y="1550.0" type="line"/>
      <point x="133.0" y="1472.0" type="line"/>
      <point x="1917.0" y="1472.0" type="line"/>
      <point x="1917.0" y="1550.0" type="line"/>
    </contour>
    <contour>
      <point x="1856.0" y="1536.0" type="line"/>
      <point x="1856.0" y="872.0" type="line"/>
      <point x="1917.0" y="872.0" type="line"/>
      <point x="1917.0" y="1536.0" type="line"/>
    </contour>
    <contour>
      <point x="178.0" y="931.0" type="line"/>
      <point x="178.0" y="871.0" type="line"/>
      <point x="1889.0" y="871.0" type="line"/>
      <point x="1889.0" y="931.0" type="line"/>
    </contour>
  </outline>
</glyph>
<glyph name="Q" format="2">
  <advance width="2048"/>
  <unicode hex="0051"/>
  <outline>
    <contour>
      <point x="112.0" y="1553.0" type="line"/>
      <point x="112.0" y="0.0" type="line"/>
      <point x="170.0" y="0.0" type="line"/>
      <point x="170.0" y="1553.0" type="line"/>
    </contour>
    <contour>
      <point x="1878.0" y="1553.0" type="line"/>
      <point x="1878.0" y="0.0" type="line"/>
      <point x="1936.0" y="0.0" type="line"/>
      <point x="1936.0" y="1553.0" type="line"/>
    </contour>
    <contour>
      <point x="152.0" y="1553.0" type="line"/>
      <point x="152.0" y="1496.0" type="line"/>
      <point x="1886.0" y="1496.0" type="line"/>
      <point x="1886.0" y="1553.0" type="line"/>
    </contour>
    <contour>
      <point x="152.0" y="62.0" type="line"/>
      <point x="152.0" y="0.0" type="line"/>
      <point x="1888.0" y="0.0" type="line"/>
      <point x="1888.0" y="62.0" type="line"/>
    </contour>
    <contour>
      <point x="1416.0" y="13.0" type="line"/>
      <point x="1522.0" y="-204.0" type="line"/>
      <point x="1584.0" y="-165.0" type="line"/>
      <point x="1464.0" y="52.0" type="line"/>
    </contour>
  </outline>
</glyph>
<glyph name="R" format="2">
  <advance width="2048"/>
  <unicode hex="0052"/>
  <outline>
    <contour>
      <point x="112" y="1550" type="line"/>
      <point x="112" y="-1" type="line"/>
      <point x="172" y="-1" type="line"/>
      <point x="172" y="1550" type="line"/>
    </contour>
    <contour>
      <point x="154" y="1551" type="line"/>
      <point x="154" y="1491" type="line"/>
      <point x="1871" y="1491" type="line"/>
      <point x="1871" y="1551" type="line"/>
    </contour>
    <contour>
      <point x="1811" y="1551" type="line"/>
      <point x="1811" y="872" type="line"/>
      <point x="1898" y="872" type="line"/>
      <point x="1898" y="1551" type="line"/>
    </contour>
    <contour>
      <point x="142" y="929" type="line"/>
      <point x="142" y="868" type="line"/>
      <point x="1886" y="868" type="line"/>
      <point x="1886" y="929" type="line"/>
    </contour>
    <contour>
      <point x="405" y="870" type="line"/>
      <point x="1860" y="1" type="line"/>
      <point x="1917" y="1" type="line"/>
      <point x="463" y="875" type="line"/>
    </contour>
  </outline>
</glyph>
<glyph name="S" format="2">
  <advance width="2048"/>
  <unicode hex="0053"/>
  <outline>
    <contour>
      <point x="126.0" y="1553.0" type="line"/>
      <point x="126.0" y="1494.0" type="line"/>
      <point x="1748.0" y="1494.0" type="line"/>
      <point x="1748.0" y="1553.0" type="line"/>
    </contour>
    <contour>
      <point x="126.0" y="1542.0" type="line"/>
      <point x="126.0" y="1028.0" type="line"/>
      <point x="185.0" y="1028.0" type="line"/>
      <point x="185.0" y="1542.0" type="line"/>
    </contour>
    <contour>
      <point x="154.0" y="60.0" type="line"/>
      <point x="154.0" y="0.0" type="line"/>
      <point x="1886.0" y="0.0" type="line"/>
      <point x="1886.0" y="60.0" type="line"/>
    </contour>
    <contour>
      <point x="1863.0" y="0.0" type="line"/>
      <point x="1922.0" y="0.0" type="line"/>
      <point x="1922.0" y="355.0" type="line"/>
      <point x="1863.0" y="355.0" type="line"/>
    </contour>
    <contour>
      <point x="126.0" y="1028.0" type="line"/>
      <point x="1863.0" y="355.0" type="line"/>
      <point x="1922.0" y="355.0" type="line"/>
      <point x="185.0" y="1028.0" type="line"/>
    </contour>
  </outline>
</glyph>
<glyph name="T" format="2">
  <advance width="2048"/>
  <unicode hex="0054"/>
  <anchor x="1100" y="1654" name="top"/>
  <anchor x="1084" y="-62" name="base"/>
  <outline>
    <contour>
      <point x="120" y="1553" type="line"/>
      <point x="120" y="1494" type="line"/>
      <point x="1928" y="1494" type="line"/>
      <point x="1928" y="1553" type="line"/>
    </contour>
    <contour>
      <point x="991" y="1512" type="line"/>
      <point x="991" y="12" type="line"/>
      <point x="1051" y="12" type="line"/>
      <point x="1051" y="1512" type="line"/>
    </contour>
  </outline>
</glyph>
<glyph name="U" format="2">
  <advance width="2048"/>
  <unicode hex="0055"/>
  <outline>
    <contour>
      <point x="157" y="1554" type="line"/>
      <point x="157" y="0" type="line"/>
      <point x="218" y="0" type="line"/>
      <point x="219" y="1554" type="line"/>
    </contour>
    <contour>
      <point x="1831" y="1553" type="line"/>
      <point x="1831" y="0" type="line"/>
      <point x="1892" y="0" type="line"/>
      <point x="1891" y="1553" type="line"/>
    </contour>
    <contour>
      <point x="204" y="61" type="line"/>
      <point x="205" y="0" type="line"/>
      <point x="1848" y="0" type="line"/>
      <point x="1848" y="61" type="line"/>
    </contour>
  </outline>
</glyph>
<glyph name="V" format="2">
  <advance width="2048"/>
  <unicode hex="0056"/>
  <anchor x="996" y="1622" name="top"/>
  <anchor x="1128" y="-74" name="base"/>
  <outline>
    <contour>
      <point x="106" y="1553" type="line"/>
      <point x="1062" y="0" type="line"/>
      <point x="1122" y="0" type="line"/>
      <point x="170" y="1553" type="line"/>
    </contour>
    <contour>
      <point x="1872" y="1553" type="line"/>
      <point x="1062" y="0" type="line"/>
      <point x="1122" y="0" type="line"/>
      <point x="1942" y="1553" type="line"/>
    </contour>
  </outline>
</glyph>
<glyph name="W" format="2">
  <advance width="2048"/>
  <unicode hex="0057"/>
  <outline>
    <contour>
      <point x="103.0" y="1546.0" type="line"/>
      <point x="103.0" y="0.0" type="line"/>
      <point x="163.0" y="0.0" type="line"/>
      <point x="163.0" y="1546.0" type="line"/>
    </contour>
    <contour>
      <point x="1885.0" y="1533.0" type="line"/>
      <point x="1885.0" y="12.0" type="line"/>
      <point x="1945.0" y="12.0" type="line"/>
      <point x="1945.0" y="1533.0" type="line"/>
    </contour>
    <contour>
      <point x="1069.0" y="1028.0" type="line"/>
      <point x="1069.0" y="0.0" type="line"/>
      <point x="1129.0" y="0.0" type="line"/>
      <point x="1129.0" y="1028.0" type="line"/>
    </contour>
    <contour>
      <point x="111.0" y="60.0" type="line"/>
      <point x="111.0" y="0.0" type="line"/>
      <point x="1945.0" y="0.0" type="line"/>
      <point x="1945.0" y="60.0" type="line"/>
    </contour>
  </outline>
</glyph>
<glyph name="X" format="2">
  <advance width="2048"/>
  <unicode hex="0058"/>
  <outline>
    <contour>
      <point x="102.0" y="1553.0" type="line"/>
      <point x="1872.0" y="0.0" type="line"/>
      <point x="1946.0" y="0.0" type="line"/>
      <point x="174.0" y="1553.0" type="line"/>
    </contour>
    <contour>
      <point x="102.0" y="0.0" type="line"/>
      <point x="172.0" y="0.0" type="line"/>
      <point x="1946.0" y="1553.0" type="line"/>
      <point x="1870.0" y="1553.0" type="line"/>
    </contour>
  </outline>
</glyph>
<glyph name="Y" format="2">
  <advance width="2048"/>
  <unicode hex="0059"/>
  <outline>
    <contour>
      <point x="1060.0" y="895.0" type="line"/>
      <point x="1060.0" y="0.0" type="line"/>
      <point x="1119.0" y="0.0" type="line"/>
      <point x="1119.0" y="895.0" type="line"/>
    </contour>
    <contour>
      <point x="171.0" y="1547.0" type="line"/>
      <point x="171.0" y="859.0" type="line"/>
      <point x="232.0" y="859.0" type="line"/>
      <point x="232.0" y="1547.0" type="line"/>
    </contour>
    <contour>
      <point x="1817.0" y="1536.0" type="line"/>
      <point x="1817.0" y="859.0" type="line"/>
      <point x="1877.0" y="859.0" type="line"/>
      <point x="1877.0" y="1536.0" type="line"/>
    </contour>
    <contour>
      <point x="217.0" y="919.0" type="line"/>
      <point x="217.0" y="859.0" type="line"/>
      <point x="1850.0" y="859.0" type="line"/>
      <point x="1850.0" y="919.0" type="line"/>
    </contour>
  </outline>
</glyph>
<glyph name="Z" format="2">
  <advance width="2048"/>
  <unicode hex="005A"/>
  <outline>
    <contour>
      <point x="98.0" y="1550.0" type="line"/>
      <point x="98.0" y="1491.0" type="line"/>
      <point x="1950.0" y="1491.0" type="line"/>
      <point x="1950.0" y="1550.0" type="line"/>
    </contour>
    <contour>
      <point x="99.0" y="60.0" type="line"/>
      <point x="99.0" y="0.0" type="line"/>
      <point x="1950.0" y="0.0" type="line"/>
      <point x="1950.0" y="60.0" type="line"/>
    </contour>
    <contour>
      <point x="1890.0" y="1491.0" type="line"/>
      <point x="99.0" y="60.0" type="line"/>
      <point x="159.0" y="60.0" type="line"/>
      <point x="1950.0" y="1491.0" type="line"/>
    </contour>
  </outline>
</glyph>
<glyph name="bracketleft" format="2">
  <advance width="2048"/>
  <unicode hex="005B"/>
  <outline>
    <contour>
      <point x="890" y="1542" type="line"/>
      <point x="890" y="-242" type="line"/>
      <point x="947" y="-242" type="line"/>
      <point x="947" y="1542" type="line"/>
    </contour>
    <contour>
      <point x="944" y="1543" type="line"/>
      <point x="944" y="1481" type="line"/>
      <point x="1153" y="1481" type="line"/>
      <point x="1153" y="1543" type="line"/>
    </contour>
    <contour>
      <point x="926" y="-168" type="line"/>
      <point x="926" y="-242" type="line"/>
      <point x="1158" y="-242" type="line"/>
      <point x="1158" y="-168" type="line"/>
    </contour>
  </outline>
</glyph>
<glyph name="backslash" format="2">
  <advance width="2048"/>
  <unicode hex="005C"/>
  <outline>
    <contour>
      <point x="707.0" y="1550.0" type="line"/>
      <point x="1263.0" y="0.0" type="line"/>
      <point x="1341.0" y="0.0" type="line"/>
      <point x="790.0" y="1550.0" type="line"/>
    </contour>
  </outline>
</glyph>
<glyph name="bracketright" format="2">
  <advance width="2048"/>
  <unicode hex="005D"/>
  <outline>
    <contour>
      <point x="1098" y="1542" type="line"/>
      <point x="1098" y="-242" type="line"/>
      <point x="1160" y="-242" type="line"/>
      <point x="1160" y="1542" type="line"/>
    </contour>
    <contour>
      <point x="886" y="1543" type="line"/>
      <point x="886" y="1478" type="line"/>
      <point x="1114" y="1478" type="line"/>
      <point x="1114" y="1543" type="line"/>
    </contour>
    <contour>
      <point x="886" y="-165" type="line"/>
      <point x="886" y="-242" type="line"/>
      <point x="1124" y="-242" type="line"/>
      <point x="1124" y="-165" type="line"/>
    </contour>
  </outline>
</glyph>
<glyph name="asciicircum" format="2">
  <advance width="2048"/>
  <unicode hex="005E"/>
  <outline>
    <contour>
      <point x="1022.0" y="1027.0" type="line"/>
      <point x="950.0" y="1027.0" type="line"/>
      <point x="686.0" y="407.0" type="line"/>
      <point x="740.0" y="373.0" type="line"/>
    </contour>
    <contour>
      <point x="956.0" y="1030.0" type="line"/>
      <point x="1280.0" y="364.0" type="line"/>
      <point x="1362.0" y="400.0" type="line"/>
      <point x="1030.0" y="1030.0" type="line"/>
    </contour>
  </outline>
</glyph>
<glyph name="grave" format="2">
	<unicode hex="0060"/>
	<advance width="2048"/>
	<outline>
		<contour>
			<point x="938" y="1286" type="line"/>
			<point x="1022" y="1057" type="line"/>
			<point x="1110" y="1112" type="line"/>
			<point x="1018" y="1340" type="line"/>
		</contour>
	</outline>
</glyph>
<glyph name="a" format="2">
  <advance width="2048"/>
  <unicode hex="0061"/>
  <outline>
    <contour>
      <point x="166" y="1021" type="line"/>
      <point x="166" y="955" type="line"/>
      <point x="1843" y="957" type="line"/>
      <point x="1839" y="1024" type="line"/>
    </contour>
    <contour>
      <point x="1801" y="1025" type="line"/>
      <point x="1822" y="1" type="line"/>
      <point x="1882" y="1" type="line"/>
      <point x="1878" y="1025" type="line"/>
    </contour>
    <contour>
      <point x="169" y="602" type="line"/>
      <point x="173" y="539" type="line"/>
      <point x="1821" y="538" type="line"/>
      <point x="1817" y="600" type="line"/>
    </contour>
    <contour>
      <point x="170" y="575" type="line"/>
      <point x="170" y="-2" type="line"/>
      <point x="256" y="-1" type="line"/>
      <point x="241" y="577" type="line"/>
    </contour>
    <contour>
      <point x="179" y="64" type="line"/>
      <point x="178" y="-2" type="line"/>
      <point x="1867" y="-1" type="line"/>
      <point x="1867" y="74" type="line"/>
    </contour>
  </outline>
</glyph>
<glyph name="b" format="2">
  <advance width="2048"/>
  <unicode hex="0062"/>
  <outline>
    <contour>
      <point x="135.0" y="1536.0" type="line"/>
      <point x="135.0" y="0.0" type="line"/>
      <point x="195.0" y="0.0" type="line"/>
      <point x="195.0" y="1536.0" type="line"/>
    </contour>
    <contour>
      <point x="178.0" y="1033.0" type="line"/>
      <point x="178.0" y="972.0" type="line"/>
      <point x="1866.0" y="972.0" type="line"/>
      <point x="1866.0" y="1033.0" type="line"/>
    </contour>
    <contour>
      <point x="1853.0" y="1033.0" type="line"/>
      <point x="1853.0" y="0.0" type="line"/>
      <point x="1913.0" y="0.0" type="line"/>
      <point x="1913.0" y="1033.0" type="line"/>
    </contour>
    <contour>
      <point x="170.0" y="60.0" type="line"/>
      <point x="170.0" y="0.0" type="line"/>
      <point x="1891.0" y="0.0" type="line"/>
      <point x="1891.0" y="60.0" type="line"/>
    </contour>
  </outline>
</glyph>
<glyph name="c" format="2">
  <advance width="2048"/>
  <unicode hex="0063"/>
  <outline>
    <contour>
      <point x="164.0" y="1027.0" type="line"/>
      <point x="164.0" y="967.0" type="line"/>
      <point x="1884.0" y="967.0" type="line"/>
      <point x="1884.0" y="1027.0" type="line"/>
    </contour>
    <contour>
      <point x="166.0" y="984.0" type="line"/>
      <point x="166.0" y="0.0" type="line"/>
      <point x="226.0" y="0.0" type="line"/>
      <point x="226.0" y="984.0" type="line"/>
    </contour>
    <contour>
      <point x="214.0" y="60.0" type="line"/>
      <point x="214.0" y="0.0" type="line"/>
      <point x="1878.0" y="0.0" type="line"/>
      <point x="1878.0" y="60.0" type="line"/>
    </contour>
  </outline>
</glyph>
<glyph name="d" format="2">
  <advance width="2048"/>
  <unicode hex="0064"/>
  <outline>
    <contour>
      <point x="1804.0" y="1550.0" type="line"/>
      <point x="1804.0" y="0.0" type="line"/>
      <point x="1864.0" y="0.0" type="line"/>
      <point x="1864.0" y="1550.0" type="line"/>
    </contour>
    <contour>
      <point x="228.0" y="1026.0" type="line"/>
      <point x="228.0" y="966.0" type="line"/>
      <point x="1838.0" y="966.0" type="line"/>
      <point x="1838.0" y="1026.0" type="line"/>
    </contour>
    <contour>
      <point x="184.0" y="1023.0" type="line"/>
      <point x="184.0" y="0.0" type="line"/>
      <point x="244.0" y="0.0" type="line"/>
      <point x="244.0" y="1023.0" type="line"/>
    </contour>
    <contour>
      <point x="224.0" y="59.0" type="line"/>
      <point x="224.0" y="-4.0" type="line"/>
      <point x="1816.0" y="-4.0" type="line"/>
      <point x="1816.0" y="59.0" type="line"/>
    </contour>
  </outline>
</glyph>
<glyph name="e" format="2">
	<unicode hex="0065"/>
	<advance width="2048"/>
	<outline>
		<contour>
			<point x="218" y="1023" type="line"/>
			<point x="218" y="968" type="line"/>
			<point x="1880" y="968" type="line"/>
			<point x="1880" y="1023" type="line"/>
		</contour>
		<contour>
			<point x="166" y="1023" type="line"/>
			<point x="166" y="0" type="line"/>
			<point x="224" y="0" type="line"/>
			<point x="224" y="1023" type="line"/>
		</contour>
		<contour>
			<point x="208" y="61" type="line"/>
			<point x="208" y="0" type="line"/>
			<point x="1876" y="0" type="line"/>
			<point x="1876" y="61" type="line"/>
		</contour>
		<contour>
			<point x="186" y="506" type="line"/>
			<point x="194" y="446" type="line"/>
			<point x="1848" y="446" type="line"/>
			<point x="1848" y="506" type="line"/>
		</contour>
		<contour>
			<point x="1822" y="993" type="line"/>
			<point x="1822" y="445" type="line"/>
			<point x="1882" y="445" type="line"/>
			<point x="1882" y="993" type="line"/>
		</contour>
	</outline>
</glyph>
<glyph name="f" format="2">
  <advance width="2048"/>
  <unicode hex="0066"/>
  <outline>
    <contour>
      <point x="929.0" y="1023.0" type="line"/>
      <point x="929.0" y="-410.0" type="line"/>
      <point x="989.0" y="-410.0" type="line"/>
      <point x="989.0" y="1023.0" type="line"/>
    </contour>
    <contour>
      <point x="930.0" y="1023.0" type="line"/>
      <point x="930.0" y="963.0" type="line"/>
      <point x="1840.0" y="963.0" type="line"/>
      <point x="1840.0" y="1023.0" type="line"/>
    </contour>
    <contour>
      <point x="207.0" y="462.0" type="line"/>
      <point x="207.0" y="402.0" type="line"/>
      <point x="1710.0" y="402.0" type="line"/>
      <point x="1710.0" y="462.0" type="line"/>
    </contour>
  </outline>
</glyph>
<glyph name="g" format="2">
  <advance width="2048"/>
  <unicode hex="0067"/>
  <outline>
    <contour>
      <point x="223" y="1023" type="line"/>
      <point x="223" y="0" type="line"/>
      <point x="283" y="0" type="line"/>
      <point x="283" y="1023" type="line"/>
    </contour>
    <contour>
      <point x="263" y="1021" type="line"/>
      <point x="263" y="962" type="line"/>
      <point x="1803" y="962" type="line"/>
      <point x="1803" y="1021" type="line"/>
    </contour>
    <contour>
      <point x="1765" y="1024" type="line"/>
      <point x="1765" y="-411" type="line"/>
      <point x="1825" y="-411" type="line"/>
      <point x="1825" y="1024" type="line"/>
    </contour>
    <contour>
      <point x="286" y="58" type="line"/>
      <point x="286" y="-1" type="line"/>
      <point x="1767" y="-1" type="line"/>
      <point x="1767" y="58" type="line"/>
    </contour>
    <contour>
      <point x="263" y="-354" type="line"/>
      <point x="263" y="-413" type="line"/>
      <point x="1776" y="-413" type="line"/>
      <point x="1776" y="-354" type="line"/>
    </contour>
  </outline>
</glyph>
<glyph name="h" format="2">
  <advance width="2048"/>
  <unicode hex="0068"/>
  <outline>
    <contour>
      <point x="174.0" y="1525.0" type="line"/>
      <point x="174.0" y="6.0" type="line"/>
      <point x="233.0" y="6.0" type="line"/>
      <point x="233.0" y="1525.0" type="line"/>
    </contour>
    <contour>
      <point x="214.0" y="1028.0" type="line"/>
      <point x="214.0" y="968.0" type="line"/>
      <point x="1827.0" y="968.0" type="line"/>
      <point x="1827.0" y="1028.0" type="line"/>
    </contour>
    <contour>
      <point x="1815.0" y="1028.0" type="line"/>
      <point x="1815.0" y="0.0" type="line"/>
      <point x="1874.0" y="0.0" type="line"/>
      <point x="1874.0" y="1028.0" type="line"/>
    </contour>
  </outline>
</glyph>
<glyph name="i" format="2">
	<unicode hex="0069"/>
	<advance width="2048"/>
	<outline>
		<contour>
			<point x="1022" y="1023" type="line"/>
			<point x="1022" y="52" type="line"/>
			<point x="1082" y="52" type="line"/>
			<point x="1082" y="1023" type="line"/>
		</contour>
		<contour>
			<point x="141" y="60" type="line"/>
			<point x="141" y="0" type="line"/>
			<point x="1907" y="0" type="line"/>
			<point x="1907" y="60" type="line"/>
		</contour>
		<contour>
			<point x="836" y="1292" type="line"/>
			<point x="836" y="1174" type="line"/>
			<point x="949" y="1174" type="line"/>
			<point x="949" y="1292" type="line"/>
		</contour>
		<contour>
			<point x="191" y="1023" type="line"/>
			<point x="191" y="962" type="line"/>
			<point x="1039" y="962" type="line"/>
			<point x="1039" y="1023" type="line"/>
		</contour>
	</outline>
</glyph>
<glyph name="j" format="2">
  <advance width="2048"/>
  <unicode hex="006A"/>
  <outline>
    <contour>
      <point x="1768" y="1024" type="line"/>
      <point x="1768" y="-411" type="line"/>
      <point x="1827" y="-411" type="line"/>
      <point x="1827" y="1024" type="line"/>
    </contour>
    <contour>
      <point x="174" y="-348" type="line"/>
      <point x="174" y="-409" type="line"/>
      <point x="1788" y="-409" type="line"/>
      <point x="1788" y="-348" type="line"/>
    </contour>
    <contour>
      <point x="175" y="-6" type="line"/>
      <point x="175" y="-378" type="line"/>
      <point x="235" y="-378" type="line"/>
      <point x="235" y="-6" type="line"/>
    </contour>
    <contour>
      <point x="1767" y="1201" type="line"/>
      <point x="1767" y="1142" type="line"/>
      <point x="1826" y="1142" type="line"/>
      <point x="1826" y="1201" type="line"/>
    </contour>
  </outline>
</glyph>
<glyph name="k" format="2">
	<unicode hex="006B"/>
	<advance width="2048"/>
	<outline>
		<contour>
			<point x="88" y="1535" type="line"/>
			<point x="88" y="5" type="line"/>
			<point x="148" y="5" type="line"/>
			<point x="148" y="1535" type="line"/>
		</contour>
		<contour>
			<point x="137" y="421" type="line"/>
			<point x="137" y="352" type="line"/>
			<point x="1794" y="1023" type="line"/>
			<point x="1734" y="1023" type="line"/>
		</contour>
		<contour>
			<point x="489" y="551" type="line"/>
			<point x="447" y="508" type="line"/>
			<point x="1899" y="0" type="line"/>
			<point x="1960" y="0" type="line"/>
		</contour>
	</outline>
</glyph>
<glyph name="l" format="2">
  <advance width="2048"/>
  <unicode hex="006C"/>
  <outline>
    <contour>
      <point x="207.0" y="72.0" type="line"/>
      <point x="207.0" y="0.0" type="line"/>
      <point x="1841.0" y="0.0" type="line"/>
      <point x="1841.0" y="72.0" type="line"/>
    </contour>
    <contour>
      <point x="1006.0" y="1553.0" type="line"/>
      <point x="1006.0" y="57.0" type="line"/>
      <point x="1066.0" y="57.0" type="line"/>
      <point x="1066.0" y="1553.0" type="line"/>
    </contour>
    <contour>
      <point x="268.0" y="1553.0" type="line"/>
      <point x="268.0" y="1494.0" type="line"/>
      <point x="1015.0" y="1494.0" type="line"/>
      <point x="1015.0" y="1553.0" type="line"/>
    </contour>
  </outline>
</glyph>
<glyph name="m" format="2">
  <advance width="2048"/>
  <unicode hex="006D"/>
  <outline>
    <contour>
      <point x="334.5" y="993" type="line"/>
      <point x="334.5" y="1" type="line"/>
      <point x="394.5" y="1" type="line"/>
      <point x="394.5" y="993" type="line"/>
    </contour>
    <contour>
      <point x="1030.5" y="972" type="line"/>
      <point x="1030.5" y="-2" type="line"/>
      <point x="1090.5" y="-2" type="line"/>
      <point x="1090.5" y="972" type="line"/>
    </contour>
    <contour>
      <point x="1927.5" y="976" type="line"/>
      <point x="1927.5" y="1" type="line"/>
      <point x="1988.5" y="1" type="line"/>
      <point x="1988.5" y="976" type="line"/>
    </contour>
    <contour>
      <point x="59.5" y="1025" type="line"/>
      <point x="60.5" y="965" type="line"/>
      <point x="1988.5" y="966" type="line"/>
      <point x="1988.5" y="1024" type="line"/>
    </contour>
  </outline>
</glyph>
<glyph name="n" format="2">
  <advance width="2048"/>
  <unicode hex="006E"/>
  <outline>
    <contour>
      <point x="502.0" y="990.0" type="line"/>
      <point x="502.0" y="0.0" type="line"/>
      <point x="563.0" y="0.0" type="line"/>
      <point x="563.0" y="990.0" type="line"/>
    </contour>
    <contour>
      <point x="1866.0" y="976.0" type="line"/>
      <point x="1866.0" y="0.0" type="line"/>
      <point x="1926.0" y="0.0" type="line"/>
      <point x="1926.0" y="976.0" type="line"/>
    </contour>
    <contour>
      <point x="122.0" y="1027.0" type="line"/>
      <point x="122.0" y="967.0" type="line"/>
      <point x="1924.0" y="967.0" type="line"/>
      <point x="1924.0" y="1027.0" type="line"/>
    </contour>
  </outline>
</glyph>
<glyph name="o" format="2">
  <advance width="2048"/>
  <unicode hex="006F"/>
  <outline>
    <contour>
      <point x="103.5" y="1024" type="line"/>
      <point x="102.5" y="0" type="line"/>
      <point x="163.5" y="0" type="line"/>
      <point x="160" y="1023" type="line"/>
    </contour>
    <contour>
      <point x="1884.5" y="1023" type="line"/>
      <point x="1884.5" y="0" type="line"/>
      <point x="1945.5" y="0" type="line"/>
      <point x="1945.5" y="1023" type="line"/>
    </contour>
    <contour>
      <point x="152" y="1023" type="line"/>
      <point x="153" y="967" type="line"/>
      <point x="1888.5" y="967" type="line"/>
      <point x="1889" y="1023" type="line"/>
    </contour>
    <contour>
      <point x="149.5" y="58" type="line"/>
      <point x="150.5" y="0" type="line"/>
      <point x="1896.5" y="0" type="line"/>
      <point x="1892.5" y="62" type="line"/>
    </contour>
  </outline>
</glyph>
<glyph name="p" format="2">
  <advance width="2048"/>
  <unicode hex="0070"/>
  <outline>
    <contour>
      <point x="173" y="1181" type="line"/>
      <point x="173" y="-406" type="line"/>
      <point x="233" y="-406" type="line"/>
      <point x="233" y="1181" type="line"/>
    </contour>
    <contour>
      <point x="217" y="1024" type="line"/>
      <point x="217" y="963" type="line"/>
      <point x="1829" y="964" type="line"/>
      <point x="1827" y="1024" type="line"/>
    </contour>
    <contour>
      <point x="219" y="61" type="line"/>
      <point x="222" y="1" type="line"/>
      <point x="1842" y="1" type="line"/>
      <point x="1839" y="61" type="line"/>
    </contour>
    <contour>
      <point x="1779" y="1023" type="line"/>
      <point x="1779" y="-1" type="line"/>
      <point x="1840" y="-1" type="line"/>
      <point x="1837" y="1024" type="line"/>
    </contour>
  </outline>
</glyph>
<glyph name="q" format="2">
  <advance width="2048"/>
  <unicode hex="0071"/>
  <outline>
    <contour>
      <point x="1550.0" y="1188.0" type="line"/>
      <point x="1550.0" y="-410.0" type="line"/>
      <point x="1610.0" y="-410.0" type="line"/>
      <point x="1610.0" y="1188.0" type="line"/>
    </contour>
    <contour>
      <point x="146.0" y="1023.0" type="line"/>
      <point x="146.0" y="961.0" type="line"/>
      <point x="1594.0" y="961.0" type="line"/>
      <point x="1594.0" y="1023.0" type="line"/>
    </contour>
    <contour>
      <point x="152.0" y="57.0" type="line"/>
      <point x="152.0" y="0.0" type="line"/>
      <point x="1568.0" y="0.0" type="line"/>
      <point x="1568.0" y="57.0" type="line"/>
    </contour>
    <contour>
      <point x="138.0" y="1023.0" type="line"/>
      <point x="138.0" y="0.0" type="line"/>
      <point x="196.0" y="0.0" type="line"/>
      <point x="196.0" y="1023.0" type="line"/>
    </contour>
    <contour>
      <point x="1554.0" y="-344.0" type="line"/>
      <point x="1554.0" y="-410.0" type="line"/>
      <point x="1910.0" y="-410.0" type="line"/>
      <point x="1910.0" y="-344.0" type="line"/>
    </contour>
  </outline>
</glyph>
<glyph name="r" format="2">
  <advance width="2048"/>
  <unicode hex="0072"/>
  <outline>
    <contour>
      <point x="165" y="1022" type="line"/>
      <point x="165" y="961" type="line"/>
      <point x="1922" y="961" type="line"/>
      <point x="1922" y="1022" type="line"/>
    </contour>
    <contour>
      <point x="380" y="989" type="line"/>
      <point x="380" y="-2" type="line"/>
      <point x="439" y="-2" type="line"/>
      <point x="439" y="989" type="line"/>
    </contour>
    <contour>
      <point x="1862" y="976" type="line"/>
      <point x="1862" y="650" type="line"/>
      <point x="1922" y="650" type="line"/>
      <point x="1922" y="976" type="line"/>
    </contour>
  </outline>
</glyph>
<glyph name="s" format="2">
  <advance width="2048"/>
  <unicode hex="0073"/>
  <outline>
    <contour>
      <point x="186" y="1024" type="line"/>
      <point x="187" y="964" type="line"/>
      <point x="1820" y="964" type="line"/>
      <point x="1819" y="1024" type="line"/>
    </contour>
    <contour>
      <point x="186" y="1024" type="line"/>
      <point x="186" y="736" type="line"/>
      <point x="247" y="736" type="line"/>
      <point x="247" y="1024" type="line"/>
    </contour>
    <contour>
      <point x="187" y="59" type="line"/>
      <point x="186" y="0" type="line"/>
      <point x="1817" y="0" type="line"/>
      <point x="1816" y="59" type="line"/>
    </contour>
    <contour>
      <point x="1754" y="299" type="line"/>
      <point x="1754" y="12" type="line"/>
      <point x="1817" y="12" type="line"/>
      <point x="1817" y="299" type="line"/>
    </contour>
    <contour>
      <point x="186" y="736" type="line"/>
      <point x="1754" y="299" type="line"/>
      <point x="1817" y="299" type="line"/>
      <point x="247" y="736" type="line"/>
    </contour>
  </outline>
</glyph>
<glyph name="t" format="2">
  <advance width="2048"/>
  <unicode hex="0074"/>
  <outline>
    <contour>
      <point x="976" y="1529" type="line"/>
      <point x="976" y="0" type="line"/>
      <point x="1036" y="0" type="line"/>
      <point x="1036" y="1529" type="line"/>
    </contour>
    <contour>
      <point x="988" y="60" type="line"/>
      <point x="988" y="0" type="line"/>
      <point x="1892" y="0" type="line"/>
      <point x="1892" y="60" type="line"/>
    </contour>
    <contour>
      <point x="156" y="1023" type="line"/>
      <point x="156" y="965" type="line"/>
      <point x="1854" y="965" type="line"/>
      <point x="1854" y="1023" type="line"/>
    </contour>
  </outline>
</glyph>
<glyph name="u" format="2">
  <advance width="2048"/>
  <unicode hex="0075"/>
  <outline>
    <contour>
      <point x="137.5" y="1034" type="line"/>
      <point x="137.5" y="0" type="line"/>
      <point x="196.5" y="0" type="line"/>
      <point x="197.5" y="1034" type="line"/>
    </contour>
    <contour>
      <point x="1511.5" y="1033" type="line"/>
      <point x="1511.5" y="4" type="line"/>
      <point x="1570.5" y="4" type="line"/>
      <point x="1570.5" y="1033" type="line"/>
    </contour>
    <contour>
      <point x="184.5" y="61" type="line"/>
      <point x="185.5" y="0" type="line"/>
      <point x="1910.5" y="0" type="line"/>
      <point x="1910.5" y="61" type="line"/>
    </contour>
  </outline>
</glyph>
<glyph name="v" format="2">
  <advance width="2048"/>
  <unicode hex="0076"/>
  <outline>
    <contour>
      <point x="96.5" y="1025" type="line"/>
      <point x="995.5" y="0" type="line"/>
      <point x="1054.5" y="0" type="line"/>
      <point x="156.5" y="1023" type="line"/>
    </contour>
    <contour>
      <point x="1891.5" y="1024" type="line"/>
      <point x="995.5" y="0" type="line"/>
      <point x="1054.5" y="1" type="line"/>
      <point x="1951.5" y="1025" type="line"/>
    </contour>
  </outline>
</glyph>
<glyph name="w" format="2">
  <advance width="2048"/>
  <unicode hex="0077"/>
  <outline>
    <contour>
      <point x="104.0" y="1023.0" type="line"/>
      <point x="104.0" y="0.0" type="line"/>
      <point x="164.0" y="0.0" type="line"/>
      <point x="164.0" y="1023.0" type="line"/>
    </contour>
    <contour>
      <point x="1886.0" y="1028.0" type="line"/>
      <point x="1886.0" y="12.0" type="line"/>
      <point x="1946.0" y="12.0" type="line"/>
      <point x="1946.0" y="1028.0" type="line"/>
    </contour>
    <contour>
      <point x="994.0" y="610.0" type="line"/>
      <point x="994.0" y="0.0" type="line"/>
      <point x="1054.0" y="0.0" type="line"/>
      <point x="1054.0" y="610.0" type="line"/>
    </contour>
    <contour>
      <point x="102.0" y="59.0" type="line"/>
      <point x="102.0" y="0.0" type="line"/>
      <point x="1946.0" y="0.0" type="line"/>
      <point x="1946.0" y="59.0" type="line"/>
    </contour>
  </outline>
</glyph>
<glyph name="x" format="2">
  <advance width="2048"/>
  <unicode hex="0078"/>
  <outline>
    <contour>
      <point x="92" y="0" type="line"/>
      <point x="1816" y="1023" type="line"/>
      <point x="1951" y="1024" type="line"/>
      <point x="212" y="0" type="line"/>
    </contour>
    <contour>
      <point x="99" y="1024" type="line"/>
      <point x="252" y="1023" type="line"/>
      <point x="1961" y="-3" type="line"/>
      <point x="1820" y="0" type="line"/>
    </contour>
  </outline>
</glyph>
<glyph name="y" format="2">
  <advance width="2048"/>
  <unicode hex="0079"/>
  <outline>
    <contour>
      <point x="1841.0" y="1023.0" type="line"/>
      <point x="1841.0" y="-410.0" type="line"/>
      <point x="1901.0" y="-410.0" type="line"/>
      <point x="1901.0" y="1023.0" type="line"/>
    </contour>
    <contour>
      <point x="147.0" y="-351.0" type="line"/>
      <point x="147.0" y="-410.0" type="line"/>
      <point x="1888.0" y="-410.0" type="line"/>
      <point x="1888.0" y="-351.0" type="line"/>
    </contour>
    <contour>
      <point x="147.0" y="1023.0" type="line"/>
      <point x="147.0" y="264.0" type="line"/>
      <point x="207.0" y="264.0" type="line"/>
      <point x="207.0" y="1023.0" type="line"/>
    </contour>
    <contour>
      <point x="147.0" y="324.0" type="line"/>
      <point x="147.0" y="264.0" type="line"/>
      <point x="1861.0" y="264.0" type="line"/>
      <point x="1861.0" y="324.0" type="line"/>
    </contour>
  </outline>
</glyph>
<glyph name="z" format="2">
  <advance width="2048"/>
  <unicode hex="007A"/>
  <outline>
    <contour>
      <point x="98.0" y="1023.0" type="line"/>
      <point x="98.0" y="964.0" type="line"/>
      <point x="1950.0" y="964.0" type="line"/>
      <point x="1950.0" y="1023.0" type="line"/>
    </contour>
    <contour>
      <point x="98.0" y="59.0" type="line"/>
      <point x="98.0" y="0.0" type="line"/>
      <point x="1950.0" y="0.0" type="line"/>
      <point x="1950.0" y="59.0" type="line"/>
    </contour>
    <contour>
      <point x="1873.0" y="964.0" type="line"/>
      <point x="98.0" y="59.0" type="line"/>
      <point x="176.0" y="59.0" type="line"/>
      <point x="1950.0" y="964.0" type="line"/>
    </contour>
  </outline>
</glyph>
<glyph name="braceleft" format="2">
  <advance width="2048"/>
  <unicode hex="007B"/>
  <outline>
    <contour>
      <point x="1024.0" y="1600.0" type="line"/>
      <point x="1024.0" y="838.0" type="line"/>
      <point x="1098.0" y="838.0" type="line"/>
      <point x="1098.0" y="1600.0" type="line"/>
    </contour>
    <contour>
      <point x="1036.0" y="424.0" type="line"/>
      <point x="1036.0" y="-261.0" type="line"/>
      <point x="1122.0" y="-261.0" type="line"/>
      <point x="1122.0" y="424.0" type="line"/>
    </contour>
    <contour>
      <point x="736.0" y="690.0" type="line"/>
      <point x="736.0" y="630.0" type="line"/>
      <point x="1100.0" y="836.0" type="line"/>
      <point x="1024.0" y="836.0" type="line"/>
    </contour>
    <contour>
      <point x="736.0" y="690.0" type="line"/>
      <point x="736.0" y="630.0" type="line"/>
      <point x="1034.0" y="425.0" type="line"/>
      <point x="1120.0" y="425.0" type="line"/>
    </contour>
    <contour>
      <point x="1044.0" y="1600.0" type="line"/>
      <point x="1044.0" y="1529.0" type="line"/>
      <point x="1300.0" y="1571.0" type="line"/>
      <point x="1304.0" y="1600.0" type="line"/>
    </contour>
    <contour>
      <point x="1042.0" y="-179.0" type="line"/>
      <point x="1042.0" y="-263.0" type="line"/>
      <point x="1312.0" y="-263.0" type="line"/>
      <point x="1312.0" y="-250.0" type="line"/>
    </contour>
  </outline>
</glyph>
<glyph name="braceright" format="2">
  <advance width="2048"/>
  <unicode hex="007D"/>
  <outline>
    <contour>
      <point x="1040.0" y="1544.0" type="line"/>
      <point x="981.0" y="1544.0" type="line"/>
      <point x="981.0" y="838.0" type="line"/>
      <point x="1039.0" y="838.0" type="line"/>
    </contour>
    <contour>
      <point x="1026.0" y="424.0" type="line"/>
      <point x="966.0" y="424.0" type="line"/>
      <point x="966.0" y="-286.0" type="line"/>
      <point x="1026.0" y="-286.0" type="line"/>
    </contour>
    <contour>
      <point x="1313.0" y="690.0" type="line"/>
      <point x="1035.0" y="838.0" type="line"/>
      <point x="980.0" y="838.0" type="line"/>
      <point x="1313.0" y="630.0" type="line"/>
    </contour>
    <contour>
      <point x="1313.0" y="690.0" type="line"/>
      <point x="966.0" y="424.0" type="line"/>
      <point x="1026.0" y="424.0" type="line"/>
      <point x="1313.0" y="630.0" type="line"/>
    </contour>
    <contour>
      <point x="1041.0" y="1603.0" type="line"/>
      <point x="766.0" y="1603.0" type="line"/>
      <point x="770.0" y="1574.0" type="line"/>
      <point x="1038.0" y="1509.0" type="line"/>
    </contour>
    <contour>
      <point x="1014.0" y="-200.0" type="line"/>
      <point x="735.0" y="-274.0" type="line"/>
      <point x="735.0" y="-284.0" type="line"/>
      <point x="1011.0" y="-284.0" type="line"/>
    </contour>
  </outline>
</glyph>
<glyph name="asciitilde" format="2">
  <advance width="2048"/>
  <unicode hex="007E"/>
  <outline>
    <contour>
      <point x="878.0" y="766.0" type="line"/>
      <point x="878.0" y="716.0" type="line"/>
      <point x="1228.0" y="645.0" type="line"/>
      <point x="1228.0" y="695.0" type="line"/>
    </contour>
    <contour>
      <point x="638.0" y="710.0" type="line"/>
      <point x="652.0" y="652.0" type="line"/>
      <point x="878.0" y="716.0" type="line"/>
      <point x="878.0" y="766.0" type="line"/>
    </contour>
    <contour>
      <point x="1228.0" y="695.0" type="line"/>
      <point x="1228.0" y="645.0" type="line"/>
      <point x="1410.0" y="796.0" type="line"/>
      <point x="1396.0" y="843.0" type="line"/>
    </contour>
  </outline>
</glyph>
<glyph name="exclamdown" format="2">
  <advance width="2048"/>
  <unicode hex="00A1"/>
  <outline>
    <contour>
      <point x="1054.0" y="1520.0" type="line"/>
      <point x="994.0" y="1520.0" type="line"/>
      <point x="994.0" y="1272.0" type="line"/>
      <point x="1054.0" y="1272.0" type="line"/>
    </contour>
    <contour>
      <point x="1050.0" y="1035.0" type="line"/>
      <point x="996.0" y="1035.0" type="line"/>
      <point x="996.0" y="17.0" type="line"/>
      <point x="1054.0" y="17.0" type="line"/>
    </contour>
  </outline>
</glyph>
<glyph name="cent" format="2">
  <advance width="2048"/>
  <unicode hex="00A2"/>
  <outline>
    <contour>
      <point x="1116" y="1183" type="line"/>
      <point x="1056" y="1183" type="line"/>
      <point x="1056" y="-86" type="line"/>
      <point x="1116" y="-86" type="line"/>
    </contour>
    <contour>
      <point x="676" y="1027" type="line"/>
      <point x="676" y="966" type="line"/>
      <point x="1372" y="966" type="line"/>
      <point x="1372" y="1027" type="line"/>
    </contour>
    <contour>
      <point x="678" y="984" type="line"/>
      <point x="678" y="0" type="line"/>
      <point x="743" y="0" type="line"/>
      <point x="743" y="984" type="line"/>
    </contour>
    <contour>
      <point x="727" y="61" type="line"/>
      <point x="727" y="0" type="line"/>
      <point x="1366" y="0" type="line"/>
      <point x="1366" y="61" type="line"/>
    </contour>
  </outline>
</glyph>
<glyph name="sterling" format="2">
  <advance width="2048"/>
  <unicode hex="00A3"/>
  <outline>
    <contour>
      <point x="947.0" y="1543.0" type="line"/>
      <point x="947.0" y="1482.0" type="line"/>
      <point x="1136.0" y="1482.0" type="line"/>
      <point x="1136.0" y="1543.0" type="line"/>
    </contour>
    <contour>
      <point x="609.0" y="770.0" type="line"/>
      <point x="609.0" y="705.0" type="line"/>
      <point x="1335.0" y="705.0" type="line"/>
      <point x="1335.0" y="770.0" type="line"/>
    </contour>
    <contour>
      <point x="923.0" y="1542.0" type="line"/>
      <point x="923.0" y="3.0" type="line"/>
      <point x="999.0" y="3.0" type="line"/>
      <point x="999.0" y="1542.0" type="line"/>
    </contour>
    <contour>
      <point x="713.0" y="72.0" type="line"/>
      <point x="713.0" y="3.0" type="line"/>
      <point x="1439.0" y="3.0" type="line"/>
      <point x="1439.0" y="72.0" type="line"/>
    </contour>
  </outline>
</glyph>
<glyph name="currency" format="2">
  <advance width="2048"/>
  <unicode hex="00A4"/>
  <outline>
    <contour>
      <point x="610.5" y="1182" type="line"/>
      <point x="610.5" y="160" type="line"/>
      <point x="669.5" y="160" type="line"/>
      <point x="669.5" y="1182" type="line"/>
    </contour>
    <contour>
      <point x="1367.5" y="1184" type="line"/>
      <point x="1367.5" y="160" type="line"/>
      <point x="1428.5" y="160" type="line"/>
      <point x="1428.5" y="1184" type="line"/>
    </contour>
    <contour>
      <point x="671.5" y="1187" type="line"/>
      <point x="671.5" y="1127" type="line"/>
      <point x="1372.5" y="1127" type="line"/>
      <point x="1372.5" y="1187" type="line"/>
    </contour>
    <contour>
      <point x="656.5" y="222" type="line"/>
      <point x="656.5" y="160" type="line"/>
      <point x="1375.5" y="160" type="line"/>
      <point x="1375.5" y="222" type="line"/>
    </contour>
    <contour>
      <point x="536.5" y="1251" type="line"/>
      <point x="536.5" y="1137" type="line"/>
      <point x="679.5" y="1137" type="line"/>
      <point x="679.5" y="1251" type="line"/>
    </contour>
    <contour>
      <point x="1371.5" y="1241" type="line"/>
      <point x="1371.5" y="1127" type="line"/>
      <point x="1514.5" y="1127" type="line"/>
      <point x="1514.5" y="1241" type="line"/>
    </contour>
    <contour>
      <point x="530.5" y="223" type="line"/>
      <point x="530.5" y="109" type="line"/>
      <point x="673.5" y="109" type="line"/>
      <point x="673.5" y="223" type="line"/>
    </contour>
    <contour>
      <point x="1374.5" y="220" type="line"/>
      <point x="1374.5" y="106" type="line"/>
      <point x="1517.5" y="106" type="line"/>
      <point x="1517.5" y="220" type="line"/>
    </contour>
  </outline>
</glyph>
<glyph name="yen" format="2">
  <advance width="2048"/>
  <unicode hex="00A5"/>
  <outline>
    <contour>
      <point x="740.0" y="673.0" type="line"/>
      <point x="740.0" y="615.0" type="line"/>
      <point x="1286.0" y="615.0" type="line"/>
      <point x="1286.0" y="673.0" type="line"/>
    </contour>
    <contour>
      <point x="740.0" y="438.0" type="line"/>
      <point x="740.0" y="380.0" type="line"/>
      <point x="1286.0" y="380.0" type="line"/>
      <point x="1286.0" y="438.0" type="line"/>
    </contour>
    <contour>
      <point x="995.0" y="897.0" type="line"/>
      <point x="995.0" y="0.0" type="line"/>
      <point x="1056.0" y="0.0" type="line"/>
      <point x="1056.0" y="897.0" type="line"/>
    </contour>
    <contour>
      <point x="672.0" y="1547.0" type="line"/>
      <point x="672.0" y="859.0" type="line"/>
      <point x="731.0" y="859.0" type="line"/>
      <point x="731.0" y="1547.0" type="line"/>
    </contour>
    <contour>
      <point x="1315.0" y="1547.0" type="line"/>
      <point x="1315.0" y="859.0" type="line"/>
      <point x="1376.0" y="859.0" type="line"/>
      <point x="1376.0" y="1547.0" type="line"/>
    </contour>
    <contour>
      <point x="712.0" y="919.0" type="line"/>
      <point x="712.0" y="858.0" type="line"/>
      <point x="1352.0" y="858.0" type="line"/>
      <point x="1352.0" y="919.0" type="line"/>
    </contour>
  </outline>
</glyph>
<glyph name="brokenbar" format="2">
  <advance width="2048"/>
  <unicode hex="00A6"/>
  <outline>
    <contour>
      <point x="1002" y="-332" type="line"/>
      <point x="1046" y="-332" type="line"/>
      <point x="1046" y="682" type="line"/>
      <point x="1002" y="682" type="line"/>
    </contour>
    <contour>
      <point x="1009" y="790" type="line"/>
      <point x="1046" y="790" type="line"/>
      <point x="1046" y="1636" type="line"/>
      <point x="1009" y="1636" type="line"/>
    </contour>
  </outline>
</glyph>
<glyph name="section" format="2">
  <advance width="2048"/>
  <unicode hex="00A7"/>
  <outline>
    <contour>
      <point x="638" y="1237" type="line"/>
      <point x="638" y="1178" type="line"/>
      <point x="1236" y="1178" type="line"/>
      <point x="1236" y="1237" type="line"/>
    </contour>
    <contour>
      <point x="638" y="1237" type="line"/>
      <point x="638" y="605" type="line"/>
      <point x="701" y="605" type="line"/>
      <point x="701" y="1237" type="line"/>
    </contour>
    <contour>
      <point x="675" y="-200" type="line"/>
      <point x="675" y="-260" type="line"/>
      <point x="1383" y="-260" type="line"/>
      <point x="1383" y="-200" type="line"/>
    </contour>
    <contour>
      <point x="1350" y="-259" type="line"/>
      <point x="1410" y="-259" type="line"/>
      <point x="1410" y="95" type="line"/>
      <point x="1350" y="95" type="line"/>
    </contour>
    <contour>
      <point x="638" y="606" type="line"/>
      <point x="1349" y="88" type="line"/>
      <point x="1410" y="88" type="line"/>
      <point x="696" y="606" type="line"/>
    </contour>
    <contour>
      <point x="638" y="1626" type="line"/>
      <point x="638" y="1566" type="line"/>
      <point x="1236" y="1566" type="line"/>
      <point x="1236" y="1626" type="line"/>
    </contour>
    <contour>
      <point x="638" y="1629" type="line"/>
      <point x="638" y="1237" type="line"/>
      <point x="701" y="1237" type="line"/>
      <point x="701" y="1629" type="line"/>
    </contour>
    <contour>
      <point x="666" y="88" type="line"/>
      <point x="666" y="39" type="line"/>
      <point x="1374" y="39" type="line"/>
      <point x="1374" y="88" type="line"/>
    </contour>
    <contour>
      <point x="1349" y="88" type="line"/>
      <point x="1410" y="88" type="line"/>
      <point x="1410" y="442" type="line"/>
      <point x="1349" y="442" type="line"/>
    </contour>
    <contour>
      <point x="638" y="1237" type="line"/>
      <point x="1350" y="442" type="line"/>
      <point x="1410" y="442" type="line"/>
      <point x="701" y="1237" type="line"/>
    </contour>
  </outline>
</glyph>
<glyph name="dieresis" format="2">
  <advance width="2048"/>
  <unicode hex="00A8"/>
  <outline>
    <contour>
      <point x="865" y="1023" type="line"/>
      <point x="865" y="923" type="line"/>
      <point x="977" y="923" type="line"/>
      <point x="977" y="1023" type="line"/>
    </contour>
    <contour>
      <point x="1107" y="1023" type="line"/>
      <point x="1107" y="923" type="line"/>
      <point x="1219" y="923" type="line"/>
      <point x="1219" y="1023" type="line"/>
    </contour>
  </outline>
</glyph>
<glyph name="copyright" format="2">
  <advance width="2048"/>
  <unicode hex="00A9"/>
  <outline>
    <contour>
      <point x="523.5" y="1540" type="line"/>
      <point x="523.5" y="0" type="line"/>
      <point x="583.5" y="0" type="line"/>
      <point x="583.5" y="1540" type="line"/>
    </contour>
    <contour>
      <point x="1464.5" y="1537" type="line"/>
      <point x="1464.5" y="0" type="line"/>
      <point x="1524.5" y="0" type="line"/>
      <point x="1524.5" y="1537" type="line"/>
    </contour>
    <contour>
      <point x="575.5" y="1538" type="line"/>
      <point x="575.5" y="1476" type="line"/>
      <point x="1520.5" y="1476" type="line"/>
      <point x="1520.5" y="1538" type="line"/>
    </contour>
    <contour>
      <point x="535.5" y="60" type="line"/>
      <point x="535.5" y="0" type="line"/>
      <point x="1506.5" y="0" type="line"/>
      <point x="1506.5" y="60" type="line"/>
    </contour>
    <contour>
      <point x="769.5" y="1197" type="line"/>
      <point x="769.5" y="1135" type="line"/>
      <point x="1204.5" y="1135" type="line"/>
      <point x="1204.5" y="1197" type="line"/>
    </contour>
    <contour>
      <point x="770.5" y="1154" type="line"/>
      <point x="770.5" y="340" type="line"/>
      <point x="829.5" y="340" type="line"/>
      <point x="829.5" y="1154" type="line"/>
    </contour>
    <contour>
      <point x="770.5" y="356" type="line"/>
      <point x="770.5" y="294" type="line"/>
      <point x="1210.5" y="294" type="line"/>
      <point x="1210.5" y="356" type="line"/>
    </contour>
  </outline>
</glyph>
<glyph name="ordfeminine" format="2">
  <advance width="2048"/>
  <unicode hex="00AA"/>
  <outline>
    <contour>
      <point x="702" y="1558" type="line"/>
      <point x="702" y="1491" type="line"/>
      <point x="1351" y="1491" type="line"/>
      <point x="1351" y="1558" type="line"/>
    </contour>
    <contour>
      <point x="1313" y="1559" type="line"/>
      <point x="1313" y="535" type="line"/>
      <point x="1390" y="535" type="line"/>
      <point x="1390" y="1559" type="line"/>
    </contour>
    <contour>
      <point x="705" y="1134" type="line"/>
      <point x="705" y="1072" type="line"/>
      <point x="1329" y="1072" type="line"/>
      <point x="1329" y="1134" type="line"/>
    </contour>
    <contour>
      <point x="706" y="1111" type="line"/>
      <point x="706" y="533" type="line"/>
      <point x="777" y="533" type="line"/>
      <point x="777" y="1111" type="line"/>
    </contour>
    <contour>
      <point x="715" y="608" type="line"/>
      <point x="715" y="533" type="line"/>
      <point x="1379" y="533" type="line"/>
      <point x="1379" y="608" type="line"/>
    </contour>
    <contour>
      <point x="599" y="306" type="line"/>
      <point x="599" y="243" type="line"/>
      <point x="1467" y="243" type="line"/>
      <point x="1467" y="306" type="line"/>
    </contour>
  </outline>
</glyph>
<glyph name="guillemotleft" format="2">
  <advance width="2048"/>
  <unicode hex="00AB"/>
  <outline>
    <contour>
      <point x="610.0" y="509.0" type="line"/>
      <point x="610.0" y="472.0" type="line"/>
      <point x="1047.0" y="757.0" type="line"/>
      <point x="1047.0" y="784.0" type="line"/>
    </contour>
    <contour>
      <point x="610.0" y="509.0" type="line"/>
      <point x="610.0" y="472.0" type="line"/>
      <point x="978.0" y="122.0" type="line"/>
      <point x="986.0" y="160.0" type="line"/>
    </contour>
    <contour>
      <point x="1028.0" y="527.0" type="line"/>
      <point x="1028.0" y="498.0" type="line"/>
      <point x="1438.0" y="783.0" type="line"/>
      <point x="1438.0" y="823.0" type="line"/>
    </contour>
    <contour>
      <point x="1027.0" y="527.0" type="line"/>
      <point x="1027.0" y="497.0" type="line"/>
      <point x="1393.0" y="122.0" type="line"/>
      <point x="1410.0" y="149.0" type="line"/>
    </contour>
  </outline>
</glyph>
<glyph name="logicalnot" format="2">
  <advance width="2048"/>
  <unicode hex="00AC"/>
  <outline>
    <contour>
      <point x="1241.0" y="935.0" type="line"/>
      <point x="1241.0" y="640.0" type="line"/>
      <point x="1294.0" y="640.0" type="line"/>
      <point x="1294.0" y="935.0" type="line"/>
    </contour>
    <contour>
      <point x="754.0" y="935.0" type="line"/>
      <point x="754.0" y="875.0" type="line"/>
      <point x="1288.0" y="875.0" type="line"/>
      <point x="1288.0" y="935.0" type="line"/>
    </contour>
  </outline>
</glyph>
<glyph name="registered" format="2">
  <advance width="2048"/>
  <unicode hex="00AE"/>
  <outline>
    <contour>
      <point x="909.0" y="1032.0" type="line"/>
      <point x="909.0" y="501.0" type="line"/>
      <point x="946.0" y="501.0" type="line"/>
      <point x="946.0" y="1032.0" type="line"/>
    </contour>
    <contour>
      <point x="934.0" y="1032.0" type="line"/>
      <point x="934.0" y="994.0" type="line"/>
      <point x="1163.0" y="994.0" type="line"/>
      <point x="1163.0" y="1032.0" type="line"/>
    </contour>
    <contour>
      <point x="1134.0" y="1032.0" type="line"/>
      <point x="1134.0" y="802.0" type="line"/>
      <point x="1172.0" y="802.0" type="line"/>
      <point x="1172.0" y="1032.0" type="line"/>
    </contour>
    <contour>
      <point x="930.0" y="848.0" type="line"/>
      <point x="930.0" y="801.0" type="line"/>
      <point x="1168.0" y="801.0" type="line"/>
      <point x="1168.0" y="848.0" type="line"/>
    </contour>
    <contour>
      <point x="977.0" y="809.0" type="line"/>
      <point x="1176.0" y="500.0" type="line"/>
      <point x="1219.0" y="500.0" type="line"/>
      <point x="1012.0" y="809.0" type="line"/>
    </contour>
    <contour>
      <point x="553.0" y="1540.0" type="line"/>
      <point x="553.0" y="0.0" type="line"/>
      <point x="615.0" y="0.0" type="line"/>
      <point x="615.0" y="1540.0" type="line"/>
    </contour>
    <contour>
      <point x="1433.0" y="1537.0" type="line"/>
      <point x="1433.0" y="0.0" type="line"/>
      <point x="1495.0" y="0.0" type="line"/>
      <point x="1495.0" y="1537.0" type="line"/>
    </contour>
    <contour>
      <point x="592.0" y="1538.0" type="line"/>
      <point x="592.0" y="1478.0" type="line"/>
      <point x="1464.0" y="1478.0" type="line"/>
      <point x="1464.0" y="1538.0" type="line"/>
    </contour>
    <contour>
      <point x="588.0" y="61.0" type="line"/>
      <point x="588.0" y="0.0" type="line"/>
      <point x="1480.0" y="0.0" type="line"/>
      <point x="1480.0" y="61.0" type="line"/>
    </contour>
  </outline>
</glyph>
<glyph name="macron" format="2">
	<unicode hex="00AF"/>
	<advance width="2048"/>
	<outline>
		<contour>
			<point x="737" y="1019" type="line"/>
			<point x="737" y="977" type="line"/>
			<point x="1297" y="977" type="line"/>
			<point x="1297" y="1019" type="line"/>
		</contour>
	</outline>
</glyph>
<glyph name="degree" format="2">
  <advance width="2048"/>
  <unicode hex="00B0"/>
  <outline>
    <contour>
      <point x="903.0" y="1439.0" type="line"/>
      <point x="1153.0" y="1439.0" type="line"/>
      <point x="1153.0" y="1231.0" type="line"/>
      <point x="903.0" y="1231.0" type="line"/>
    </contour>
    <contour>
      <point x="844.0" y="1488.0" type="line"/>
      <point x="844.0" y="1179.0" type="line"/>
      <point x="1204.0" y="1179.0" type="line"/>
      <point x="1204.0" y="1488.0" type="line"/>
    </contour>
  </outline>
</glyph>
<glyph name="plusminus" format="2">
	<unicode hex="00B1"/>
	<advance width="2048"/>
	<outline>
		<contour>
			<point x="611" y="110" type="line"/>
			<point x="611" y="48" type="line"/>
			<point x="1437" y="48" type="line"/>
			<point x="1437" y="110" type="line"/>
		</contour>
		<contour>
			<point x="978" y="1221" type="line"/>
			<point x="978" y="228" type="line"/>
			<point x="1039" y="228" type="line"/>
			<point x="1039" y="1221" type="line"/>
		</contour>
		<contour>
			<point x="573" y="744" type="line"/>
			<point x="573" y="686" type="line"/>
			<point x="1475" y="686" type="line"/>
			<point x="1475" y="744" type="line"/>
		</contour>
	</outline>
</glyph>
<glyph name="uni00B2" format="2">
  <advance width="2048"/>
  <unicode hex="00B2"/>
  <outline>
    <contour>
      <point x="672" y="1519" type="line"/>
      <point x="1510" y="1519" type="line"/>
      <point x="1510" y="1277" type="line"/>
      <point x="675" y="1277" type="line"/>
      <point x="675" y="895" type="line"/>
      <point x="1531" y="895" type="line"/>
      <point x="1531" y="920" type="line"/>
      <point x="703" y="920" type="line"/>
      <point x="703" y="1252" type="line"/>
      <point x="1538" y="1252" type="line"/>
      <point x="1538" y="1544" type="line"/>
      <point x="672" y="1544" type="line"/>
    </contour>
  </outline>
</glyph>
<glyph name="uni00B3" format="2">
  <advance width="2048"/>
  <unicode hex="00B3"/>
  <outline>
    <contour>
      <point x="100.5" y="736" type="line"/>
      <point x="1927" y="736" type="line"/>
      <point x="1927" y="52" type="line"/>
      <point x="59" y="52" type="line"/>
      <point x="68.5" y="-8" type="line"/>
      <point x="1980.5" y="-8" type="line"/>
      <point x="1987" y="1550" type="line"/>
      <point x="89" y="1550" type="line"/>
      <point x="89" y="1493" type="line"/>
      <point x="1925" y="1493" type="line"/>
      <point x="1925" y="796" type="line"/>
      <point x="101" y="796" type="line"/>
    </contour>
  </outline>
</glyph>
<glyph name="acute" format="2">
  <advance width="2048"/>
  <unicode hex="00B4"/>
  <outline>
    <contour>
      <point x="522.0" y="1556.0" type="line"/>
      <point x="392.0" y="1302.0" type="line"/>
      <point x="480.0" y="1256.0" type="line"/>
      <point x="611.0" y="1511.0" type="line"/>
    </contour>
  </outline>
</glyph>
<glyph name="mu" format="2">
  <advance width="2048"/>
  <unicode hex="00B5"/>
  <outline>
    <contour>
      <point x="1538.0" y="935.0" type="line"/>
      <point x="1538.0" y="0.0" type="line"/>
      <point x="1663.0" y="0.0" type="line"/>
      <point x="1663.0" y="935.0" type="line"/>
    </contour>
    <contour>
      <point x="430.0" y="60.0" type="line"/>
      <point x="430.0" y="0.0" type="line"/>
      <point x="1600.0" y="0.0" type="line"/>
      <point x="1600.0" y="60.0" type="line"/>
    </contour>
    <contour>
      <point x="333.0" y="935.0" type="line"/>
      <point x="333.0" y="-430.0" type="line"/>
      <point x="462.0" y="-430.0" type="line"/>
      <point x="462.0" y="935.0" type="line"/>
    </contour>
  </outline>
</glyph>
<glyph name="paragraph" format="2">
  <advance width="2048"/>
  <unicode hex="00B6"/>
  <outline>
    <contour>
      <point x="601.5" y="1044" type="line"/>
      <point x="601.5" y="985" type="line"/>
      <point x="1166.5" y="985" type="line"/>
      <point x="1166.5" y="1044" type="line"/>
    </contour>
    <contour>
      <point x="601.5" y="1552" type="line"/>
      <point x="601.5" y="1000" type="line"/>
      <point x="663.5" y="1000" type="line"/>
      <point x="663.5" y="1552" type="line"/>
    </contour>
    <contour>
      <point x="601.5" y="1552" type="line"/>
      <point x="601.5" y="1493" type="line"/>
      <point x="1421.5" y="1493" type="line"/>
      <point x="1421.5" y="1552" type="line"/>
    </contour>
    <contour>
      <point x="1151.5" y="1552" type="line"/>
      <point x="1151.5" y="0" type="line"/>
      <point x="1216.5" y="0" type="line"/>
      <point x="1216.5" y="1552" type="line"/>
    </contour>
    <contour>
      <point x="1384.5" y="1552" type="line"/>
      <point x="1384.5" y="0" type="line"/>
      <point x="1446.5" y="0" type="line"/>
      <point x="1446.5" y="1552" type="line"/>
    </contour>
  </outline>
</glyph>
<glyph name="periodcentered" format="2">
  <advance width="2048"/>
  <unicode hex="00B7"/>
  <outline>
    <contour>
      <point x="976" y="1056" type="line"/>
      <point x="976" y="955" type="line"/>
      <point x="1072" y="955" type="line"/>
      <point x="1072" y="1056" type="line"/>
    </contour>
  </outline>
</glyph>
<glyph name="cedilla" format="2">
  <advance width="2048"/>
  <unicode hex="00B8"/>
  <outline>
    <contour>
      <point x="805.0" y="187.0" type="line"/>
      <point x="805.0" y="-53.0" type="line"/>
      <point x="863.0" y="-53.0" type="line"/>
      <point x="863.0" y="187.0" type="line"/>
    </contour>
    <contour>
      <point x="811.0" y="-340.0" type="line"/>
      <point x="811.0" y="-401.0" type="line"/>
      <point x="1257.0" y="-401.0" type="line"/>
      <point x="1257.0" y="-340.0" type="line"/>
    </contour>
    <contour>
      <point x="1198.0" y="7.0" type="line"/>
      <point x="1198.0" y="-365.0" type="line"/>
      <point x="1257.0" y="-365.0" type="line"/>
      <point x="1257.0" y="7.0" type="line"/>
    </contour>
    <contour>
      <point x="811.0" y="7.0" type="line"/>
      <point x="811.0" y="-53.0" type="line"/>
      <point x="1257.0" y="-53.0" type="line"/>
      <point x="1257.0" y="7.0" type="line"/>
    </contour>
  </outline>
</glyph>
<glyph name="uni00B9" format="2">
  <advance width="2048"/>
  <unicode hex="00B9"/>
  <outline>
    <contour>
      <point x="1053.5" y="0" type="line"/>
      <point x="1113.5" y="0" type="line"/>
      <point x="1113.5" y="1551" type="line"/>
      <point x="1053.5" y="1551" type="line"/>
    </contour>
    <contour>
      <point x="1053.5" y="1551" type="line"/>
      <point x="934.5" y="1426" type="line"/>
      <point x="985.5" y="1398" type="line"/>
      <point x="1113.5" y="1550" type="line"/>
    </contour>
  </outline>
</glyph>
<glyph name="ordmasculine" format="2">
  <advance width="2048"/>
  <unicode hex="00BA"/>
  <outline>
    <contour>
      <point x="620.0" y="1023.0" type="line"/>
      <point x="620.0" y="0.0" type="line"/>
      <point x="679.0" y="0.0" type="line"/>
      <point x="679.0" y="1023.0" type="line"/>
    </contour>
    <contour>
      <point x="1377.0" y="1023.0" type="line"/>
      <point x="1377.0" y="0.0" type="line"/>
      <point x="1438.0" y="0.0" type="line"/>
      <point x="1438.0" y="1023.0" type="line"/>
    </contour>
    <contour>
      <point x="681.0" y="1027.0" type="line"/>
      <point x="681.0" y="967.0" type="line"/>
      <point x="1382.0" y="967.0" type="line"/>
      <point x="1382.0" y="1027.0" type="line"/>
    </contour>
    <contour>
      <point x="666.0" y="62.0" type="line"/>
      <point x="666.0" y="0.0" type="line"/>
      <point x="1385.0" y="0.0" type="line"/>
      <point x="1385.0" y="62.0" type="line"/>
    </contour>
    <contour>
      <point x="512.0" y="-70.0" type="line"/>
      <point x="512.0" y="-136.0" type="line"/>
      <point x="1536.0" y="-136.0" type="line"/>
      <point x="1536.0" y="-70.0" type="line"/>
    </contour>
  </outline>
</glyph>
<glyph name="guillemotright" format="2">
  <advance width="2048"/>
  <unicode hex="00BB"/>
  <outline>
    <contour>
      <point x="1438.0" y="509.0" type="line"/>
      <point x="1001.0" y="784.0" type="line"/>
      <point x="1001.0" y="757.0" type="line"/>
      <point x="1437.0" y="472.0" type="line"/>
    </contour>
    <contour>
      <point x="1438.0" y="509.0" type="line"/>
      <point x="1062.0" y="160.0" type="line"/>
      <point x="1070.0" y="122.0" type="line"/>
      <point x="1437.0" y="472.0" type="line"/>
    </contour>
    <contour>
      <point x="1020.0" y="527.0" type="line"/>
      <point x="610.0" y="823.0" type="line"/>
      <point x="610.0" y="783.0" type="line"/>
      <point x="1021.0" y="498.0" type="line"/>
    </contour>
    <contour>
      <point x="1021.0" y="527.0" type="line"/>
      <point x="638.0" y="149.0" type="line"/>
      <point x="655.0" y="122.0" type="line"/>
      <point x="1021.0" y="497.0" type="line"/>
    </contour>
  </outline>
</glyph>
<glyph name="onequarter" format="2">
  <advance width="2048"/>
  <unicode hex="00BC"/>
  <outline>
    <contour>
      <point x="1562" y="1480" type="line"/>
      <point x="78.75" y="10" type="line"/>
      <point x="181.75" y="10" type="line"/>
      <point x="1665" y="1480" type="line"/>
    </contour>
    <contour>
      <point x="386" y="1045" type="line"/>
      <point x="420" y="1045" type="line"/>
      <point x="420" y="1551" type="line"/>
      <point x="386" y="1551" type="line"/>
    </contour>
    <contour>
      <point x="386" y="1551" type="line"/>
      <point x="276" y="1456" type="line"/>
      <point x="283" y="1442" type="line"/>
      <point x="419" y="1551" type="line"/>
    </contour>
    <contour>
      <point x="1464" y="379" type="line"/>
      <point x="1803" y="379" type="line"/>
      <point x="1803" y="7" type="line"/>
      <point x="1831" y="7" type="line"/>
      <point x="1828" y="768" type="line"/>
      <point x="1802" y="768" type="line"/>
      <point x="1802" y="409" type="line"/>
      <point x="1490" y="409" type="line"/>
      <point x="1490" y="770" type="line"/>
      <point x="1464" y="770" type="line"/>
    </contour>
  </outline>
</glyph>
<glyph name="onehalf" format="2">
  <advance width="2048"/>
  <unicode hex="00BD"/>
  <outline>
    <contour>
      <point x="1393.0" y="1480.0" type="line"/>
      <point x="97.0" y="10.0" type="line"/>
      <point x="200.0" y="10.0" type="line"/>
      <point x="1496.0" y="1480.0" type="line"/>
    </contour>
    <contour>
      <point x="297.0" y="1017.0" type="line"/>
      <point x="361.0" y="1017.0" type="line"/>
      <point x="361.0" y="1550.0" type="line"/>
      <point x="297.0" y="1550.0" type="line"/>
    </contour>
    <contour>
      <point x="297.0" y="1550.0" type="line"/>
      <point x="170.0" y="1508.0" type="line"/>
      <point x="224.0" y="1498.0" type="line"/>
      <point x="361.0" y="1550.0" type="line"/>
    </contour>
    <contour>
      <point x="1314.0" y="623.0" type="line"/>
      <point x="1604.0" y="623.0" type="line"/>
      <point x="1604.0" y="381.0" type="line"/>
      <point x="1317.0" y="381.0" type="line"/>
      <point x="1317.0" y="0.0" type="line"/>
      <point x="1622.0" y="0.0" type="line"/>
      <point x="1622.0" y="25.0" type="line"/>
      <point x="1340.0" y="25.0" type="line"/>
      <point x="1340.0" y="356.0" type="line"/>
      <point x="1627.0" y="356.0" type="line"/>
      <point x="1627.0" y="648.0" type="line"/>
      <point x="1314.0" y="648.0" type="line"/>
    </contour>
  </outline>
</glyph>
<glyph name="threequarters" format="2">
  <advance width="2048"/>
  <unicode hex="00BE"/>
  <outline>
    <contour>
      <point x="1374" y="1483" type="line"/>
      <point x="210" y="6" type="line"/>
      <point x="260" y="-67" type="line"/>
      <point x="1423" y="1410" type="line"/>
    </contour>
    <contour>
      <point x="96" y="1272" type="line"/>
      <point x="663" y="1272" type="line"/>
      <point x="663" y="1084" type="line"/>
      <point x="59" y="1084" type="line"/>
      <point x="67" y="1015" type="line"/>
      <point x="725" y="1015" type="line"/>
      <point x="731" y="1553" type="line"/>
      <point x="86" y="1553" type="line"/>
      <point x="86" y="1484" type="line"/>
      <point x="661" y="1484" type="line"/>
      <point x="661" y="1340" type="line"/>
      <point x="96" y="1340" type="line"/>
    </contour>
    <contour>
      <point x="1251" y="340" type="line"/>
      <point x="1879" y="340" type="line"/>
      <point x="1879" y="7" type="line"/>
      <point x="1964" y="7" type="line"/>
      <point x="1957" y="687" type="line"/>
      <point x="1877" y="687" type="line"/>
      <point x="1877" y="428" type="line"/>
      <point x="1338" y="428" type="line"/>
      <point x="1338" y="689" type="line"/>
      <point x="1251" y="689" type="line"/>
    </contour>
  </outline>
</glyph>
<glyph name="questiondown" format="2">
  <advance width="2048"/>
  <unicode hex="00BF"/>
  <outline>
    <contour>
      <point x="1168" y="1273" type="line"/>
      <point x="1168" y="1519" type="line"/>
      <point x="1110" y="1519" type="line"/>
      <point x="1110" y="1272" type="line"/>
    </contour>
    <contour>
      <point x="1344" y="0" type="line"/>
      <point x="1344" y="61" type="line"/>
      <point x="708" y="61" type="line"/>
      <point x="708" y="0" type="line"/>
    </contour>
    <contour>
      <point x="764" y="5" type="line"/>
      <point x="764" y="553" type="line"/>
      <point x="704" y="553" type="line"/>
      <point x="704" y="5" type="line"/>
    </contour>
    <contour>
      <point x="1168" y="504" type="line"/>
      <point x="1168" y="566" type="line"/>
      <point x="704" y="566" type="line"/>
      <point x="704" y="504" type="line"/>
    </contour>
    <contour>
      <point x="1168" y="508" type="line"/>
      <point x="1168" y="1127" type="line"/>
      <point x="1110" y="1127" type="line"/>
      <point x="1110" y="508" type="line"/>
    </contour>
  </outline>
</glyph>
<glyph name="AE" format="2">
  <advance width="2048"/>
  <unicode hex="00C6"/>
  <outline>
    <contour>
      <point x="1039.5" y="62" type="line"/>
      <point x="1039.5" y="0" type="line"/>
      <point x="1971.5" y="0" type="line"/>
      <point x="1971.5" y="62" type="line"/>
    </contour>
    <contour>
      <point x="76.5" y="0" type="line"/>
      <point x="138.5" y="0" type="line"/>
      <point x="138.5" y="1548" type="line"/>
      <point x="76.5" y="1548" type="line"/>
    </contour>
    <contour>
      <point x="120.5" y="1489" type="line"/>
      <point x="1949.5" y="1489" type="line"/>
      <point x="1949.5" y="1548" type="line"/>
      <point x="120.5" y="1548" type="line"/>
    </contour>
    <contour>
      <point x="124.5" y="1025" type="line"/>
      <point x="124.5" y="964" type="line"/>
      <point x="1897.5" y="964" type="line"/>
      <point x="1897.5" y="1025" type="line"/>
    </contour>
    <contour>
      <point x="1014.5" y="0" type="line"/>
      <point x="1074.5" y="0" type="line"/>
      <point x="1074.5" y="1548" type="line"/>
      <point x="1014.5" y="1548" type="line"/>
    </contour>
  </outline>
</glyph>
<glyph name="Eth" format="2">
  <advance width="2048"/>
  <unicode hex="00D0"/>
  <unicode hex="0189"/>
  <outline>
    <contour>
      <point x="55.0" y="935.0" type="line"/>
      <point x="55.0" y="873.0" type="line"/>
      <point x="362.0" y="873.0" type="line"/>
      <point x="362.0" y="935.0" type="line"/>
    </contour>
    <contour>
      <point x="162.0" y="1553.0" type="line"/>
      <point x="162.0" y="0.0" type="line"/>
      <point x="223.0" y="0.0" type="line"/>
      <point x="223.0" y="1553.0" type="line"/>
    </contour>
    <contour>
      <point x="1512.0" y="1553.0" type="line"/>
      <point x="1512.0" y="1484.0" type="line"/>
      <point x="1993.0" y="964.0" type="line"/>
      <point x="1993.0" y="1023.0" type="line"/>
    </contour>
    <contour>
      <point x="1520.0" y="60.0" type="line"/>
      <point x="1520.0" y="0.0" type="line"/>
      <point x="1993.0" y="964.0" type="line"/>
      <point x="1993.0" y="1023.0" type="line"/>
    </contour>
    <contour>
      <point x="202.0" y="1553.0" type="line"/>
      <point x="202.0" y="1484.0" type="line"/>
      <point x="1512.0" y="1484.0" type="line"/>
      <point x="1512.0" y="1553.0" type="line"/>
    </contour>
    <contour>
      <point x="210.0" y="60.0" type="line"/>
      <point x="210.0" y="0.0" type="line"/>
      <point x="1520.0" y="0.0" type="line"/>
      <point x="1520.0" y="60.0" type="line"/>
    </contour>
  </outline>
</glyph>
<glyph name="multiply" format="2">
  <advance width="2048"/>
  <unicode hex="00D7"/>
  <outline>
    <contour>
      <point x="92.5" y="294" type="line"/>
      <point x="188.5" y="295" type="line"/>
      <point x="1948.5" y="1323" type="line"/>
      <point x="1866.5" y="1319" type="line"/>
    </contour>
    <contour>
      <point x="90.5" y="1325" type="line"/>
      <point x="1869.5" y="289" type="line"/>
      <point x="1957.5" y="288" type="line"/>
      <point x="174.5" y="1322" type="line"/>
    </contour>
  </outline>
</glyph>
<glyph name="Oslash" format="2">
  <advance width="2048"/>
  <unicode hex="00D8"/>
  <anchor x="1023" y="1645" name="top"/>
  <anchor x="1011" y="-143" name="base"/>
  <outline>
    <contour>
      <point x="1923" y="1630" type="line"/>
      <point x="69" y="-48" type="line"/>
      <point x="109" y="-75" type="line"/>
      <point x="1979" y="1588" type="line"/>
    </contour>
    <contour>
      <point x="107" y="1540" type="line"/>
      <point x="107" y="0" type="line"/>
      <point x="167" y="0" type="line"/>
      <point x="167" y="1540" type="line"/>
    </contour>
    <contour>
      <point x="1872" y="1537" type="line"/>
      <point x="1872" y="0" type="line"/>
      <point x="1931" y="0" type="line"/>
      <point x="1931" y="1537" type="line"/>
    </contour>
    <contour>
      <point x="137" y="1538" type="line"/>
      <point x="137" y="1478" type="line"/>
      <point x="1901" y="1478" type="line"/>
      <point x="1901" y="1538" type="line"/>
    </contour>
    <contour>
      <point x="147" y="75" type="line"/>
      <point x="147" y="0" type="line"/>
      <point x="1872" y="0" type="line"/>
      <point x="1872" y="75" type="line"/>
    </contour>
  </outline>
</glyph>
<glyph name="Thorn" format="2">
  <advance width="2048"/>
  <unicode hex="00DE"/>
  <outline>
    <contour>
      <point x="646.5" y="1545" type="line"/>
      <point x="646.5" y="9" type="line"/>
      <point x="705.5" y="9" type="line"/>
      <point x="705.5" y="1542" type="line"/>
    </contour>
    <contour>
      <point x="693.5" y="1240" type="line"/>
      <point x="693.5" y="1187" type="line"/>
      <point x="1381.5" y="1187" type="line"/>
      <point x="1381.5" y="1240" type="line"/>
    </contour>
    <contour>
      <point x="1341.5" y="1242" type="line"/>
      <point x="1341.5" y="531" type="line"/>
      <point x="1401.5" y="531" type="line"/>
      <point x="1401.5" y="1242" type="line"/>
    </contour>
    <contour>
      <point x="713.5" y="544" type="line"/>
      <point x="713.5" y="484" type="line"/>
      <point x="1400.5" y="484" type="line"/>
      <point x="1400.5" y="544" type="line"/>
    </contour>
  </outline>
</glyph>
<glyph name="germandbls" format="2">
  <advance width="2048"/>
  <unicode hex="00DF"/>
  <outline>
    <contour>
      <point x="76" y="1084" type="line"/>
      <point x="76" y="1023" type="line"/>
      <point x="327" y="1023" type="line"/>
      <point x="327" y="1084" type="line"/>
    </contour>
    <contour>
      <point x="261" y="1547" type="line"/>
      <point x="261" y="-4" type="line"/>
      <point x="325" y="-4" type="line"/>
      <point x="325" y="1547" type="line"/>
    </contour>
    <contour>
      <point x="313" y="1550" type="line"/>
      <point x="313" y="1488" type="line"/>
      <point x="1944" y="1488" type="line"/>
      <point x="1944" y="1550" type="line"/>
    </contour>
    <contour>
      <point x="1910" y="1550" type="line"/>
      <point x="1910" y="1023" type="line"/>
      <point x="1971" y="1023" type="line"/>
      <point x="1971" y="1550" type="line"/>
    </contour>
    <contour>
      <point x="1914" y="1062" type="line"/>
      <point x="1164" y="1062" type="line"/>
      <point x="1164" y="826" type="line"/>
      <point x="1914" y="826" type="line"/>
    </contour>
    <contour>
      <point x="1912" y="848" type="line"/>
      <point x="1912" y="175" type="line"/>
      <point x="1970" y="175" type="line"/>
      <point x="1970" y="848" type="line"/>
    </contour>
    <contour>
      <point x="1117" y="187" type="line"/>
      <point x="1117" y="131" type="line"/>
      <point x="1972" y="131" type="line"/>
      <point x="1972" y="187" type="line"/>
    </contour>
  </outline>
</glyph>
<glyph name="ae" format="2">
  <advance width="2048"/>
  <unicode hex="00E6"/>
  <outline>
    <contour>
      <point x="104.0" y="1023.0" type="line"/>
      <point x="104.0" y="961.0" type="line"/>
      <point x="1894.0" y="961.0" type="line"/>
      <point x="1894.0" y="1023.0" type="line"/>
    </contour>
    <contour>
      <point x="1024.0" y="1023.0" type="line"/>
      <point x="1024.0" y="0.0" type="line"/>
      <point x="1084.0" y="0.0" type="line"/>
      <point x="1084.0" y="1023.0" type="line"/>
    </contour>
    <contour>
      <point x="128.0" y="599.0" type="line"/>
      <point x="128.0" y="538.0" type="line"/>
      <point x="1868.0" y="538.0" type="line"/>
      <point x="1868.0" y="599.0" type="line"/>
    </contour>
    <contour>
      <point x="128.0" y="575.0" type="line"/>
      <point x="128.0" y="0.0" type="line"/>
      <point x="188.0" y="0.0" type="line"/>
      <point x="188.0" y="575.0" type="line"/>
    </contour>
    <contour>
      <point x="126.0" y="61.0" type="line"/>
      <point x="126.0" y="0.0" type="line"/>
      <point x="1946.0" y="0.0" type="line"/>
      <point x="1946.0" y="61.0" type="line"/>
    </contour>
    <contour>
      <point x="1862.0" y="1023.0" type="line"/>
      <point x="1862.0" y="538.0" type="line"/>
      <point x="1924.0" y="538.0" type="line"/>
      <point x="1924.0" y="1023.0" type="line"/>
    </contour>
  </outline>
</glyph>
<glyph name="eth" format="2">
  <advance width="2048"/>
  <unicode hex="00F0"/>
  <outline>
    <contour>
      <point x="752.5" y="1547" type="line"/>
      <point x="1355.5" y="3" type="line"/>
      <point x="1404.5" y="0" type="line"/>
      <point x="808.5" y="1550" type="line"/>
    </contour>
    <contour>
      <point x="684.5" y="1023" type="line"/>
      <point x="684.5" y="964" type="line"/>
      <point x="1008.5" y="964" type="line"/>
      <point x="1008.5" y="1023" type="line"/>
    </contour>
    <contour>
      <point x="643.5" y="1022" type="line"/>
      <point x="643.5" y="0" type="line"/>
      <point x="703.5" y="0" type="line"/>
      <point x="703.5" y="1022" type="line"/>
    </contour>
    <contour>
      <point x="689.5" y="59" type="line"/>
      <point x="689.5" y="0" type="line"/>
      <point x="1356.5" y="0" type="line"/>
      <point x="1356.5" y="59" type="line"/>
    </contour>
    <contour>
      <point x="672.5" y="1416" type="line"/>
      <point x="672.5" y="1351" type="line"/>
      <point x="1016.5" y="1351" type="line"/>
      <point x="1016.5" y="1416" type="line"/>
    </contour>
  </outline>
</glyph>
<glyph name="divide" format="2">
  <advance width="2048"/>
  <unicode hex="00F7"/>
  <outline>
    <contour>
      <point x="1030.0" y="280.0" type="line"/>
      <point x="1030.0" y="185.0" type="line"/>
      <point x="1182.0" y="185.0" type="line"/>
      <point x="1182.0" y="280.0" type="line"/>
    </contour>
    <contour>
      <point x="1021.0" y="1127.0" type="line"/>
      <point x="1021.0" y="1031.0" type="line"/>
      <point x="1158.0" y="1031.0" type="line"/>
      <point x="1158.0" y="1127.0" type="line"/>
    </contour>
    <contour>
      <point x="111.0" y="662.0" type="line"/>
      <point x="111.0" y="600.0" type="line"/>
      <point x="1937.0" y="600.0" type="line"/>
      <point x="1937.0" y="662.0" type="line"/>
    </contour>
  </outline>
</glyph>
<glyph name="oslash" format="2">
  <advance width="2048"/>
  <unicode hex="00F8"/>
  <outline>
    <contour>
      <point x="1428.5" y="1125" type="line"/>
      <point x="578.5" y="-36" type="line"/>
      <point x="618.5" y="-70" type="line"/>
      <point x="1469.5" y="1073" type="line"/>
    </contour>
    <contour>
      <point x="611.5" y="1022" type="line"/>
      <point x="611.5" y="0" type="line"/>
      <point x="672.5" y="0" type="line"/>
      <point x="672.5" y="1022" type="line"/>
    </contour>
    <contour>
      <point x="1368.5" y="1024" type="line"/>
      <point x="1368.5" y="0" type="line"/>
      <point x="1428.5" y="0" type="line"/>
      <point x="1428.5" y="1024" type="line"/>
    </contour>
    <contour>
      <point x="653.5" y="1024" type="line"/>
      <point x="653.5" y="963" type="line"/>
      <point x="1399.5" y="963" type="line"/>
      <point x="1399.5" y="1024" type="line"/>
    </contour>
    <contour>
      <point x="655.5" y="63" type="line"/>
      <point x="655.5" y="1" type="line"/>
      <point x="1404.5" y="1" type="line"/>
      <point x="1404.5" y="63" type="line"/>
    </contour>
  </outline>
</glyph>
<glyph name="thorn" format="2">
	<unicode hex="00FE"/>
	<advance width="2048"/>
	<outline>
		<contour>
			<point x="154" y="1034" type="line"/>
			<point x="154" y="-406" type="line"/>
			<point x="212" y="-406" type="line"/>
			<point x="212" y="1034" type="line"/>
		</contour>
		<contour>
			<point x="206" y="667" type="line"/>
			<point x="206" y="605" type="line"/>
			<point x="1894" y="605" type="line"/>
			<point x="1894" y="667" type="line"/>
		</contour>
		<contour>
			<point x="192" y="-135" type="line"/>
			<point x="192" y="-195" type="line"/>
			<point x="1894" y="-195" type="line"/>
			<point x="1894" y="-135" type="line"/>
		</contour>
		<contour>
			<point x="1834" y="646" type="line"/>
			<point x="1834" y="-170" type="line"/>
			<point x="1894" y="-170" type="line"/>
			<point x="1894" y="646" type="line"/>
		</contour>
	</outline>
</glyph>
<glyph name="dcaron" format="2">
  <advance width="2048"/>
  <unicode hex="010F"/>
  <outline>
    <contour>
      <point x="1769.5" y="1527" type="line"/>
      <point x="1769.5" y="0" type="line"/>
      <point x="1830.5" y="0" type="line"/>
      <point x="1830.5" y="1527" type="line"/>
    </contour>
    <contour>
      <point x="114.5" y="1023" type="line"/>
      <point x="114.5" y="962" type="line"/>
      <point x="1790.5" y="962" type="line"/>
      <point x="1790.5" y="1023" type="line"/>
    </contour>
    <contour>
      <point x="69.5" y="1022" type="line"/>
      <point x="69.5" y="0" type="line"/>
      <point x="128.5" y="0" type="line"/>
      <point x="128.5" y="1022" type="line"/>
    </contour>
    <contour>
      <point x="86.5" y="60" type="line"/>
      <point x="86.5" y="0" type="line"/>
      <point x="1782.5" y="0" type="line"/>
      <point x="1782.5" y="60" type="line"/>
    </contour>
    <contour>
      <point x="1927.5" y="1496" type="line"/>
      <point x="1927.5" y="1264" type="line"/>
      <point x="1978.5" y="1264" type="line"/>
      <point x="1978.5" y="1496" type="line"/>
    </contour>
  </outline>
</glyph>
<glyph name="Dcroat" format="2">
  <advance width="2048"/>
  <unicode hex="0110"/>
  <outline>
    <contour>
      <point x="102.5" y="935" type="line"/>
      <point x="102.5" y="876" type="line"/>
      <point x="515.5" y="876" type="line"/>
      <point x="515.5" y="935" type="line"/>
    </contour>
    <contour>
      <point x="209.5" y="1548" type="line"/>
      <point x="209.5" y="0" type="line"/>
      <point x="270.5" y="0" type="line"/>
      <point x="270.5" y="1548" type="line"/>
    </contour>
    <contour>
      <point x="1559.5" y="1550" type="line"/>
      <point x="1559.5" y="1488" type="line"/>
      <point x="2035.5" y="906" type="line"/>
      <point x="2039.5" y="1019" type="line"/>
    </contour>
    <contour>
      <point x="1567.5" y="61" type="line"/>
      <point x="1567.5" y="1" type="line"/>
      <point x="2035.5" y="915" type="line"/>
      <point x="2039.5" y="1025" type="line"/>
    </contour>
    <contour>
      <point x="254.5" y="1549" type="line"/>
      <point x="254.5" y="1488" type="line"/>
      <point x="1559.5" y="1488" type="line"/>
      <point x="1559.5" y="1549" type="line"/>
    </contour>
    <contour>
      <point x="250.5" y="61" type="line"/>
      <point x="250.5" y="0" type="line"/>
      <point x="1567.5" y="0" type="line"/>
      <point x="1567.5" y="61" type="line"/>
    </contour>
  </outline>
</glyph>
<glyph name="dcroat" format="2">
  <advance width="2048"/>
  <unicode hex="0111"/>
  <outline>
    <contour>
      <point x="1291.5" y="1527" type="line"/>
      <point x="1291.5" y="0" type="line"/>
      <point x="1351.5" y="0" type="line"/>
      <point x="1351.5" y="1527" type="line"/>
    </contour>
    <contour>
      <point x="622.5" y="1023" type="line"/>
      <point x="622.5" y="962" type="line"/>
      <point x="1313.5" y="962" type="line"/>
      <point x="1313.5" y="1023" type="line"/>
    </contour>
    <contour>
      <point x="590.5" y="1022" type="line"/>
      <point x="590.5" y="0" type="line"/>
      <point x="649.5" y="0" type="line"/>
      <point x="649.5" y="1022" type="line"/>
    </contour>
    <contour>
      <point x="638.5" y="61" type="line"/>
      <point x="638.5" y="0" type="line"/>
      <point x="1303.5" y="0" type="line"/>
      <point x="1303.5" y="61" type="line"/>
    </contour>
    <contour>
      <point x="1150.5" y="1260" type="line"/>
      <point x="1150.5" y="1202" type="line"/>
      <point x="1457.5" y="1202" type="line"/>
      <point x="1457.5" y="1260" type="line"/>
    </contour>
  </outline>
</glyph>
<glyph name="uni0123" format="2">
  <advance width="2048"/>
  <unicode hex="0123"/>
  <outline>
    <contour>
      <point x="226.0" y="1023.0" type="line"/>
      <point x="226.0" y="0.0" type="line"/>
      <point x="285.0" y="0.0" type="line"/>
      <point x="285.0" y="1023.0" type="line"/>
    </contour>
    <contour>
      <point x="266.0" y="1023.0" type="line"/>
      <point x="266.0" y="964.0" type="line"/>
      <point x="1806.0" y="964.0" type="line"/>
      <point x="1806.0" y="1023.0" type="line"/>
    </contour>
    <contour>
      <point x="1767.0" y="1023.0" type="line"/>
      <point x="1767.0" y="-411.0" type="line"/>
      <point x="1828.0" y="-411.0" type="line"/>
      <point x="1828.0" y="1023.0" type="line"/>
    </contour>
    <contour>
      <point x="289.0" y="61.0" type="line"/>
      <point x="289.0" y="0.0" type="line"/>
      <point x="1770.0" y="0.0" type="line"/>
      <point x="1770.0" y="61.0" type="line"/>
    </contour>
    <contour>
      <point x="220.0" y="-354.0" type="line"/>
      <point x="220.0" y="-413.0" type="line"/>
      <point x="1779.0" y="-413.0" type="line"/>
      <point x="1779.0" y="-354.0" type="line"/>
    </contour>
    <contour>
      <point x="1055.0" y="1399.0" type="line"/>
      <point x="1055.0" y="1198.0" type="line"/>
      <point x="1116.0" y="1198.0" type="line"/>
      <point x="1116.0" y="1399.0" type="line"/>
    </contour>
  </outline>
</glyph>
<glyph name="Hbar" format="2">
  <advance width="2048"/>
  <unicode hex="0126"/>
  <outline>
    <contour>
      <point x="110.0" y="1540.0" type="line"/>
      <point x="110.0" y="0.0" type="line"/>
      <point x="170.0" y="0.0" type="line"/>
      <point x="170.0" y="1540.0" type="line"/>
    </contour>
    <contour>
      <point x="1870.0" y="1540.0" type="line"/>
      <point x="1870.0" y="0.0" type="line"/>
      <point x="1930.0" y="0.0" type="line"/>
      <point x="1930.0" y="1540.0" type="line"/>
    </contour>
    <contour>
      <point x="150.0" y="1020.0" type="line"/>
      <point x="150.0" y="959.0" type="line"/>
      <point x="1886.0" y="959.0" type="line"/>
      <point x="1886.0" y="1020.0" type="line"/>
    </contour>
    <contour>
      <point x="50.0" y="1434.0" type="line"/>
      <point x="50.0" y="1374.0" type="line"/>
      <point x="1998.0" y="1374.0" type="line"/>
      <point x="1998.0" y="1434.0" type="line"/>
    </contour>
  </outline>
</glyph>
<glyph name="hbar" format="2">
  <advance width="2048"/>
  <unicode hex="0127"/>
  <outline>
    <contour>
      <point x="242" y="1541" type="line"/>
      <point x="242" y="6" type="line"/>
      <point x="302" y="6" type="line"/>
      <point x="302" y="1541" type="line"/>
    </contour>
    <contour>
      <point x="276" y="1025" type="line"/>
      <point x="276" y="966" type="line"/>
      <point x="1934" y="966" type="line"/>
      <point x="1934" y="1025" type="line"/>
    </contour>
    <contour>
      <point x="1883" y="1024" type="line"/>
      <point x="1883" y="1" type="line"/>
      <point x="1942" y="1" type="line"/>
      <point x="1942" y="1024" type="line"/>
    </contour>
    <contour>
      <point x="106" y="1429" type="line"/>
      <point x="106" y="1369" type="line"/>
      <point x="562" y="1369" type="line"/>
      <point x="562" y="1429" type="line"/>
    </contour>
  </outline>
</glyph>
<glyph name="dotlessi" format="2">
  <advance width="2048"/>
  <unicode hex="0131"/>
  <outline>
    <contour>
      <point x="1022.0" y="1023.0" type="line"/>
      <point x="1022.0" y="52.0" type="line"/>
      <point x="1082.0" y="52.0" type="line"/>
      <point x="1082.0" y="1023.0" type="line"/>
    </contour>
    <contour>
      <point x="141.0" y="60.0" type="line"/>
      <point x="141.0" y="0.0" type="line"/>
      <point x="1907.0" y="0.0" type="line"/>
      <point x="1907.0" y="60.0" type="line"/>
    </contour>
    <contour>
      <point x="191.0" y="1023.0" type="line"/>
      <point x="191.0" y="962.0" type="line"/>
      <point x="1039.0" y="962.0" type="line"/>
      <point x="1039.0" y="1023.0" type="line"/>
    </contour>
  </outline>
</glyph>
<glyph name="kgreenlandic" format="2">
  <advance width="2048"/>
  <unicode hex="0138"/>
  <outline>
    <contour>
      <point x="76.0" y="1033.0" type="line"/>
      <point x="76.0" y="5.0" type="line"/>
      <point x="136.0" y="5.0" type="line"/>
      <point x="136.0" y="1033.0" type="line"/>
    </contour>
    <contour>
      <point x="125.0" y="421.0" type="line"/>
      <point x="125.0" y="352.0" type="line"/>
      <point x="2009.0" y="1023.0" type="line"/>
      <point x="1949.0" y="1023.0" type="line"/>
    </contour>
    <contour>
      <point x="140.0" y="374.0" type="line"/>
      <point x="98.0" y="331.0" type="line"/>
      <point x="1911.0" y="0.0" type="line"/>
      <point x="1972.0" y="0.0" type="line"/>
    </contour>
  </outline>
</glyph>
<glyph name="Lcaron" format="2">
  <advance width="2048"/>
  <unicode hex="013D"/>
  <outline>
    <contour>
      <point x="94.5" y="1542" type="line"/>
      <point x="94.5" y="3" type="line"/>
      <point x="155.5" y="3" type="line"/>
      <point x="155.5" y="1542" type="line"/>
    </contour>
    <contour>
      <point x="121.5" y="62" type="line"/>
      <point x="121.5" y="3" type="line"/>
      <point x="1953.5" y="3" type="line"/>
      <point x="1953.5" y="62" type="line"/>
    </contour>
    <contour>
      <point x="488.5" y="1496" type="line"/>
      <point x="488.5" y="1264" type="line"/>
      <point x="528.5" y="1264" type="line"/>
      <point x="528.5" y="1496" type="line"/>
    </contour>
  </outline>
</glyph>
<glyph name="lcaron" format="2">
  <advance width="2048"/>
  <unicode hex="013E"/>
  <outline>
    <contour>
      <point x="196.0" y="62.0" type="line"/>
      <point x="196.0" y="0.0" type="line"/>
      <point x="1854.0" y="0.0" type="line"/>
      <point x="1854.0" y="62.0" type="line"/>
    </contour>
    <contour>
      <point x="1004.0" y="1547.0" type="line"/>
      <point x="1004.0" y="46.0" type="line"/>
      <point x="1062.0" y="46.0" type="line"/>
      <point x="1062.0" y="1547.0" type="line"/>
    </contour>
    <contour>
      <point x="194.0" y="1550.0" type="line"/>
      <point x="194.0" y="1489.0" type="line"/>
      <point x="1018.0" y="1489.0" type="line"/>
      <point x="1018.0" y="1550.0" type="line"/>
    </contour>
    <contour>
      <point x="1142.0" y="1496.0" type="line"/>
      <point x="1142.0" y="1264.0" type="line"/>
      <point x="1194.0" y="1264.0" type="line"/>
      <point x="1194.0" y="1496.0" type="line"/>
    </contour>
  </outline>
</glyph>
<glyph name="Lslash" format="2">
  <advance width="2048"/>
  <unicode hex="0141"/>
  <outline>
    <contour>
      <point x="172.0" y="1542.0" type="line"/>
      <point x="172.0" y="3.0" type="line"/>
      <point x="232.0" y="3.0" type="line"/>
      <point x="232.0" y="1542.0" type="line"/>
    </contour>
    <contour>
      <point x="196.0" y="64.0" type="line"/>
      <point x="196.0" y="3.0" type="line"/>
      <point x="2031.0" y="3.0" type="line"/>
      <point x="2031.0" y="64.0" type="line"/>
    </contour>
    <contour>
      <point x="17.0" y="902.0" type="line"/>
      <point x="97.0" y="866.0" type="line"/>
      <point x="531.0" y="1068.0" type="line"/>
      <point x="451.0" y="1104.0" type="line"/>
    </contour>
  </outline>
</glyph>
<glyph name="lslash" format="2">
  <advance width="2048"/>
  <unicode hex="0142"/>
  <outline>
    <contour>
      <point x="195.0" y="60.0" type="line"/>
      <point x="195.0" y="0.0" type="line"/>
      <point x="1853.0" y="0.0" type="line"/>
      <point x="1853.0" y="60.0" type="line"/>
    </contour>
    <contour>
      <point x="1064.0" y="1553.0" type="line"/>
      <point x="1064.0" y="22.0" type="line"/>
      <point x="1124.0" y="22.0" type="line"/>
      <point x="1124.0" y="1553.0" type="line"/>
    </contour>
    <contour>
      <point x="256.0" y="1553.0" type="line"/>
      <point x="256.0" y="1493.0" type="line"/>
      <point x="1090.0" y="1493.0" type="line"/>
      <point x="1090.0" y="1553.0" type="line"/>
    </contour>
    <contour>
      <point x="1327.0" y="1039.0" type="line"/>
      <point x="748.0" y="702.0" type="line"/>
      <point x="850.0" y="702.0" type="line"/>
      <point x="1429.0" y="1039.0" type="line"/>
    </contour>
  </outline>
</glyph>
<glyph name="Eng" format="2">
  <advance width="1024"/>
  <unicode hex="014A"/>
  <outline>
    <contour>
      <point x="524.0" y="-348.0" type="line"/>
      <point x="524.0" y="-408.0" type="line"/>
      <point x="911.0" y="-408.0" type="line"/>
      <point x="911.0" y="-348.0" type="line"/>
    </contour>
    <contour>
      <point x="185.0" y="1490.0" type="line"/>
      <point x="185.0" y="0.0" type="line"/>
      <point x="245.0" y="0.0" type="line"/>
      <point x="245.0" y="1490.0" type="line"/>
    </contour>
    <contour>
      <point x="852.0" y="1506.0" type="line"/>
      <point x="852.0" y="-408.0" type="line"/>
      <point x="912.0" y="-408.0" type="line"/>
      <point x="912.0" y="1506.0" type="line"/>
    </contour>
    <contour>
      <point x="112.0" y="1550.0" type="line"/>
      <point x="112.0" y="1490.0" type="line"/>
      <point x="911.0" y="1490.0" type="line"/>
      <point x="911.0" y="1550.0" type="line"/>
    </contour>
  </outline>
</glyph>
<glyph name="eng" format="2">
  <advance width="2048"/>
  <unicode hex="014B"/>
  <anchor x="1040" y="1211" name="top"/>
  <anchor x="1082" y="-439" name="base"/>
  <outline>
    <contour>
      <point x="1480" y="-348" type="line"/>
      <point x="1480" y="-408" type="line"/>
      <point x="1867" y="-408" type="line"/>
      <point x="1867" y="-348" type="line"/>
    </contour>
    <contour>
      <point x="244" y="990" type="line"/>
      <point x="244" y="0" type="line"/>
      <point x="304" y="0" type="line"/>
      <point x="304" y="990" type="line"/>
    </contour>
    <contour>
      <point x="1808" y="976" type="line"/>
      <point x="1808" y="-408" type="line"/>
      <point x="1868" y="-408" type="line"/>
      <point x="1868" y="976" type="line"/>
    </contour>
    <contour>
      <point x="65" y="1023" type="line"/>
      <point x="65" y="963" type="line"/>
      <point x="1867" y="963" type="line"/>
      <point x="1867" y="1023" type="line"/>
    </contour>
  </outline>
</glyph>
<glyph name="OE" format="2">
	<unicode hex="0152"/>
	<advance width="2048"/>
	<outline>
		<contour>
			<point x="123" y="1553" type="line"/>
			<point x="123" y="0" type="line"/>
			<point x="182" y="0" type="line"/>
			<point x="182" y="1553" type="line"/>
		</contour>
		<contour>
			<point x="1099" y="1553" type="line"/>
			<point x="1099" y="0" type="line"/>
			<point x="1158" y="0" type="line"/>
			<point x="1158" y="1553" type="line"/>
		</contour>
		<contour>
			<point x="161" y="1553" type="line"/>
			<point x="161" y="1493" type="line"/>
			<point x="1917" y="1493" type="line"/>
			<point x="1917" y="1553" type="line"/>
		</contour>
		<contour>
			<point x="163" y="61" type="line"/>
			<point x="163" y="0" type="line"/>
			<point x="1925" y="0" type="line"/>
			<point x="1925" y="61" type="line"/>
		</contour>
		<contour>
			<point x="1131" y="859" type="line"/>
			<point x="1131" y="798" type="line"/>
			<point x="1866" y="798" type="line"/>
			<point x="1866" y="859" type="line"/>
		</contour>
	</outline>
</glyph>
<glyph name="oe" format="2">
  <advance width="2048"/>
  <unicode hex="0153"/>
  <outline>
    <contour>
      <point x="1099.0" y="506.0" type="line"/>
      <point x="1099.0" y="446.0" type="line"/>
      <point x="1911.0" y="446.0" type="line"/>
      <point x="1911.0" y="506.0" type="line"/>
    </contour>
    <contour>
      <point x="1886.0" y="1023.0" type="line"/>
      <point x="1886.0" y="445.0" type="line"/>
      <point x="1945.0" y="445.0" type="line"/>
      <point x="1945.0" y="1023.0" type="line"/>
    </contour>
    <contour>
      <point x="93.0" y="1023.0" type="line"/>
      <point x="93.0" y="0.0" type="line"/>
      <point x="152.0" y="0.0" type="line"/>
      <point x="152.0" y="1023.0" type="line"/>
    </contour>
    <contour>
      <point x="1060.0" y="1023.0" type="line"/>
      <point x="1060.0" y="0.0" type="line"/>
      <point x="1121.0" y="0.0" type="line"/>
      <point x="1121.0" y="1023.0" type="line"/>
    </contour>
    <contour>
      <point x="148.0" y="1023.0" type="line"/>
      <point x="148.0" y="964.0" type="line"/>
      <point x="1946.0" y="964.0" type="line"/>
      <point x="1946.0" y="1023.0" type="line"/>
    </contour>
    <contour>
      <point x="139.0" y="62.0" type="line"/>
      <point x="139.0" y="0.0" type="line"/>
      <point x="1955.0" y="0.0" type="line"/>
      <point x="1955.0" y="62.0" type="line"/>
    </contour>
  </outline>
</glyph>
<glyph name="tcaron" format="2">
  <advance width="2048"/>
  <unicode hex="0165"/>
  <outline>
    <contour>
      <point x="976.0" y="1529.0" type="line"/>
      <point x="976.0" y="0.0" type="line"/>
      <point x="1036.0" y="0.0" type="line"/>
      <point x="1036.0" y="1529.0" type="line"/>
    </contour>
    <contour>
      <point x="988.0" y="60.0" type="line"/>
      <point x="988.0" y="0.0" type="line"/>
      <point x="1892.0" y="0.0" type="line"/>
      <point x="1892.0" y="60.0" type="line"/>
    </contour>
    <contour>
      <point x="156.0" y="1023.0" type="line"/>
      <point x="156.0" y="965.0" type="line"/>
      <point x="1854.0" y="965.0" type="line"/>
      <point x="1854.0" y="1023.0" type="line"/>
    </contour>
    <contour>
      <point x="1166.0" y="1496.0" type="line"/>
      <point x="1166.0" y="1317.0" type="line"/>
      <point x="1228.0" y="1317.0" type="line"/>
      <point x="1228.0" y="1496.0" type="line"/>
    </contour>
  </outline>
</glyph>
<glyph name="longs" format="2">
  <advance width="2048"/>
  <unicode hex="017F"/>
  <outline>
    <contour>
      <point x="76" y="1084" type="line"/>
      <point x="76" y="1023" type="line"/>
      <point x="327" y="1023" type="line"/>
      <point x="327" y="1084" type="line"/>
    </contour>
    <contour>
      <point x="261" y="1550" type="line"/>
      <point x="261" y="0" type="line"/>
      <point x="325" y="0" type="line"/>
      <point x="325" y="1550" type="line"/>
    </contour>
    <contour>
      <point x="313" y="1550" type="line"/>
      <point x="313" y="1488" type="line"/>
      <point x="1944" y="1488" type="line"/>
      <point x="1944" y="1550" type="line"/>
    </contour>
  </outline>
</glyph>
<glyph name="Btopbar" format="2">
  <advance width="2048"/>
  <unicode hex="0182"/>
  <anchor x="554" y="1637" name="top"/>
  <anchor x="574" y="-27" name="base"/>
  <outline>
    <contour>
      <point x="114" y="0" type="line"/>
      <point x="171" y="0" type="line"/>
      <point x="171" y="1553" type="line"/>
      <point x="114" y="1553" type="line"/>
    </contour>
    <contour>
      <point x="1065" y="62" type="line"/>
      <point x="1065" y="0" type="line"/>
      <point x="1933" y="434" type="line"/>
      <point x="1933" y="500" type="line"/>
    </contour>
    <contour>
      <point x="1069" y="719" type="line"/>
      <point x="1934" y="430" type="line"/>
      <point x="1934" y="501" type="line"/>
      <point x="1069" y="781" type="line"/>
    </contour>
    <contour>
      <point x="159" y="781" type="line"/>
      <point x="159" y="721" type="line"/>
      <point x="1069" y="721" type="line"/>
      <point x="1069" y="781" type="line"/>
    </contour>
    <contour>
      <point x="155" y="62" type="line"/>
      <point x="155" y="0" type="line"/>
      <point x="1065" y="0" type="line"/>
      <point x="1065" y="62" type="line"/>
    </contour>
    <contour>
      <point x="150" y="1553" type="line"/>
      <point x="150" y="1494" type="line"/>
      <point x="1933" y="1494" type="line"/>
      <point x="1933" y="1553" type="line"/>
    </contour>
  </outline>
</glyph>
<glyph name="uni018F" format="2">
  <advance width="2048"/>
  <unicode hex="018F"/>
  <anchor x="980" y="1614" name="top"/>
  <anchor x="1026" y="-101" name="base"/>
  <outline>
    <contour>
      <point x="1828" y="0" type="line"/>
      <point x="1828" y="60" type="line"/>
      <point x="265" y="60" type="line"/>
      <point x="265" y="0" type="line"/>
    </contour>
    <contour>
      <point x="1862" y="0" type="line"/>
      <point x="1862" y="1543" type="line"/>
      <point x="1802" y="1543" type="line"/>
      <point x="1802" y="0" type="line"/>
    </contour>
    <contour>
      <point x="1809" y="1483" type="line"/>
      <point x="1809" y="1543" type="line"/>
      <point x="170" y="1543" type="line"/>
      <point x="170" y="1483" type="line"/>
    </contour>
    <contour>
      <point x="1808" y="808" type="line"/>
      <point x="1808" y="868" type="line"/>
      <point x="130" y="868" type="line"/>
      <point x="130" y="808" type="line"/>
    </contour>
    <contour>
      <point x="327" y="30" type="line"/>
      <point x="167" y="869" type="line"/>
      <point x="107" y="869" type="line"/>
      <point x="267" y="30" type="line"/>
    </contour>
  </outline>
</glyph>
<glyph name="uni0190" format="2">
  <advance width="2048"/>
  <unicode hex="0190"/>
  <anchor x="1008" y="-125" name="base"/>
  <anchor x="1040" y="1641" name="top"/>
  <outline>
    <contour>
      <point x="103" y="1542" type="line"/>
      <point x="306" y="860" type="line"/>
      <point x="366" y="859" type="line"/>
      <point x="163" y="1541" type="line"/>
    </contour>
    <contour>
      <point x="146" y="1541" type="line"/>
      <point x="146" y="1481" type="line"/>
      <point x="1924" y="1481" type="line"/>
      <point x="1924" y="1541" type="line"/>
    </contour>
    <contour>
      <point x="158" y="60" type="line"/>
      <point x="158" y="0" type="line"/>
      <point x="1940" y="0" type="line"/>
      <point x="1940" y="60" type="line"/>
    </contour>
    <contour>
      <point x="366" y="861" type="line"/>
      <point x="366" y="801" type="line"/>
      <point x="1181" y="801" type="line"/>
      <point x="1181" y="861" type="line"/>
    </contour>
    <contour>
      <point x="307" y="804" type="line"/>
      <point x="103" y="0" type="line"/>
      <point x="164" y="0" type="line"/>
      <point x="367" y="803" type="line"/>
    </contour>
  </outline>
</glyph>
<glyph name="uni0192" format="2">
  <advance width="2048"/>
  <unicode hex="0192"/>
  <outline>
    <contour>
      <point x="974.0" y="1023.0" type="line"/>
      <point x="974.0" y="-406.0" type="line"/>
      <point x="1036.0" y="-406.0" type="line"/>
      <point x="1036.0" y="1023.0" type="line"/>
    </contour>
    <contour>
      <point x="1002.0" y="1023.0" type="line"/>
      <point x="1002.0" y="966.0" type="line"/>
      <point x="1794.0" y="966.0" type="line"/>
      <point x="1794.0" y="1023.0" type="line"/>
    </contour>
    <contour>
      <point x="316.0" y="559.0" type="line"/>
      <point x="316.0" y="500.0" type="line"/>
      <point x="1534.0" y="500.0" type="line"/>
      <point x="1534.0" y="559.0" type="line"/>
    </contour>
    <contour>
      <point x="254.0" y="-345.0" type="line"/>
      <point x="254.0" y="-406.0" type="line"/>
      <point x="1028.0" y="-406.0" type="line"/>
      <point x="1028.0" y="-345.0" type="line"/>
    </contour>
  </outline>
</glyph>
<glyph name="Gamma-latin" format="2">
  <advance width="2048"/>
  <unicode hex="0194"/>
  <outline>
    <contour>
      <point x="221" y="1543" type="line"/>
      <point x="1464" y="-158" type="line"/>
      <point x="1524" y="-158" type="line"/>
      <point x="281" y="1543" type="line"/>
    </contour>
    <contour>
      <point x="1754" y="1543" type="line"/>
      <point x="730" y="-158" type="line"/>
      <point x="790" y="-158" type="line"/>
      <point x="1815" y="1543" type="line"/>
    </contour>
    <contour>
      <point x="731" y="-217" type="line"/>
      <point x="1525" y="-218" type="line"/>
      <point x="1525" y="-158" type="line"/>
      <point x="731" y="-158" type="line"/>
    </contour>
  </outline>
</glyph>
<glyph name="uni0198" format="2">
  <advance width="2048"/>
  <unicode hex="0198"/>
  <outline>
    <contour>
      <point x="166" y="1553" type="line"/>
      <point x="166" y="5" type="line"/>
      <point x="226" y="5" type="line"/>
      <point x="226" y="1553" type="line"/>
    </contour>
    <contour>
      <point x="224" y="1015" type="line"/>
      <point x="224" y="944" type="line"/>
      <point x="1762" y="1550" type="line"/>
      <point x="1692" y="1550" type="line"/>
    </contour>
    <contour>
      <point x="224" y="934" type="line"/>
      <point x="204" y="844" type="line"/>
      <point x="1746" y="0" type="line"/>
      <point x="1796" y="0" type="line"/>
    </contour>
    <contour>
      <point x="2053" y="1706" type="line"/>
      <point x="2009" y="1776" type="line"/>
      <point x="1811" y="1661" type="line"/>
      <point x="1854" y="1591" type="line"/>
    </contour>
    <contour>
      <point x="1892" y="1648" type="line"/>
      <point x="1842" y="1680" type="line"/>
      <point x="1693" y="1550" type="line"/>
      <point x="1757" y="1550" type="line"/>
    </contour>
  </outline>
</glyph>
<glyph name="Mturned" format="2">
  <advance width="2048"/>
  <unicode hex="019C"/>
  <anchor x="1062" y="-96" name="base"/>
  <anchor x="1076" y="1078" name="top"/>
  <outline>
    <contour>
      <point x="1714" y="30" type="line"/>
      <point x="1714" y="1546" type="line"/>
      <point x="1654" y="1546" type="line"/>
      <point x="1654" y="30" type="line"/>
    </contour>
    <contour>
      <point x="1018" y="51" type="line"/>
      <point x="1018" y="1546" type="line"/>
      <point x="958" y="1546" type="line"/>
      <point x="958" y="51" type="line"/>
    </contour>
    <contour>
      <point x="120" y="47" type="line"/>
      <point x="120" y="1546" type="line"/>
      <point x="60" y="1546" type="line"/>
      <point x="60" y="47" type="line"/>
    </contour>
    <contour>
      <point x="1988" y="0" type="line"/>
      <point x="1988" y="57" type="line"/>
      <point x="60" y="57" type="line"/>
      <point x="60" y="0" type="line"/>
    </contour>
  </outline>
</glyph>
<glyph name="Phook" format="2">
  <advance width="2048"/>
  <unicode hex="01A4"/>
  <anchor x="1436" y="-76" name="base"/>
  <anchor x="1187" y="1651" name="top"/>
  <anchor x="243.80065319246785" y="1189.9286072629218" name="_top"/>
  <outline>
    <contour>
      <point x="333" y="1535" type="line"/>
      <point x="333" y="0" type="line"/>
      <point x="392" y="0" type="line"/>
      <point x="392" y="1535" type="line"/>
    </contour>
    <contour>
      <point x="332" y="1550" type="line"/>
      <point x="332" y="1472" type="line"/>
      <point x="2042" y="1472" type="line"/>
      <point x="2042" y="1550" type="line"/>
    </contour>
    <contour>
      <point x="1981" y="1536" type="line"/>
      <point x="1981" y="872" type="line"/>
      <point x="2042" y="872" type="line"/>
      <point x="2042" y="1536" type="line"/>
    </contour>
    <contour>
      <point x="377" y="931" type="line"/>
      <point x="377" y="871" type="line"/>
      <point x="2015" y="871" type="line"/>
      <point x="2015" y="931" type="line"/>
    </contour>
    <contour>
      <point x="55" y="1396" type="line"/>
      <point x="222" y="1403" type="line"/>
      <point x="222" y="1551" type="line"/>
      <point x="55" y="1544" type="line"/>
    </contour>
    <contour>
      <point x="130" y="1482" type="line"/>
      <point x="323" y="1448" type="line"/>
      <point x="391" y="1543" type="line"/>
      <point x="197" y="1543" type="line"/>
    </contour>
  </outline>
</glyph>
<glyph name="Thook" format="2">
  <advance width="2048"/>
  <unicode hex="01AC"/>
  <anchor x="1208" y="1654" name="top"/>
  <anchor x="1192" y="-62" name="base"/>
  <outline>
    <contour>
      <point x="228" y="1553" type="line"/>
      <point x="228" y="1494" type="line"/>
      <point x="2036" y="1494" type="line"/>
      <point x="2036" y="1553" type="line"/>
    </contour>
    <contour>
      <point x="1099" y="1512" type="line"/>
      <point x="1099" y="12" type="line"/>
      <point x="1159" y="12" type="line"/>
      <point x="1159" y="1512" type="line"/>
    </contour>
    <contour>
      <point x="555.7768584" y="1557.55526976" type="line"/>
      <point x="136.7873334" y="1554.56372708" type="line"/>
      <point x="137.2157166" y="1494.5652270799999" type="line"/>
      <point x="554.2052916" y="1497.54249032" type="line"/>
    </contour>
    <contour>
      <point x="136.7873334" y="1554.56372708" type="line"/>
      <point x="138.90069052" y="1258.57112708" type="line"/>
      <point x="198.89919052000002" y="1258.9995102799999" type="line"/>
      <point x="196.7858334" y="1554.99211028" type="line"/>
    </contour>
  </outline>
</glyph>
<glyph name="thook" format="2">
  <advance width="2048"/>
  <unicode hex="01AD"/>
  <anchor x="1012" y="1642" name="top"/>
  <anchor x="1020" y="-130" name="base"/>
  <outline>
    <contour>
      <point x="976" y="1529" type="line"/>
      <point x="976" y="0" type="line"/>
      <point x="1036" y="0" type="line"/>
      <point x="1036" y="1529" type="line"/>
    </contour>
    <contour>
      <point x="988" y="60" type="line"/>
      <point x="988" y="0" type="line"/>
      <point x="1892" y="0" type="line"/>
      <point x="1892" y="60" type="line"/>
    </contour>
    <contour>
      <point x="156" y="1023" type="line"/>
      <point x="156" y="965" type="line"/>
      <point x="1854" y="965" type="line"/>
      <point x="1854" y="1023" type="line"/>
    </contour>
    <contour>
      <point x="1392.60252" y="1546.4162992" type="line"/>
      <point x="973.634364" y="1541.2448336" type="line"/>
      <point x="974.374908" y="1481.2493936" type="line"/>
      <point x="1391.343216" y="1486.3961744" type="line"/>
    </contour>
    <contour>
      <point x="973.634364" y="1541.2448336" type="line"/>
      <point x="977.2877143999999" y="1245.2673296" type="line"/>
      <point x="1037.2831544" y="1246.0078736" type="line"/>
      <point x="1033.629804" y="1541.9853776" type="line"/>
    </contour>
  </outline>
</glyph>
<glyph name="Tretroflexhook" format="2">
  <advance width="2048"/>
  <unicode hex="01AE"/>
  <anchor x="1100" y="1654" name="top"/>
  <anchor x="1084" y="-62" name="base"/>
  <outline>
    <contour>
      <point x="120" y="1553" type="line"/>
      <point x="120" y="1494" type="line"/>
      <point x="1928" y="1494" type="line"/>
      <point x="1928" y="1553" type="line"/>
    </contour>
    <contour>
      <point x="991" y="1512" type="line"/>
      <point x="991" y="12" type="line"/>
      <point x="1051" y="12" type="line"/>
      <point x="1051" y="1512" type="line"/>
    </contour>
    <contour>
      <point x="998" y="227" type="line"/>
      <point x="998" y="-192" type="line"/>
      <point x="1058" y="-192" type="line"/>
      <point x="1058" y="225" type="line"/>
    </contour>
    <contour>
      <point x="998" y="-192" type="line"/>
      <point x="1294" y="-192" type="line"/>
      <point x="1294" y="-132" type="line"/>
      <point x="998" y="-132" type="line"/>
    </contour>
  </outline>
</glyph>
<glyph name="Upsilon_latin" format="2">
  <advance width="2048"/>
  <unicode hex="01B1"/>
  <anchor x="968" y="1630" name="top"/>
  <outline>
    <contour>
      <point x="812" y="1455" type="line"/>
      <point x="255" y="0" type="line"/>
      <point x="315" y="0" type="line"/>
      <point x="872" y="1455" type="line"/>
    </contour>
    <contour>
      <point x="1251" y="1455" type="line"/>
      <point x="1741" y="0" type="line"/>
      <point x="1801" y="0" type="line"/>
      <point x="1311" y="1455" type="line"/>
    </contour>
    <contour>
      <point x="313" y="56" type="line"/>
      <point x="313" y="0" type="line"/>
      <point x="1740" y="0" type="line"/>
      <point x="1740" y="63" type="line"/>
    </contour>
    <contour>
      <point x="1287" y="1455" type="line"/>
      <point x="1291" y="1395" type="line"/>
      <point x="2034" y="1395" type="line"/>
      <point x="2030" y="1455" type="line"/>
    </contour>
    <contour>
      <point x="89" y="1455" type="line"/>
      <point x="88" y="1395" type="line"/>
      <point x="823" y="1395" type="line"/>
      <point x="824" y="1455" type="line"/>
    </contour>
  </outline>
</glyph>
<glyph name="Vhook" format="2">
  <advance width="2048"/>
  <unicode hex="01B2"/>
  <anchor x="1028" y="1118" name="top"/>
  <anchor x="1008" y="-74" name="base"/>
  <outline>
    <contour>
      <point x="104" y="1623" type="line"/>
      <point x="104" y="0" type="line"/>
      <point x="160" y="0" type="line"/>
      <point x="160" y="1623" type="line"/>
    </contour>
    <contour>
      <point x="1884" y="1623" type="line"/>
      <point x="1884" y="0" type="line"/>
      <point x="1946" y="0" type="line"/>
      <point x="1946" y="1623" type="line"/>
    </contour>
    <contour>
      <point x="1470" y="1623" type="line"/>
      <point x="1470" y="1567" type="line"/>
      <point x="1889" y="1567" type="line"/>
      <point x="1889" y="1623" type="line"/>
    </contour>
    <contour>
      <point x="150" y="62" type="line"/>
      <point x="150" y="0" type="line"/>
      <point x="1892" y="0" type="line"/>
      <point x="1892" y="62" type="line"/>
    </contour>
  </outline>
</glyph>
<glyph name="uni01B7" format="2">
  <advance width="2048"/>
  <unicode hex="01B7"/>
  <outline>
    <contour>
      <point x="1884" y="0" type="line"/>
      <point x="1884" y="60" type="line"/>
      <point x="164" y="60" type="line"/>
      <point x="164" y="0" type="line"/>
    </contour>
    <contour>
      <point x="1882" y="39" type="line"/>
      <point x="1886" y="889" type="line"/>
      <point x="1825" y="889" type="line"/>
      <point x="1821" y="39" type="line"/>
    </contour>
    <contour>
      <point x="1837" y="829" type="line"/>
      <point x="1837" y="889" type="line"/>
      <point x="174" y="889" type="line"/>
      <point x="174" y="829" type="line"/>
    </contour>
    <contour>
      <point x="121" y="1544" type="line"/>
      <point x="121" y="1484" type="line"/>
      <point x="1973" y="1484" type="line"/>
      <point x="1973" y="1544" type="line"/>
    </contour>
    <contour>
      <point x="1810" y="1484" type="line"/>
      <point x="169" y="889" type="line"/>
      <point x="392" y="889" type="line"/>
      <point x="1973" y="1484" type="line"/>
    </contour>
  </outline>
</glyph>
<glyph name="uni01B8" format="2">
  <advance width="2048"/>
  <unicode hex="01B8"/>
  <outline>
    <contour>
      <point x="210" y="0" type="line"/>
      <point x="1930" y="0" type="line"/>
      <point x="1930" y="60" type="line"/>
      <point x="210" y="60" type="line"/>
    </contour>
    <contour>
      <point x="212" y="39" type="line"/>
      <point x="273" y="39" type="line"/>
      <point x="269" y="889" type="line"/>
      <point x="208" y="889" type="line"/>
    </contour>
    <contour>
      <point x="257" y="829" type="line"/>
      <point x="1920" y="829" type="line"/>
      <point x="1920" y="889" type="line"/>
      <point x="257" y="889" type="line"/>
    </contour>
    <contour>
      <point x="1973" y="1544" type="line"/>
      <point x="121" y="1544" type="line"/>
      <point x="121" y="1484" type="line"/>
      <point x="1973" y="1484" type="line"/>
    </contour>
    <contour>
      <point x="284" y="1484" type="line"/>
      <point x="121" y="1484" type="line"/>
      <point x="1702" y="889" type="line"/>
      <point x="1925" y="889" type="line"/>
    </contour>
  </outline>
</glyph>
<glyph name="ezhreversed" format="2">
  <advance width="2048"/>
  <unicode hex="01B9"/>
  <outline>
    <contour>
      <point x="210" y="0" type="line"/>
      <point x="1930" y="0" type="line"/>
      <point x="1930" y="60" type="line"/>
      <point x="210" y="60" type="line"/>
    </contour>
    <contour>
      <point x="212" y="39" type="line"/>
      <point x="273" y="39" type="line"/>
      <point x="269" y="619" type="line"/>
      <point x="208" y="619" type="line"/>
    </contour>
    <contour>
      <point x="257" y="559" type="line"/>
      <point x="1920" y="559" type="line"/>
      <point x="1920" y="619" type="line"/>
      <point x="257" y="619" type="line"/>
    </contour>
    <contour>
      <point x="1973" y="1274" type="line"/>
      <point x="121" y="1274" type="line"/>
      <point x="121" y="1214" type="line"/>
      <point x="1973" y="1214" type="line"/>
    </contour>
    <contour>
      <point x="284" y="1214" type="line"/>
      <point x="121" y="1214" type="line"/>
      <point x="1702" y="619" type="line"/>
      <point x="1925" y="619" type="line"/>
    </contour>
  </outline>
</glyph>
<glyph name="uni021C" format="2">
  <advance width="2048"/>
  <unicode hex="021C"/>
  <outline>
    <contour>
      <point x="101" y="502" type="line"/>
      <point x="1927" y="736" type="line"/>
      <point x="1927" y="52" type="line"/>
      <point x="59" y="-182" type="line"/>
      <point x="68" y="-242" type="line"/>
      <point x="1987" y="-8" type="line"/>
      <point x="1987" y="1550" type="line"/>
      <point x="89" y="1365" type="line"/>
      <point x="89" y="1308" type="line"/>
      <point x="1925" y="1493" type="line"/>
      <point x="1925" y="796" type="line"/>
      <point x="101" y="562" type="line"/>
    </contour>
  </outline>
</glyph>
<glyph name="dcurl" format="2">
  <advance width="2048"/>
  <unicode hex="0221"/>
  <anchor x="974" y="-88" name="base"/>
  <anchor x="1840" y="1690" name="top"/>
  <outline>
    <contour>
      <point x="1181" y="1546" type="line"/>
      <point x="1181" y="-4" type="line"/>
      <point x="1241" y="-4" type="line"/>
      <point x="1241" y="1546" type="line"/>
    </contour>
    <contour>
      <point x="102" y="1026" type="line"/>
      <point x="102" y="966" type="line"/>
      <point x="1238" y="966" type="line"/>
      <point x="1238" y="1026" type="line"/>
    </contour>
    <contour>
      <point x="58" y="1023" type="line"/>
      <point x="58" y="0" type="line"/>
      <point x="118" y="0" type="line"/>
      <point x="118" y="1023" type="line"/>
    </contour>
    <contour>
      <point x="98" y="59" type="line"/>
      <point x="98" y="-4" type="line"/>
      <point x="1898" y="-4" type="line"/>
      <point x="1898" y="59" type="line"/>
    </contour>
    <contour>
      <point x="1300" y="-122" type="line"/>
      <point x="1399" y="-96" type="line"/>
      <point x="1838" y="409" type="line"/>
      <point x="1838" y="495" type="line"/>
    </contour>
    <contour>
      <point x="1838" y="495" type="line"/>
      <point x="1839" y="4" type="line"/>
      <point x="1899" y="0" type="line"/>
      <point x="1898" y="491" type="line"/>
    </contour>
  </outline>
</glyph>
<glyph name="uni0222" format="2">
  <advance width="2048"/>
  <unicode hex="0222"/>
  <outline>
    <contour>
      <point x="115" y="1552" type="line"/>
      <point x="115" y="692" type="line"/>
      <point x="175" y="692" type="line"/>
      <point x="175" y="1552" type="line"/>
    </contour>
    <contour>
      <point x="1891" y="1552" type="line"/>
      <point x="1888" y="696" type="line"/>
      <point x="1948" y="696" type="line"/>
      <point x="1951" y="1552" type="line"/>
    </contour>
    <contour>
      <point x="102" y="637" type="line"/>
      <point x="100" y="581" type="line"/>
      <point x="1968" y="578" type="line"/>
      <point x="1966" y="641" type="line"/>
    </contour>
    <contour>
      <point x="102" y="637" type="line"/>
      <point x="95" y="24" type="line"/>
      <point x="158" y="24" type="line"/>
      <point x="158" y="637" type="line"/>
    </contour>
    <contour>
      <point x="1908" y="638" type="line"/>
      <point x="1914" y="0" type="line"/>
      <point x="1975" y="3" type="line"/>
      <point x="1966" y="641" type="line"/>
    </contour>
    <contour>
      <point x="94" y="60" type="line"/>
      <point x="92" y="0" type="line"/>
      <point x="1966" y="0" type="line"/>
      <point x="1966" y="60" type="line"/>
    </contour>
    <contour>
      <point x="1966" y="636" type="line"/>
      <point x="113" y="782" type="line"/>
      <point x="117" y="691" type="line"/>
      <point x="1968" y="578" type="line"/>
    </contour>
    <contour>
      <point x="101" y="581" type="line"/>
      <point x="1948" y="696" type="line"/>
      <point x="1943" y="778" type="line"/>
      <point x="102" y="633" type="line"/>
    </contour>
    <contour>
      <point x="793" y="1551" type="line"/>
      <point x="122" y="1549" type="line"/>
      <point x="120" y="1493" type="line"/>
      <point x="797" y="1492" type="line"/>
    </contour>
    <contour>
      <point x="1268" y="1492" type="line"/>
      <point x="1952" y="1490" type="line"/>
      <point x="1950" y="1553" type="line"/>
      <point x="1264" y="1551" type="line"/>
    </contour>
  </outline>
</glyph>
<glyph name="uni0222" format="2">
  <advance width="2048"/>
  <unicode hex="0222"/>
  <outline>
    <contour>
      <point x="107" y="1548" type="line"/>
      <point x="105" y="838" type="line"/>
      <point x="165" y="838" type="line"/>
      <point x="167" y="1548" type="line"/>
    </contour>
    <contour>
      <point x="1880" y="1548" type="line"/>
      <point x="1878" y="842" type="line"/>
      <point x="1938" y="842" type="line"/>
      <point x="1940" y="1548" type="line"/>
    </contour>
    <contour>
      <point x="92" y="779" type="line"/>
      <point x="90" y="722" type="line"/>
      <point x="1958" y="719" type="line"/>
      <point x="1956" y="783" type="line"/>
    </contour>
    <contour>
      <point x="92" y="779" type="line"/>
      <point x="85" y="24" type="line"/>
      <point x="149" y="24" type="line"/>
      <point x="149" y="779" type="line"/>
    </contour>
    <contour>
      <point x="1897" y="780" type="line"/>
      <point x="1903" y="0" type="line"/>
      <point x="1965" y="3" type="line"/>
      <point x="1956" y="783" type="line"/>
    </contour>
    <contour>
      <point x="84" y="60" type="line"/>
      <point x="82" y="0" type="line"/>
      <point x="1956" y="0" type="line"/>
      <point x="1956" y="60" type="line"/>
    </contour>
    <contour>
      <point x="1956" y="783" type="line"/>
      <point x="103" y="929" type="line"/>
      <point x="107" y="837" type="line"/>
      <point x="1958" y="719" type="line"/>
    </contour>
    <contour>
      <point x="91" y="722" type="line"/>
      <point x="1938" y="842" type="line"/>
      <point x="1933" y="925" type="line"/>
      <point x="92" y="780" type="line"/>
    </contour>
    <contour>
      <point x="655" y="1548" type="line"/>
      <point x="107" y="1548" type="line"/>
      <point x="106" y="1489" type="line"/>
      <point x="657" y="1488" type="line"/>
    </contour>
    <contour>
      <point x="1392" y="1487" type="line"/>
      <point x="1939" y="1486" type="line"/>
      <point x="1940" y="1548" type="line"/>
      <point x="1390" y="1546" type="line"/>
    </contour>
  </outline>
</glyph>
<glyph name="uni0223" format="2">
  <advance width="2048"/>
  <unicode hex="0223"/>
  <outline>
    <contour>
      <point x="115" y="1552" type="line"/>
      <point x="115" y="840" type="line"/>
      <point x="175" y="840" type="line"/>
      <point x="175" y="1552" type="line"/>
    </contour>
    <contour>
      <point x="1891" y="1552" type="line"/>
      <point x="1888" y="844" type="line"/>
      <point x="1948" y="844" type="line"/>
      <point x="1951" y="1552" type="line"/>
    </contour>
    <contour>
      <point x="102" y="779" type="line"/>
      <point x="100" y="723" type="line"/>
      <point x="1968" y="720" type="line"/>
      <point x="1966" y="783" type="line"/>
    </contour>
    <contour>
      <point x="102" y="779" type="line"/>
      <point x="95" y="24" type="line"/>
      <point x="159" y="24" type="line"/>
      <point x="159" y="779" type="line"/>
    </contour>
    <contour>
      <point x="1907" y="780" type="line"/>
      <point x="1913" y="0" type="line"/>
      <point x="1975" y="3" type="line"/>
      <point x="1966" y="783" type="line"/>
    </contour>
    <contour>
      <point x="94" y="60" type="line"/>
      <point x="92" y="0" type="line"/>
      <point x="1966" y="0" type="line"/>
      <point x="1966" y="60" type="line"/>
    </contour>
    <contour>
      <point x="1966" y="783" type="line"/>
      <point x="113" y="908" type="line"/>
      <point x="117" y="839" type="line"/>
      <point x="1968" y="720" type="line"/>
    </contour>
    <contour>
      <point x="101" y="723" type="line"/>
      <point x="1948" y="844" type="line"/>
      <point x="1943" y="904" type="line"/>
      <point x="102" y="780" type="line"/>
    </contour>
  </outline>
</glyph>
<glyph name="lcurl" format="2">
  <advance width="2048"/>
  <unicode hex="0234"/>
  <anchor x="1058" y="-72" name="base"/>
  <anchor x="1048" y="1642" name="top"/>
  <outline>
    <contour>
      <point x="1063" y="129" type="line"/>
      <point x="1063" y="57" type="line"/>
      <point x="1854" y="340" type="line"/>
      <point x="1854" y="412" type="line"/>
    </contour>
    <contour>
      <point x="1006" y="1553" type="line"/>
      <point x="1006" y="57" type="line"/>
      <point x="1063" y="57" type="line"/>
      <point x="1063" y="1553" type="line"/>
    </contour>
    <contour>
      <point x="268" y="1553" type="line"/>
      <point x="268" y="1494" type="line"/>
      <point x="1015" y="1494" type="line"/>
      <point x="1015" y="1553" type="line"/>
    </contour>
    <contour>
      <point x="245" y="222" type="line"/>
      <point x="245" y="150" type="line"/>
      <point x="1858" y="352" type="line"/>
      <point x="1858" y="424" type="line"/>
    </contour>
  </outline>
</glyph>
<glyph name="ncurl" format="2">
  <advance width="2048"/>
  <unicode hex="0235"/>
  <anchor x="1190" y="-64" name="base"/>
  <anchor x="1212" y="1126" name="top"/>
  <outline>
    <contour>
      <point x="394" y="990" type="line"/>
      <point x="394" y="0" type="line"/>
      <point x="455" y="0" type="line"/>
      <point x="455" y="990" type="line"/>
    </contour>
    <contour>
      <point x="1758" y="976" type="line"/>
      <point x="1758" y="0" type="line"/>
      <point x="1818" y="0" type="line"/>
      <point x="1818" y="976" type="line"/>
    </contour>
    <contour>
      <point x="14" y="1027" type="line"/>
      <point x="14" y="967" type="line"/>
      <point x="1816" y="967" type="line"/>
      <point x="1816" y="1027" type="line"/>
    </contour>
    <contour>
      <point x="1027" y="52" type="line"/>
      <point x="1027" y="-8" type="line"/>
      <point x="1960" y="366" type="line"/>
      <point x="1960" y="426" type="line"/>
    </contour>
    <contour>
      <point x="1805" y="61" type="line"/>
      <point x="1805" y="1" type="line"/>
      <point x="2010" y="1" type="line"/>
      <point x="2010" y="61" type="line"/>
    </contour>
    <contour>
      <point x="1959" y="428" type="line"/>
      <point x="1959" y="0" type="line"/>
      <point x="2019" y="0" type="line"/>
      <point x="2019" y="428" type="line"/>
    </contour>
  </outline>
</glyph>
<glyph name="uni0236" format="2">
  <advance width="2048"/>
  <unicode hex="0236"/>
  <anchor x="1012" y="1642" name="top"/>
  <anchor x="1020" y="-130" name="base"/>
  <outline>
    <contour>
      <point x="976" y="1529" type="line"/>
      <point x="976" y="0" type="line"/>
      <point x="1036" y="0" type="line"/>
      <point x="1036" y="1529" type="line"/>
    </contour>
    <contour>
      <point x="988" y="60" type="line"/>
      <point x="988" y="0" type="line"/>
      <point x="1848" y="0" type="line"/>
      <point x="1848" y="60" type="line"/>
    </contour>
    <contour>
      <point x="156" y="1023" type="line"/>
      <point x="156" y="965" type="line"/>
      <point x="1854" y="965" type="line"/>
      <point x="1854" y="1023" type="line"/>
    </contour>
    <contour>
      <point x="653" y="64" type="line"/>
      <point x="653" y="6" type="line"/>
      <point x="1851" y="497" type="line"/>
      <point x="1851" y="555" type="line"/>
    </contour>
    <contour>
      <point x="1851" y="-2" type="line"/>
      <point x="1911" y="-2" type="line"/>
      <point x="1911" y="556" type="line"/>
      <point x="1851" y="556" type="line"/>
    </contour>
  </outline>
</glyph>
<glyph name="uni0237" format="2">
  <advance width="2048"/>
  <unicode hex="0237"/>
  <outline>
    <contour>
      <point x="1792.0" y="1023.0" type="line"/>
      <point x="1792.0" y="-411.0" type="line"/>
      <point x="1850.0" y="-411.0" type="line"/>
      <point x="1850.0" y="1023.0" type="line"/>
    </contour>
    <contour>
      <point x="198.0" y="-348.0" type="line"/>
      <point x="198.0" y="-409.0" type="line"/>
      <point x="1812.0" y="-409.0" type="line"/>
      <point x="1812.0" y="-348.0" type="line"/>
    </contour>
    <contour>
      <point x="198.0" y="-6.0" type="line"/>
      <point x="198.0" y="-378.0" type="line"/>
      <point x="258.0" y="-378.0" type="line"/>
      <point x="258.0" y="-6.0" type="line"/>
    </contour>
  </outline>
</glyph>
<glyph name="uni0250" format="2">
  <advance width="2048"/>
  <unicode hex="0250"/>
  <anchor x="1032" y="-116" name="top"/>
  <anchor x="988" y="1100" name="base"/>
  <outline>
    <contour>
      <point x="1886" y="3" type="line"/>
      <point x="1886" y="69" type="line"/>
      <point x="213" y="69" type="line"/>
      <point x="213" y="3" type="line"/>
    </contour>
    <contour>
      <point x="251" y="3" type="line"/>
      <point x="251" y="1083" type="line"/>
      <point x="174" y="1083" type="line"/>
      <point x="174" y="3" type="line"/>
    </contour>
    <contour>
      <point x="1883" y="426" type="line"/>
      <point x="1883" y="488" type="line"/>
      <point x="235" y="488" type="line"/>
      <point x="235" y="426" type="line"/>
    </contour>
    <contour>
      <point x="1882" y="449" type="line"/>
      <point x="1882" y="1026" type="line"/>
      <point x="1811" y="1026" type="line"/>
      <point x="1811" y="449" type="line"/>
    </contour>
    <contour>
      <point x="1873" y="952" type="line"/>
      <point x="1873" y="1026" type="line"/>
      <point x="185" y="1026" type="line"/>
      <point x="185" y="952" type="line"/>
    </contour>
  </outline>
</glyph>
<glyph name="oopen" format="2">
  <advance width="2048"/>
  <unicode hex="0254"/>
  <anchor x="998" y="-84" name="base"/>
  <anchor x="972" y="1134" name="top"/>
  <outline>
    <contour>
      <point x="1884" y="0" type="line"/>
      <point x="1884" y="60" type="line"/>
      <point x="164" y="60" type="line"/>
      <point x="164" y="0" type="line"/>
    </contour>
    <contour>
      <point x="1882" y="43" type="line"/>
      <point x="1882" y="1027" type="line"/>
      <point x="1822" y="1027" type="line"/>
      <point x="1822" y="43" type="line"/>
    </contour>
    <contour>
      <point x="1834" y="967" type="line"/>
      <point x="1834" y="1027" type="line"/>
      <point x="170" y="1027" type="line"/>
      <point x="170" y="967" type="line"/>
    </contour>
  </outline>
</glyph>
<glyph name="uni0259" format="2">
  <advance width="2048"/>
  <unicode hex="0259"/>
  <outline>
    <contour>
      <point x="1828" y="0" type="line"/>
      <point x="1828" y="107" type="line"/>
      <point x="240" y="174" type="line"/>
      <point x="240" y="67" type="line"/>
    </contour>
    <contour>
      <point x="1878" y="0" type="line"/>
      <point x="1878" y="1023" type="line"/>
      <point x="1777" y="1023" type="line"/>
      <point x="1777" y="0" type="line"/>
    </contour>
    <contour>
      <point x="1776" y="914" type="line"/>
      <point x="1776" y="1023" type="line"/>
      <point x="170" y="1023" type="line"/>
      <point x="170" y="914" type="line"/>
    </contour>
    <contour>
      <point x="1808" y="494" type="line"/>
      <point x="1808" y="577" type="line"/>
      <point x="194" y="577" type="line"/>
      <point x="194" y="494" type="line"/>
    </contour>
    <contour>
      <point x="318" y="97" type="line"/>
      <point x="247" y="578" type="line"/>
      <point x="171" y="578" type="line"/>
      <point x="242" y="97" type="line"/>
    </contour>
  </outline>
</glyph>
<glyph name="eopen" format="2">
  <advance width="2048"/>
  <unicode hex="025B"/>
  <outline>
    <contour>
      <point x="103" y="1140" type="line"/>
      <point x="202" y="599" type="line"/>
      <point x="262" y="598" type="line"/>
      <point x="163" y="1139" type="line"/>
    </contour>
    <contour>
      <point x="146" y="1139" type="line"/>
      <point x="146" y="1079" type="line"/>
      <point x="1924" y="1079" type="line"/>
      <point x="1924" y="1139" type="line"/>
    </contour>
    <contour>
      <point x="158" y="60" type="line"/>
      <point x="158" y="0" type="line"/>
      <point x="1940" y="0" type="line"/>
      <point x="1940" y="60" type="line"/>
    </contour>
    <contour>
      <point x="262" y="600" type="line"/>
      <point x="262" y="540" type="line"/>
      <point x="1181" y="540" type="line"/>
      <point x="1181" y="600" type="line"/>
    </contour>
    <contour>
      <point x="203" y="543" type="line"/>
      <point x="103" y="0" type="line"/>
      <point x="164" y="0" type="line"/>
      <point x="263" y="542" type="line"/>
    </contour>
  </outline>
</glyph>
<glyph name="gamma_latin" format="2">
  <advance width="2048"/>
  <unicode hex="0263"/>
  <outline>
    <contour>
      <point x="221" y="935" type="line"/>
      <point x="1464" y="-158" type="line"/>
      <point x="1524" y="-158" type="line"/>
      <point x="281" y="935" type="line"/>
    </contour>
    <contour>
      <point x="1754" y="965" type="line"/>
      <point x="730" y="-158" type="line"/>
      <point x="790" y="-158" type="line"/>
      <point x="1815" y="965" type="line"/>
    </contour>
    <contour>
      <point x="731" y="-217" type="line"/>
      <point x="1525" y="-218" type="line"/>
      <point x="1525" y="-158" type="line"/>
      <point x="731" y="-158" type="line"/>
    </contour>
  </outline>
</glyph>
<glyph name="ramshorn" format="2">
  <advance width="2048"/>
  <unicode hex="0264"/>
  <outline>
    <contour>
      <point x="221" y="935" type="line"/>
      <point x="1464" y="202" type="line"/>
      <point x="1524" y="202" type="line"/>
      <point x="281" y="935" type="line"/>
    </contour>
    <contour>
      <point x="1754" y="965" type="line"/>
      <point x="730" y="202" type="line"/>
      <point x="790" y="202" type="line"/>
      <point x="1815" y="965" type="line"/>
    </contour>
    <contour>
      <point x="731" y="143" type="line"/>
      <point x="1525" y="142" type="line"/>
      <point x="1525" y="202" type="line"/>
      <point x="731" y="202" type="line"/>
    </contour>
  </outline>
</glyph>
<glyph name="uni026A" format="2">
  <advance width="2048"/>
  <unicode hex="026A"/>
  <anchor x="1094" y="1645" name="top"/>
  <anchor x="1104" y="-78" name="base"/>
  <outline>
    <contour>
      <point x="154" y="1032" type="line"/>
      <point x="154" y="971" type="line"/>
      <point x="1879" y="971" type="line"/>
      <point x="1879" y="1032" type="line"/>
    </contour>
    <contour>
      <point x="1058" y="997" type="line"/>
      <point x="1058" y="34" type="line"/>
      <point x="1117" y="34" type="line"/>
      <point x="1117" y="997" type="line"/>
    </contour>
    <contour>
      <point x="134" y="66" type="line"/>
      <point x="134" y="6" type="line"/>
      <point x="1914" y="6" type="line"/>
      <point x="1914" y="66" type="line"/>
    </contour>
  </outline>
</glyph>
<glyph name="uni026C" format="2">
  <advance width="2048"/>
  <unicode hex="026C"/>
  <anchor x="1058" y="-72" name="base"/>
  <anchor x="1048" y="1642" name="top"/>
  <outline>
    <contour>
      <point x="579" y="675" type="line"/>
      <point x="579" y="615" type="line"/>
      <point x="1398" y="615" type="line"/>
      <point x="1398" y="675" type="line"/>
    </contour>
    <contour>
      <point x="579" y="1026" type="line"/>
      <point x="579" y="615" type="line"/>
      <point x="639" y="615" type="line"/>
      <point x="639" y="1026" type="line"/>
    </contour>
    <contour>
      <point x="579" y="1026" type="line"/>
      <point x="579" y="967" type="line"/>
      <point x="1016" y="967" type="line"/>
      <point x="1016" y="1026" type="line"/>
    </contour>
    <contour>
      <point x="207" y="72" type="line"/>
      <point x="207" y="0" type="line"/>
      <point x="1841" y="0" type="line"/>
      <point x="1841" y="72" type="line"/>
    </contour>
    <contour>
      <point x="1006" y="1553" type="line"/>
      <point x="1006" y="57" type="line"/>
      <point x="1066" y="57" type="line"/>
      <point x="1066" y="1553" type="line"/>
    </contour>
    <contour>
      <point x="268" y="1553" type="line"/>
      <point x="268" y="1494" type="line"/>
      <point x="1015" y="1494" type="line"/>
      <point x="1015" y="1553" type="line"/>
    </contour>
  </outline>
</glyph>
<glyph name="uni027F" format="2">
  <advance width="2048"/>
  <unicode hex="027F"/>
  <anchor x="940" y="1190" name="top"/>
  <anchor x="900" y="-86" name="base"/>
  <outline>
    <contour>
      <point x="146" y="1023" type="line"/>
      <point x="146" y="961" type="line"/>
      <point x="1649" y="961" type="line"/>
      <point x="1649" y="1023" type="line"/>
    </contour>
    <contour>
      <point x="1589" y="1023" type="line"/>
      <point x="1589" y="-458" type="line"/>
      <point x="1649" y="-458" type="line"/>
      <point x="1649" y="1023" type="line"/>
    </contour>
  </outline>
</glyph>
<glyph name="eshsquatreversed" format="2">
  <advance width="2048"/>
  <unicode hex="0285"/>
  <outline>
    <contour>
      <point x="837" y="1001" type="line"/>
      <point x="1005" y="-399" type="line"/>
      <point x="1072" y="-399" type="line"/>
      <point x="904" y="1001" type="line"/>
    </contour>
    <contour>
      <point x="762" y="-349" type="line"/>
      <point x="762" y="-400" type="line"/>
      <point x="1483" y="-400" type="line"/>
      <point x="1483" y="-349" type="line"/>
    </contour>
    <contour>
      <point x="543" y="999" type="line"/>
      <point x="543" y="933" type="line"/>
      <point x="1240" y="932" type="line"/>
      <point x="1240" y="998" type="line"/>
    </contour>
  </outline>
</glyph>
<glyph name="uni0288" format="2">
  <advance width="2048"/>
  <unicode hex="0288"/>
  <anchor x="1012" y="1642" name="top"/>
  <anchor x="1041" y="-535" name="base"/>
  <outline>
    <contour>
      <point x="976" y="1529" type="line"/>
      <point x="976" y="-423" type="line"/>
      <point x="1036" y="-423" type="line"/>
      <point x="1036" y="1529" type="line"/>
    </contour>
    <contour>
      <point x="988" y="-363" type="line"/>
      <point x="988" y="-423" type="line"/>
      <point x="1892" y="-423" type="line"/>
      <point x="1892" y="-363" type="line"/>
    </contour>
    <contour>
      <point x="156" y="1023" type="line"/>
      <point x="156" y="965" type="line"/>
      <point x="1854" y="965" type="line"/>
      <point x="1854" y="1023" type="line"/>
    </contour>
  </outline>
</glyph>
<glyph name="upsilon_latin" format="2">
  <advance width="2048"/>
  <unicode hex="028A"/>
  <anchor x="1028" y="1132" name="top"/>
  <outline>
    <contour>
      <point x="812" y="1023" type="line"/>
      <point x="255" y="0" type="line"/>
      <point x="315" y="0" type="line"/>
      <point x="872" y="1023" type="line"/>
    </contour>
    <contour>
      <point x="1251" y="1023" type="line"/>
      <point x="1741" y="0" type="line"/>
      <point x="1801" y="0" type="line"/>
      <point x="1311" y="1023" type="line"/>
    </contour>
    <contour>
      <point x="313" y="56" type="line"/>
      <point x="313" y="0" type="line"/>
      <point x="1740" y="0" type="line"/>
      <point x="1740" y="63" type="line"/>
    </contour>
    <contour>
      <point x="1287" y="1023" type="line"/>
      <point x="1291" y="963" type="line"/>
      <point x="2034" y="963" type="line"/>
      <point x="2030" y="1023" type="line"/>
    </contour>
    <contour>
      <point x="89" y="1023" type="line"/>
      <point x="88" y="963" type="line"/>
      <point x="823" y="963" type="line"/>
      <point x="824" y="1023" type="line"/>
    </contour>
  </outline>
</glyph>
<glyph name="ezh" format="2">
  <advance width="2048"/>
  <unicode hex="0292"/>
  <outline>
    <contour>
      <point x="1884" y="0" type="line"/>
      <point x="1884" y="60" type="line"/>
      <point x="164" y="60" type="line"/>
      <point x="164" y="0" type="line"/>
    </contour>
    <contour>
      <point x="1882" y="39" type="line"/>
      <point x="1886" y="619" type="line"/>
      <point x="1825" y="619" type="line"/>
      <point x="1821" y="39" type="line"/>
    </contour>
    <contour>
      <point x="1837" y="559" type="line"/>
      <point x="1837" y="619" type="line"/>
      <point x="174" y="619" type="line"/>
      <point x="174" y="559" type="line"/>
    </contour>
    <contour>
      <point x="121" y="1274" type="line"/>
      <point x="121" y="1214" type="line"/>
      <point x="1973" y="1214" type="line"/>
      <point x="1973" y="1274" type="line"/>
    </contour>
    <contour>
      <point x="1810" y="1214" type="line"/>
      <point x="169" y="619" type="line"/>
      <point x="392" y="619" type="line"/>
      <point x="1973" y="1214" type="line"/>
    </contour>
  </outline>
</glyph>
<glyph name="jcrossedtail" format="2">
  <advance width="2048"/>
  <unicode hex="029D"/>
  <anchor x="1786" y="1296" name="top"/>
  <anchor x="1006" y="-520" name="base"/>
  <outline>
    <contour>
      <point x="1792" y="1023" type="line"/>
      <point x="1792" y="-411" type="line"/>
      <point x="1850" y="-411" type="line"/>
      <point x="1850" y="1023" type="line"/>
    </contour>
    <contour>
      <point x="198" y="-348" type="line"/>
      <point x="198" y="-409" type="line"/>
      <point x="1812" y="-409" type="line"/>
      <point x="1812" y="-348" type="line"/>
    </contour>
    <contour>
      <point x="198" y="-6" type="line"/>
      <point x="198" y="-378" type="line"/>
      <point x="258" y="-378" type="line"/>
      <point x="258" y="-6" type="line"/>
    </contour>
    <contour>
      <point x="1790" y="1201" type="line"/>
      <point x="1790" y="1142" type="line"/>
      <point x="1850" y="1142" type="line"/>
      <point x="1850" y="1201" type="line"/>
    </contour>
    <contour>
      <point x="201.055670103093" y="-33" type="line"/>
      <point x="2074.2804123711344" y="-33" type="line"/>
      <point x="2074.2804123711344" y="45" type="line"/>
      <point x="201.055670103093" y="45" type="line"/>
    </contour>
  </outline>
</glyph>
<glyph name="glottalstopmod" format="2">
  <advance width="2048"/>
  <unicode hex="02C0"/>
  <outline>
    <contour>
      <point x="804" y="1543" type="line"/>
      <point x="804" y="1483" type="line"/>
      <point x="1332" y="1483" type="line"/>
      <point x="1332" y="1543" type="line"/>
    </contour>
    <contour>
      <point x="1272" y="1543" type="line"/>
      <point x="1272" y="1028" type="line"/>
      <point x="1332" y="1028" type="line"/>
      <point x="1332" y="1543" type="line"/>
    </contour>
    <contour>
      <point x="872" y="1073" type="line"/>
      <point x="872" y="1013" type="line"/>
      <point x="1332" y="1013" type="line"/>
      <point x="1332" y="1073" type="line"/>
    </contour>
    <contour>
      <point x="859" y="1073" type="line"/>
      <point x="859" y="572" type="line"/>
      <point x="919" y="572" type="line"/>
      <point x="919" y="1073" type="line"/>
    </contour>
  </outline>
</glyph>
<glyph name="circumflex" format="2">
  <advance width="2048"/>
  <unicode hex="02C6"/>
  <outline>
    <contour>
      <point x="1023.0" y="2308.0" type="line"/>
      <point x="987.0" y="2308.0" type="line"/>
      <point x="855.0" y="1998.0" type="line"/>
      <point x="882.0" y="1981.0" type="line"/>
    </contour>
    <contour>
      <point x="990.0" y="2310.0" type="line"/>
      <point x="1152.0" y="1976.0" type="line"/>
      <point x="1193.0" y="1994.0" type="line"/>
      <point x="1027.0" y="2310.0" type="line"/>
    </contour>
  </outline>
</glyph>
<glyph name="caron" format="2">
  <advance width="2048"/>
  <unicode hex="02C7"/>
  <outline>
    <contour>
      <point x="1023.0" y="1102.0" type="line"/>
      <point x="882.0" y="1429.0" type="line"/>
      <point x="855.0" y="1412.0" type="line"/>
      <point x="987.0" y="1102.0" type="line"/>
    </contour>
    <contour>
      <point x="990.0" y="1101.0" type="line"/>
      <point x="1027.0" y="1101.0" type="line"/>
      <point x="1193.0" y="1416.0" type="line"/>
      <point x="1152.0" y="1434.0" type="line"/>
    </contour>
  </outline>
</glyph>
<glyph name="verticallinemod" format="2">
  <advance width="2048"/>
  <unicode hex="02C8"/>
  <outline>
    <contour>
      <point x="988" y="1827" type="line"/>
      <point x="988" y="1029" type="line"/>
      <point x="1051" y="1029" type="line"/>
      <point x="1051" y="1827" type="line"/>
    </contour>
  </outline>
</glyph>
<glyph name="uni02C9" format="2">
	<unicode hex="02C9"/>
	<advance width="2048"/>
	<outline>
		<contour>
			<point x="744" y="1630" type="line"/>
			<point x="744" y="1550" type="line"/>
			<point x="1304" y="1550" type="line"/>
			<point x="1304" y="1630" type="line"/>
		</contour>
	</outline>
</glyph>
<glyph name="uni02CA" format="2">
  <advance width="2048"/>
  <unicode hex="02CA"/>
  <outline>
    <contour>
      <point x="1037.0" y="949.0" type="line"/>
      <point x="958.0" y="764.0" type="line"/>
      <point x="1011.0" y="730.0" type="line"/>
      <point x="1090.0" y="915.0" type="line"/>
    </contour>
  </outline>
</glyph>
<glyph name="uni02CB" format="2">
  <advance width="2048"/>
  <unicode hex="02CB"/>
  <outline>
    <contour>
      <point x="932.0" y="877.0" type="line"/>
      <point x="1056.0" y="673.0" type="line"/>
      <point x="1116.0" y="727.0" type="line"/>
      <point x="992.0" y="932.0" type="line"/>
    </contour>
  </outline>
</glyph>
<glyph name="uni02CC" format="2">
  <advance width="2048"/>
  <unicode hex="02CC"/>
  <outline>
    <contour>
      <point x="997" y="809" type="line"/>
      <point x="997" y="11" type="line"/>
      <point x="1060" y="11" type="line"/>
      <point x="1060" y="809" type="line"/>
    </contour>
  </outline>
</glyph>
<glyph name="breve" format="2">
  <advance width="2048"/>
  <unicode hex="02D8"/>
  <outline>
    <contour>
      <point x="1189.0" y="1550.0" type="line"/>
      <point x="1189.0" y="1480.0" type="line"/>
      <point x="1354.0" y="1550.0" type="line"/>
      <point x="1354.0" y="1645.0" type="line"/>
    </contour>
    <contour>
      <point x="865.0" y="1550.0" type="line"/>
      <point x="865.0" y="1480.0" type="line"/>
      <point x="1189.0" y="1480.0" type="line"/>
      <point x="1189.0" y="1550.0" type="line"/>
    </contour>
    <contour>
      <point x="694.0" y="1630.0" type="line"/>
      <point x="694.0" y="1550.0" type="line"/>
      <point x="865.0" y="1480.0" type="line"/>
      <point x="865.0" y="1550.0" type="line"/>
    </contour>
  </outline>
</glyph>
<glyph name="ring" format="2">
  <advance width="2048"/>
  <unicode hex="02DA"/>
  <outline>
    <contour>
      <point x="878.0" y="1302.0" type="line"/>
      <point x="1168.0" y="1302.0" type="line"/>
      <point x="1168.0" y="1049.0" type="line"/>
      <point x="878.0" y="1049.0" type="line"/>
    </contour>
    <contour>
      <point x="844.0" y="1331.0" type="line"/>
      <point x="844.0" y="1023.0" type="line"/>
      <point x="1204.0" y="1023.0" type="line"/>
      <point x="1204.0" y="1331.0" type="line"/>
    </contour>
  </outline>
</glyph>
<glyph name="ogonek" format="2">
  <advance width="2048"/>
  <unicode hex="02DB"/>
  <outline>
    <contour>
      <point x="753" y="-300.3" type="line"/>
      <point x="1294" y="-300.3" type="line"/>
      <point x="1294" y="-360.3" type="line"/>
      <point x="753" y="-360.3" type="line"/>
    </contour>
    <contour>
      <point x="753" y="50.7002" type="line"/>
      <point x="813" y="50.7002" type="line"/>
      <point x="813" y="-360.3" type="line"/>
      <point x="753" y="-360.3" type="line"/>
    </contour>
    <contour>
      <point x="753" y="50.7002" type="line"/>
      <point x="1295" y="50.7002" type="line"/>
      <point x="1295" y="-8.2998" type="line"/>
      <point x="753" y="-8.2998" type="line"/>
    </contour>
  </outline>
</glyph>
<glyph name="tilde" format="2">
  <advance width="2048"/>
  <unicode hex="02DC"/>
  <outline>
    <contour>
      <point x="878.0" y="279.0" type="line"/>
      <point x="878.0" y="229.0" type="line"/>
      <point x="1228.0" y="158.0" type="line"/>
      <point x="1228.0" y="208.0" type="line"/>
    </contour>
    <contour>
      <point x="638.0" y="223.0" type="line"/>
      <point x="652.0" y="165.0" type="line"/>
      <point x="878.0" y="229.0" type="line"/>
      <point x="878.0" y="279.0" type="line"/>
    </contour>
    <contour>
      <point x="1228.0" y="208.0" type="line"/>
      <point x="1228.0" y="158.0" type="line"/>
      <point x="1410.0" y="309.0" type="line"/>
      <point x="1396.0" y="356.0" type="line"/>
    </contour>
  </outline>
</glyph>
<glyph name="hungarumlaut" format="2">
  <advance width="2048"/>
  <unicode hex="02DD"/>
  <outline>
    <contour>
      <point x="792.0" y="122.0" type="line"/>
      <point x="858.0" y="122.0" type="line"/>
      <point x="858.0" y="370.0" type="line"/>
      <point x="792.0" y="370.0" type="line"/>
    </contour>
    <contour>
      <point x="1196.0" y="122.0" type="line"/>
      <point x="1256.0" y="122.0" type="line"/>
      <point x="1256.0" y="370.0" type="line"/>
      <point x="1196.0" y="370.0" type="line"/>
    </contour>
  </outline>
</glyph>
<glyph name="gravecomb" format="2">
	<unicode hex="0300"/>
	<advance width="2048"/>
	<outline>
		<contour>
			<point x="932" y="877" type="line"/>
			<point x="1056" y="673" type="line"/>
			<point x="1116" y="727" type="line"/>
			<point x="992" y="932" type="line"/>
		</contour>
	</outline>
</glyph>
<glyph name="acutecomb" format="2">
  <advance width="0"/>
  <unicode hex="0301"/>
  <anchor x="8" y="786" name="_top"/>
  <outline>
    <contour>
      <point x="73" y="1017" type="line"/>
      <point x="-6" y="832" type="line"/>
      <point x="47" y="798" type="line"/>
      <point x="126" y="983" type="line"/>
    </contour>
  </outline>
</glyph>
<glyph name="uni0302" format="2">
  <unicode hex="0302"/>
  <outline>
    <contour>
      <point x="963.0" y="1555.0" type="line"/>
      <point x="927.0" y="1555.0" type="line"/>
      <point x="795.0" y="1245.0" type="line"/>
      <point x="822.0" y="1228.0" type="line"/>
    </contour>
    <contour>
      <point x="930.0" y="1556.5" type="line"/>
      <point x="1092.0" y="1223.5" type="line"/>
      <point x="1133.0" y="1241.5" type="line"/>
      <point x="967.0" y="1556.5" type="line"/>
    </contour>
  </outline>
</glyph>
<glyph name="tildecomb" format="2">
  <unicode hex="0303"/>
  <outline>
    <contour>
      <point x="878.0" y="1966.0" type="line"/>
      <point x="878.0" y="1916.0" type="line"/>
      <point x="1228.0" y="1845.0" type="line"/>
      <point x="1228.0" y="1895.0" type="line"/>
    </contour>
    <contour>
      <point x="638.0" y="1910.0" type="line"/>
      <point x="652.0" y="1852.0" type="line"/>
      <point x="878.0" y="1916.0" type="line"/>
      <point x="878.0" y="1966.0" type="line"/>
    </contour>
    <contour>
      <point x="1228.0" y="1895.0" type="line"/>
      <point x="1228.0" y="1845.0" type="line"/>
      <point x="1410.0" y="1996.0" type="line"/>
      <point x="1396.0" y="2043.0" type="line"/>
    </contour>
  </outline>
</glyph>
<glyph name="uni0304" format="2">
  <unicode hex="0304"/>
  <anchor x="-1" y="773" name="_top"/>
  <outline>
    <contour>
      <point x="-420" y="910" type="line"/>
      <point x="-420" y="830" type="line"/>
      <point x="420" y="830" type="line"/>
      <point x="420" y="910" type="line"/>
    </contour>
  </outline>
</glyph>
<glyph name="uni0305" format="2">
  <unicode hex="0305"/>
  <outline>
    <contour>
      <point x="454.0" y="1630.0" type="line"/>
      <point x="454.0" y="1550.0" type="line"/>
      <point x="1304.0" y="1550.0" type="line"/>
      <point x="1304.0" y="1630.0" type="line"/>
    </contour>
  </outline>
</glyph>
<glyph name="uni0306" format="2">
  <advance width="0"/>
  <unicode hex="0306"/>
  <anchor x="-3" y="782" name="_top"/>
  <outline>
    <contour>
      <point x="157" y="898" type="line"/>
      <point x="157" y="828" type="line"/>
      <point x="322" y="898" type="line"/>
      <point x="322" y="993" type="line"/>
    </contour>
    <contour>
      <point x="-167" y="898" type="line"/>
      <point x="-167" y="828" type="line"/>
      <point x="157" y="828" type="line"/>
      <point x="157" y="898" type="line"/>
    </contour>
    <contour>
      <point x="-338" y="978" type="line"/>
      <point x="-338" y="898" type="line"/>
      <point x="-167" y="828" type="line"/>
      <point x="-167" y="898" type="line"/>
    </contour>
  </outline>
</glyph>
<glyph name="uni0307" format="2">
	<unicode hex="0307"/>
	<advance width="2048"/>
	<outline>
		<contour>
			<point x="968" y="1738" type="line"/>
			<point x="968" y="1637" type="line"/>
			<point x="1080" y="1637" type="line"/>
			<point x="1080" y="1738" type="line"/>
		</contour>
	</outline>
</glyph>
<glyph name="uni0308" format="2">
  <advance width="1024"/>
  <unicode hex="0308"/>
  <outline>
    <contour>
      <point x="380" y="1738" type="line"/>
      <point x="492" y="1738" type="line"/>
      <point x="492" y="1637" type="line"/>
      <point x="380" y="1637" type="line"/>
    </contour>
    <contour>
      <point x="622" y="1738" type="line"/>
      <point x="734" y="1738" type="line"/>
      <point x="734" y="1637" type="line"/>
      <point x="622" y="1637" type="line"/>
    </contour>
  </outline>
</glyph>
<glyph name="hookabovecomb" format="2">
  <unicode hex="0309"/>
  <outline>
    <contour>
      <point x="122.0" y="1774.0" type="line"/>
      <point x="122.0" y="1703.0" type="line"/>
      <point x="577.0" y="1703.0" type="line"/>
      <point x="577.0" y="1774.0" type="line"/>
    </contour>
    <contour>
      <point x="517.0" y="1774.0" type="line"/>
      <point x="517.0" y="1432.0" type="line"/>
      <point x="582.0" y="1432.0" type="line"/>
      <point x="582.0" y="1774.0" type="line"/>
    </contour>
    <contour>
      <point x="210.0" y="1453.0" type="line"/>
      <point x="210.0" y="1386.0" type="line"/>
      <point x="581.0" y="1386.0" type="line"/>
      <point x="581.0" y="1453.0" type="line"/>
    </contour>
    <contour>
      <point x="210.0" y="1453.0" type="line"/>
      <point x="210.0" y="1190.0" type="line"/>
      <point x="272.0" y="1190.0" type="line"/>
      <point x="272.0" y="1453.0" type="line"/>
    </contour>
  </outline>
</glyph>
<glyph name="uni030A" format="2">
  <unicode hex="030A"/>
  <anchor x="-1" y="1536" name="_top"/>
  <outline>
    <contour>
      <point x="-130" y="1799" type="line"/>
      <point x="133" y="1799" type="line"/>
      <point x="133" y="1591" type="line"/>
      <point x="-130" y="1591" type="line"/>
    </contour>
    <contour>
      <point x="-180" y="1847" type="line"/>
      <point x="-180" y="1538" type="line"/>
      <point x="180" y="1538" type="line"/>
      <point x="180" y="1847" type="line"/>
    </contour>
  </outline>
</glyph>
<glyph name="uni030C" format="2">
  <unicode hex="030C"/>
  <outline>
    <contour>
      <point x="1023.0" y="1284.0" type="line"/>
      <point x="882.0" y="1611.0" type="line"/>
      <point x="855.0" y="1594.0" type="line"/>
      <point x="987.0" y="1285.0" type="line"/>
    </contour>
    <contour>
      <point x="990.0" y="1283.0" type="line"/>
      <point x="1027.0" y="1283.0" type="line"/>
      <point x="1193.0" y="1598.0" type="line"/>
      <point x="1152.0" y="1616.0" type="line"/>
    </contour>
  </outline>
</glyph>
<glyph name="uni030F" format="2">
  <advance width="0"/>
  <unicode hex="030F"/>
  <anchor x="4" y="785" name="_top"/>
  <outline>
    <contour>
      <point x="-18" y="1003" type="line"/>
      <point x="102" y="767" type="line"/>
      <point x="129" y="813" type="line"/>
      <point x="10" y="1050" type="line"/>
    </contour>
    <contour>
      <point x="-236" y="1003" type="line"/>
      <point x="-116" y="767" type="line"/>
      <point x="-86" y="806" type="line"/>
      <point x="-205" y="1043" type="line"/>
    </contour>
  </outline>
</glyph>
<glyph name="uni0311" format="2">
  <advance width="0"/>
  <unicode hex="0311"/>
  <anchor x="-23" y="770" name="_top"/>
  <outline>
    <contour>
      <point x="-178" y="831" type="line"/>
      <point x="-178" y="899" type="line"/>
      <point x="-343" y="831" type="line"/>
      <point x="-343" y="734" type="line"/>
    </contour>
    <contour>
      <point x="146" y="831" type="line"/>
      <point x="146" y="899" type="line"/>
      <point x="-178" y="899" type="line"/>
      <point x="-178" y="831" type="line"/>
    </contour>
    <contour>
      <point x="317" y="749" type="line"/>
      <point x="317" y="831" type="line"/>
      <point x="146" y="899" type="line"/>
      <point x="146" y="831" type="line"/>
    </contour>
  </outline>
</glyph>
<glyph name="uni0312" format="2">
  <advance width="0"/>
  <unicode hex="0312"/>
  <anchor x="-14" y="759" name="_top"/>
  <outline>
    <contour>
      <point x="-63" y="820" type="line"/>
      <point x="74" y="820" type="line"/>
      <point x="74" y="1049" type="line"/>
      <point x="-63" y="1049" type="line"/>
    </contour>
    <contour>
      <point x="35" y="922" type="line"/>
      <point x="72" y="1057" type="line"/>
      <point x="-50" y="1263" type="line"/>
      <point x="-83" y="1203" type="line"/>
    </contour>
  </outline>
</glyph>
<glyph name="commareversedabovecomb" format="2">
  <advance width="0"/>
  <unicode hex="0314"/>
  <anchor x="85" y="949" name="_top"/>
  <outline>
    <contour>
      <point x="133" y="1462" type="line"/>
      <point x="-3" y="1462" type="line"/>
      <point x="-3" y="1305" type="line"/>
      <point x="133" y="1305" type="line"/>
    </contour>
    <contour>
      <point x="49" y="1432" type="line"/>
      <point x="-1" y="1323" type="line"/>
      <point x="41" y="1149" type="line"/>
      <point x="91" y="1198" type="line"/>
    </contour>
  </outline>
</glyph>
